<ttFont>
    <TTGlyph name=".notdef" xMin="193" yMin="105" xMax="1034" yMax="1567">
      <contour>
        <pt x="193" y="1567" on="1"/>
        <pt x="1034" y="1567" on="1"/>
        <pt x="1034" y="105" on="1"/>
        <pt x="193" y="105" on="1"/>
      </contour>
      <contour>
        <pt x="297" y="209" on="1"/>
        <pt x="930" y="209" on="1"/>
        <pt x="930" y="1463" on="1"/>
        <pt x="297" y="1463" on="1"/>
      </contour>
    </TTGlyph>
    <TTGlyph name="aatamil" xMin="52" yMin="-553" xMax="2952" yMax="1279">
      <contour>
        <pt x="2334" y="-149" on="1"/>
        <pt x="2032" y="-149" on="1"/>
        <pt x="2032" y="283" on="1"/>
        <pt x="1751" y="283" on="1"/>
        <pt x="1633" y="61" on="0"/>
        <pt x="1109" y="-183" on="0"/>
        <pt x="757" y="-183" on="1"/>
        <pt x="720" y="-183" on="1"/>
        <pt x="408" y="-183" on="0"/>
        <pt x="52" y="44" on="0"/>
        <pt x="52" y="235" on="1"/>
        <pt x="52" y="308" on="0"/>
        <pt x="122" y="429" on="0"/>
        <pt x="283" y="499" on="0"/>
        <pt x="464" y="499" on="1"/>
        <pt x="1515" y="499" on="1"/>
        <pt x="1521" y="536" on="0"/>
        <pt x="1521" y="607" on="1"/>
        <pt x="1521" y="729" on="0"/>
        <pt x="1445" y="924" on="0"/>
        <pt x="1370" y="986" on="1"/>
        <pt x="1376" y="950" on="0"/>
        <pt x="1376" y="909" on="1"/>
        <pt x="1376" y="749" on="0"/>
        <pt x="1180" y="573" on="0"/>
        <pt x="990" y="573" on="1"/>
        <pt x="817" y="573" on="0"/>
        <pt x="600" y="752" on="0"/>
        <pt x="600" y="906" on="1"/>
        <pt x="600" y="1084" on="0"/>
        <pt x="857" y="1279" on="0"/>
        <pt x="1084" y="1279" on="1"/>
        <pt x="1300" y="1279" on="0"/>
        <pt x="1629" y="1103" on="0"/>
        <pt x="1807" y="788" on="0"/>
        <pt x="1807" y="605" on="1"/>
        <pt x="1807" y="542" on="0"/>
        <pt x="1800" y="499" on="1"/>
        <pt x="2032" y="499" on="1"/>
        <pt x="2032" y="1255" on="1"/>
        <pt x="2334" y="1255" on="1"/>
        <pt x="2334" y="301" on="1"/>
        <pt x="2432" y="345" on="0"/>
        <pt x="2573" y="345" on="1"/>
        <pt x="2677" y="345" on="0"/>
        <pt x="2854" y="258" on="0"/>
        <pt x="2952" y="99" on="0"/>
        <pt x="2952" y="-7" on="1"/>
        <pt x="2952" y="-259" on="0"/>
        <pt x="2496" y="-553" on="0"/>
        <pt x="2084" y="-553" on="1"/>
        <pt x="2049" y="-553" on="1"/>
        <pt x="1757" y="-553" on="0"/>
        <pt x="1429" y="-366" on="0"/>
        <pt x="1429" y="-201" on="1"/>
        <pt x="1429" y="-98" on="0"/>
        <pt x="1607" y="55" on="0"/>
        <pt x="1746" y="55" on="1"/>
        <pt x="1858" y="55" on="0"/>
        <pt x="1966" y="19" on="1"/>
        <pt x="1931" y="-174" on="1"/>
        <pt x="1866" y="-154" on="0"/>
        <pt x="1803" y="-154" on="1"/>
        <pt x="1700" y="-154" on="0"/>
        <pt x="1700" y="-216" on="1"/>
        <pt x="1700" y="-337" on="0"/>
        <pt x="2085" y="-337" on="1"/>
        <pt x="2097" y="-337" on="1"/>
        <pt x="2360" y="-337" on="0"/>
        <pt x="2666" y="-169" on="0"/>
        <pt x="2666" y="-23" on="1"/>
        <pt x="2666" y="51" on="0"/>
        <pt x="2573" y="135" on="0"/>
        <pt x="2489" y="135" on="1"/>
        <pt x="2411" y="135" on="0"/>
        <pt x="2334" y="97" on="1"/>
      </contour>
      <contour>
        <pt x="1105" y="1074" on="1"/>
        <pt x="1091" y="1074" on="1"/>
        <pt x="873" y="1074" on="0"/>
        <pt x="873" y="920" on="1"/>
        <pt x="873" y="857" on="0"/>
        <pt x="946" y="781" on="0"/>
        <pt x="1008" y="781" on="1"/>
        <pt x="1138" y="781" on="0"/>
        <pt x="1138" y="938" on="1"/>
        <pt x="1138" y="1005" on="0"/>
      </contour>
      <contour>
        <pt x="780" y="34" on="1"/>
        <pt x="1014" y="34" on="0"/>
        <pt x="1343" y="158" on="0"/>
        <pt x="1439" y="283" on="1"/>
        <pt x="542" y="283" on="1"/>
        <pt x="445" y="283" on="0"/>
        <pt x="379" y="271" on="0"/>
        <pt x="343" y="236" on="0"/>
        <pt x="343" y="206" on="1"/>
        <pt x="343" y="123" on="0"/>
        <pt x="553" y="34" on="0"/>
        <pt x="756" y="34" on="1"/>
      </contour>
    </TTGlyph>
    <TTGlyph name="aavowelsigntamil" xMin="164" yMin="105" xMax="1385" yMax="1255">
      <contour>
        <pt x="164" y="1255" on="1"/>
        <pt x="1385" y="1255" on="1"/>
        <pt x="1385" y="1038" on="1"/>
        <pt x="1089" y="1038" on="1"/>
        <pt x="1089" y="105" on="1"/>
        <pt x="787" y="105" on="1"/>
        <pt x="787" y="1038" on="1"/>
        <pt x="466" y="1038" on="1"/>
        <pt x="466" y="105" on="1"/>
        <pt x="164" y="105" on="1"/>
      </contour>
    </TTGlyph>
    <TTGlyph name="aitamil" xMin="105" yMin="-553" xMax="2202" yMax="1279">
      <contour>
        <pt x="721" y="-553" on="1"/>
        <pt x="420" y="-553" on="0"/>
        <pt x="105" y="-308" on="0"/>
        <pt x="105" y="-82" on="1"/>
        <pt x="105" y="68" on="0"/>
        <pt x="250" y="287" on="0"/>
        <pt x="555" y="416" on="0"/>
        <pt x="843" y="416" on="1"/>
        <pt x="1262" y="416" on="1"/>
        <pt x="1422" y="416" on="0"/>
        <pt x="1597" y="434" on="0"/>
        <pt x="1740" y="477" on="0"/>
        <pt x="1847" y="559" on="0"/>
        <pt x="1900" y="681" on="0"/>
        <pt x="1900" y="765" on="1"/>
        <pt x="1900" y="905" on="0"/>
        <pt x="1755" y="1062" on="0"/>
        <pt x="1634" y="1062" on="1"/>
        <pt x="1549" y="1062" on="0"/>
        <pt x="1440" y="977" on="0"/>
        <pt x="1401" y="837" on="0"/>
        <pt x="1401" y="707" on="1"/>
        <pt x="1401" y="538" on="1"/>
        <pt x="1099" y="538" on="1"/>
        <pt x="1099" y="654" on="1"/>
        <pt x="1099" y="814" on="0"/>
        <pt x="1025" y="987" on="0"/>
        <pt x="858" y="1076" on="0"/>
        <pt x="720" y="1077" on="1"/>
        <pt x="812" y="1038" on="0"/>
        <pt x="912" y="889" on="0"/>
        <pt x="912" y="792" on="1"/>
        <pt x="912" y="637" on="0"/>
        <pt x="695" y="458" on="0"/>
        <pt x="503" y="458" on="1"/>
        <pt x="382" y="458" on="0"/>
        <pt x="202" y="545" on="0"/>
        <pt x="105" y="706" on="0"/>
        <pt x="105" y="801" on="1"/>
        <pt x="105" y="1023" on="0"/>
        <pt x="450" y="1279" on="0"/>
        <pt x="737" y="1279" on="1"/>
        <pt x="906" y="1279" on="0"/>
        <pt x="1157" y="1179" on="0"/>
        <pt x="1238" y="1080" on="1"/>
        <pt x="1307" y="1179" on="0"/>
        <pt x="1516" y="1279" on="0"/>
        <pt x="1655" y="1279" on="1"/>
        <pt x="1819" y="1279" on="0"/>
        <pt x="2066" y="1160" on="0"/>
        <pt x="2202" y="928" on="0"/>
        <pt x="2202" y="778" on="1"/>
        <pt x="2202" y="585" on="0"/>
        <pt x="2030" y="329" on="0"/>
        <pt x="1664" y="199" on="0"/>
        <pt x="1331" y="199" on="1"/>
        <pt x="855" y="199" on="1"/>
        <pt x="726" y="199" on="0"/>
        <pt x="571" y="168" on="0"/>
        <pt x="457" y="96" on="0"/>
        <pt x="407" y="-7" on="0"/>
        <pt x="407" y="-75" on="1"/>
        <pt x="407" y="-198" on="0"/>
        <pt x="586" y="-335" on="0"/>
        <pt x="740" y="-335" on="1"/>
        <pt x="869" y="-335" on="0"/>
        <pt x="1026" y="-257" on="0"/>
        <pt x="1099" y="-120" on="0"/>
        <pt x="1099" y="15" on="1"/>
        <pt x="1099" y="71" on="1"/>
        <pt x="1401" y="71" on="1"/>
        <pt x="1401" y="6" on="1"/>
        <pt x="1401" y="-142" on="0"/>
        <pt x="1475" y="-279" on="0"/>
        <pt x="1590" y="-335" on="0"/>
        <pt x="1663" y="-335" on="1"/>
        <pt x="1774" y="-335" on="0"/>
        <pt x="1901" y="-204" on="0"/>
        <pt x="1901" y="-90" on="1"/>
        <pt x="1901" y="15" on="0"/>
        <pt x="1863" y="116" on="1"/>
        <pt x="2150" y="204" on="1"/>
        <pt x="2202" y="87" on="0"/>
        <pt x="2202" y="-80" on="1"/>
        <pt x="2202" y="-309" on="0"/>
        <pt x="1933" y="-553" on="0"/>
        <pt x="1678" y="-553" on="1"/>
        <pt x="1373" y="-553" on="0"/>
        <pt x="1237" y="-350" on="1"/>
        <pt x="1137" y="-455" on="0"/>
        <pt x="882" y="-553" on="0"/>
      </contour>
      <contour>
        <pt x="447" y="996" on="1"/>
        <pt x="365" y="927" on="0"/>
        <pt x="365" y="811" on="1"/>
        <pt x="365" y="742" on="0"/>
        <pt x="441" y="663" on="0"/>
        <pt x="512" y="663" on="1"/>
        <pt x="580" y="663" on="0"/>
        <pt x="657" y="734" on="0"/>
        <pt x="657" y="795" on="1"/>
        <pt x="657" y="879" on="0"/>
        <pt x="549" y="983" on="0"/>
      </contour>
    </TTGlyph>
    <TTGlyph name="aivowelsigntamil" xMin="95" yMin="81" xMax="2529" yMax="1279">
      <contour>
        <pt x="399" y="771" on="1"/>
        <pt x="501" y="816" on="0"/>
        <pt x="615" y="816" on="1"/>
        <pt x="782" y="816" on="0"/>
        <pt x="981" y="627" on="0"/>
        <pt x="981" y="461" on="1"/>
        <pt x="981" y="280" on="0"/>
        <pt x="764" y="81" on="0"/>
        <pt x="564" y="81" on="1"/>
        <pt x="342" y="81" on="0"/>
        <pt x="95" y="348" on="0"/>
        <pt x="95" y="597" on="1"/>
        <pt x="95" y="802" on="0"/>
        <pt x="301" y="1112" on="0"/>
        <pt x="686" y="1279" on="0"/>
        <pt x="945" y="1279" on="1"/>
        <pt x="1105" y="1279" on="0"/>
        <pt x="1368" y="1215" on="0"/>
        <pt x="1488" y="1150" on="1"/>
        <pt x="1677" y="1279" on="0"/>
        <pt x="1905" y="1279" on="1"/>
        <pt x="2207" y="1279" on="0"/>
        <pt x="2529" y="962" on="0"/>
        <pt x="2529" y="683" on="1"/>
        <pt x="2529" y="526" on="0"/>
        <pt x="2433" y="212" on="0"/>
        <pt x="2347" y="81" on="1"/>
        <pt x="2097" y="203" on="1"/>
        <pt x="2227" y="408" on="0"/>
        <pt x="2227" y="664" on="1"/>
        <pt x="2227" y="851" on="0"/>
        <pt x="2037" y="1062" on="0"/>
        <pt x="1869" y="1062" on="1"/>
        <pt x="1755" y="1062" on="0"/>
        <pt x="1681" y="1020" on="1"/>
        <pt x="1804" y="907" on="0"/>
        <pt x="1928" y="641" on="0"/>
        <pt x="1928" y="488" on="1"/>
        <pt x="1928" y="298" on="0"/>
        <pt x="1713" y="81" on="0"/>
        <pt x="1524" y="81" on="1"/>
        <pt x="1325" y="81" on="0"/>
        <pt x="1112" y="298" on="0"/>
        <pt x="1112" y="489" on="1"/>
        <pt x="1112" y="624" on="0"/>
        <pt x="1208" y="875" on="0"/>
        <pt x="1304" y="991" on="1"/>
        <pt x="1228" y="1024" on="0"/>
        <pt x="1051" y="1058" on="0"/>
        <pt x="951" y="1058" on="1"/>
        <pt x="750" y="1058" on="0"/>
        <pt x="461" y="906" on="0"/>
      </contour>
      <contour>
        <pt x="1499" y="861" on="1"/>
        <pt x="1446" y="788" on="0"/>
        <pt x="1393" y="604" on="0"/>
        <pt x="1393" y="494" on="1"/>
        <pt x="1393" y="395" on="0"/>
        <pt x="1458" y="289" on="0"/>
        <pt x="1517" y="289" on="1"/>
        <pt x="1580" y="289" on="0"/>
        <pt x="1644" y="394" on="0"/>
        <pt x="1644" y="496" on="1"/>
        <pt x="1644" y="605" on="0"/>
        <pt x="1571" y="788" on="0"/>
      </contour>
      <contour>
        <pt x="362" y="546" on="1"/>
        <pt x="369" y="422" on="0"/>
        <pt x="474" y="289" on="0"/>
        <pt x="562" y="289" on="1"/>
        <pt x="625" y="289" on="0"/>
        <pt x="699" y="373" on="0"/>
        <pt x="699" y="447" on="1"/>
        <pt x="699" y="522" on="0"/>
        <pt x="611" y="611" on="0"/>
        <pt x="539" y="611" on="1"/>
        <pt x="451" y="611" on="0"/>
      </contour>
      <contour>
        <pt x="1464" y="1255" on="1"/>
      </contour>
    </TTGlyph>
    <TTGlyph name="anusvaratamil" xMin="96" yMin="1268" xMax="682" yMax="1847">
      <contour>
        <pt x="388" y="1847" on="1"/>
        <pt x="516" y="1847" on="0"/>
        <pt x="682" y="1682" on="0"/>
        <pt x="682" y="1556" on="1"/>
        <pt x="682" y="1432" on="0"/>
        <pt x="517" y="1268" on="0"/>
        <pt x="388" y="1268" on="1"/>
        <pt x="259" y="1268" on="0"/>
        <pt x="96" y="1433" on="0"/>
        <pt x="96" y="1556" on="1"/>
        <pt x="96" y="1681" on="0"/>
        <pt x="260" y="1847" on="0"/>
      </contour>
      <contour>
        <pt x="388" y="1446" on="1"/>
        <pt x="437" y="1446" on="0"/>
        <pt x="495" y="1507" on="0"/>
        <pt x="495" y="1556" on="1"/>
        <pt x="495" y="1607" on="0"/>
        <pt x="436" y="1669" on="0"/>
        <pt x="388" y="1669" on="1"/>
        <pt x="341" y="1669" on="0"/>
        <pt x="283" y="1606" on="0"/>
        <pt x="283" y="1556" on="1"/>
        <pt x="283" y="1508" on="0"/>
        <pt x="340" y="1446" on="0"/>
      </contour>
    </TTGlyph>
    <TTGlyph name="asabovesigntamil" xMin="112" yMin="-553" xMax="4393" yMax="1847">
      <contour>
        <pt x="3438" y="105" on="1"/>
        <pt x="2511" y="105" on="1"/>
        <pt x="2504" y="271" on="1"/>
        <pt x="2601" y="446" on="0"/>
        <pt x="2601" y="652" on="1"/>
        <pt x="2601" y="818" on="0"/>
        <pt x="2460" y="1024" on="0"/>
        <pt x="2324" y="1055" on="1"/>
        <pt x="2375" y="890" on="0"/>
        <pt x="2375" y="742" on="1"/>
        <pt x="2375" y="506" on="0"/>
        <pt x="2155" y="261" on="0"/>
        <pt x="1940" y="261" on="1"/>
        <pt x="1726" y="261" on="0"/>
        <pt x="1482" y="488" on="0"/>
        <pt x="1482" y="694" on="1"/>
        <pt x="1482" y="890" on="0"/>
        <pt x="1727" y="1177" on="0"/>
        <pt x="1953" y="1242" on="1"/>
        <pt x="1843" y="1420" on="0"/>
        <pt x="1429" y="1621" on="0"/>
        <pt x="1189" y="1621" on="1"/>
        <pt x="962" y="1621" on="0"/>
        <pt x="596" y="1447" on="0"/>
        <pt x="398" y="1113" on="0"/>
        <pt x="398" y="881" on="1"/>
        <pt x="398" y="722" on="0"/>
        <pt x="471" y="474" on="0"/>
        <pt x="538" y="395" on="1"/>
        <pt x="523" y="449" on="0"/>
        <pt x="523" y="504" on="1"/>
        <pt x="523" y="668" on="0"/>
        <pt x="746" y="875" on="0"/>
        <pt x="934" y="875" on="1"/>
        <pt x="1132" y="875" on="0"/>
        <pt x="1360" y="659" on="0"/>
        <pt x="1360" y="480" on="1"/>
        <pt x="1360" y="289" on="0"/>
        <pt x="1090" y="81" on="0"/>
        <pt x="841" y="81" on="1"/>
        <pt x="621" y="81" on="0"/>
        <pt x="292" y="273" on="0"/>
        <pt x="112" y="639" on="0"/>
        <pt x="112" y="884" on="1"/>
        <pt x="112" y="1170" on="0"/>
        <pt x="380" y="1608" on="0"/>
        <pt x="875" y="1847" on="0"/>
        <pt x="1190" y="1847" on="1"/>
        <pt x="1555" y="1847" on="0"/>
        <pt x="2095" y="1558" on="0"/>
        <pt x="2242" y="1279" on="1"/>
        <pt x="2565" y="1274" on="0"/>
        <pt x="2898" y="959" on="0"/>
        <pt x="2898" y="686" on="1"/>
        <pt x="2898" y="510" on="0"/>
        <pt x="2822" y="322" on="1"/>
        <pt x="3486" y="322" on="1"/>
        <pt x="3530" y="490" on="1"/>
        <pt x="3310" y="513" on="0"/>
        <pt x="3080" y="725" on="0"/>
        <pt x="3080" y="902" on="1"/>
        <pt x="3080" y="1004" on="0"/>
        <pt x="3183" y="1180" on="0"/>
        <pt x="3374" y="1279" on="0"/>
        <pt x="3501" y="1279" on="1"/>
        <pt x="3695" y="1279" on="0"/>
        <pt x="3896" y="1090" on="0"/>
        <pt x="3896" y="940" on="1"/>
        <pt x="3896" y="829" on="0"/>
        <pt x="3869" y="703" on="1"/>
        <pt x="3931" y="712" on="0"/>
        <pt x="4047" y="759" on="0"/>
        <pt x="4131" y="816" on="1"/>
        <pt x="4393" y="816" on="1"/>
        <pt x="4393" y="105" on="1"/>
        <pt x="3720" y="105" on="1"/>
        <pt x="3573" y="-476" on="1"/>
        <pt x="3299" y="-403" on="1"/>
      </contour>
      <contour>
        <pt x="3583" y="697" on="1"/>
        <pt x="3614" y="841" on="0"/>
        <pt x="3614" y="928" on="1"/>
        <pt x="3614" y="1067" on="0"/>
        <pt x="3503" y="1067" on="1"/>
        <pt x="3434" y="1067" on="0"/>
        <pt x="3353" y="970" on="0"/>
        <pt x="3353" y="890" on="1"/>
        <pt x="3353" y="803" on="0"/>
        <pt x="3468" y="707" on="0"/>
      </contour>
      <contour>
        <pt x="2042" y="1043" on="1"/>
        <pt x="1910" y="1005" on="0"/>
        <pt x="1767" y="817" on="0"/>
        <pt x="1767" y="691" on="1"/>
        <pt x="1767" y="596" on="0"/>
        <pt x="1854" y="478" on="0"/>
        <pt x="1927" y="478" on="1"/>
        <pt x="2090" y="478" on="0"/>
        <pt x="2090" y="740" on="1"/>
        <pt x="2090" y="898" on="0"/>
      </contour>
      <contour>
        <pt x="828" y="290" on="1"/>
        <pt x="852" y="289" on="1"/>
        <pt x="967" y="284" on="0"/>
        <pt x="1077" y="392" on="0"/>
        <pt x="1077" y="488" on="1"/>
        <pt x="1077" y="564" on="0"/>
        <pt x="998" y="667" on="0"/>
        <pt x="927" y="667" on="1"/>
        <pt x="860" y="667" on="0"/>
        <pt x="774" y="571" on="0"/>
        <pt x="774" y="490" on="1"/>
        <pt x="774" y="380" on="0"/>
      </contour>
      <contour>
        <pt x="4138" y="584" on="1"/>
        <pt x="4082" y="549" on="0"/>
        <pt x="3922" y="502" on="0"/>
        <pt x="3818" y="490" on="1"/>
        <pt x="3775" y="322" on="1"/>
        <pt x="4134" y="322" on="1"/>
        <pt x="4134" y="438" on="1"/>
        <pt x="4134" y="508" on="0"/>
      </contour>
      <contour>
        <pt x="3388" y="-553" on="1"/>
      </contour>
    </TTGlyph>
    <TTGlyph name="asciicircum.tamil" xMin="63" yMin="105" xMax="1220" yMax="1575">
      <contour>
        <pt x="63" y="625" on="1"/>
        <pt x="541" y="1575" on="1"/>
        <pt x="685" y="1575" on="1"/>
        <pt x="1220" y="625" on="1"/>
        <pt x="981" y="625" on="1"/>
        <pt x="619" y="1268" on="1"/>
        <pt x="299" y="625" on="1"/>
      </contour>
      <contour>
        <pt x="597" y="105" on="1"/>
      </contour>
    </TTGlyph>
    <TTGlyph name="asciitilde.tamil" xMin="88" yMin="105" xMax="1081" yMax="1565">
      <contour>
        <pt x="88" y="656" on="1"/>
        <pt x="88" y="887" on="1"/>
        <pt x="191" y="996" on="0"/>
        <pt x="344" y="996" on="1"/>
        <pt x="413" y="996" on="0"/>
        <pt x="531" y="969" on="0"/>
        <pt x="621" y="932" on="1"/>
        <pt x="689" y="903" on="0"/>
        <pt x="795" y="877" on="0"/>
        <pt x="848" y="877" on="1"/>
        <pt x="903" y="877" on="0"/>
        <pt x="1027" y="943" on="0"/>
        <pt x="1081" y="998" on="1"/>
        <pt x="1081" y="767" on="1"/>
        <pt x="980" y="658" on="0"/>
        <pt x="825" y="658" on="1"/>
        <pt x="748" y="658" on="0"/>
        <pt x="620" y="691" on="0"/>
        <pt x="549" y="721" on="1"/>
        <pt x="472" y="753" on="0"/>
        <pt x="370" y="777" on="0"/>
        <pt x="322" y="777" on="1"/>
        <pt x="269" y="777" on="0"/>
        <pt x="146" y="713" on="0"/>
      </contour>
      <contour>
        <pt x="597" y="105" on="1"/>
      </contour>
      <contour>
        <pt x="555" y="1565" on="1"/>
      </contour>
    </TTGlyph>
    <TTGlyph name="asterisk.tamil" xMin="63" yMin="786" xMax="1053" yMax="1847">
      <contour>
        <pt x="688" y="1744" on="1"/>
        <pt x="647" y="1376" on="1"/>
        <pt x="1020" y="1480" on="1"/>
        <pt x="1053" y="1228" on="1"/>
        <pt x="713" y="1204" on="1"/>
        <pt x="936" y="907" on="1"/>
        <pt x="709" y="786" on="1"/>
        <pt x="553" y="1099" on="1"/>
        <pt x="416" y="788" on="1"/>
        <pt x="180" y="907" on="1"/>
        <pt x="401" y="1204" on="1"/>
        <pt x="63" y="1230" on="1"/>
        <pt x="102" y="1480" on="1"/>
        <pt x="467" y="1376" on="1"/>
        <pt x="426" y="1744" on="1"/>
      </contour>
      <contour>
        <pt x="795" y="1565" on="1"/>
      </contour>
      <contour>
        <pt x="797" y="1847" on="1"/>
      </contour>
    </TTGlyph>
    <TTGlyph name="atamil" xMin="52" yMin="-553" xMax="2334" yMax="1279">
      <contour>
        <pt x="2334" y="-210" on="1"/>
        <pt x="2032" y="-210" on="1"/>
        <pt x="2032" y="283" on="1"/>
        <pt x="1751" y="283" on="1"/>
        <pt x="1633" y="61" on="0"/>
        <pt x="1109" y="-183" on="0"/>
        <pt x="757" y="-183" on="1"/>
        <pt x="720" y="-183" on="1"/>
        <pt x="408" y="-183" on="0"/>
        <pt x="52" y="44" on="0"/>
        <pt x="52" y="235" on="1"/>
        <pt x="52" y="308" on="0"/>
        <pt x="122" y="429" on="0"/>
        <pt x="283" y="499" on="0"/>
        <pt x="464" y="499" on="1"/>
        <pt x="1515" y="499" on="1"/>
        <pt x="1521" y="536" on="0"/>
        <pt x="1521" y="607" on="1"/>
        <pt x="1521" y="729" on="0"/>
        <pt x="1445" y="924" on="0"/>
        <pt x="1370" y="986" on="1"/>
        <pt x="1376" y="950" on="0"/>
        <pt x="1376" y="909" on="1"/>
        <pt x="1376" y="749" on="0"/>
        <pt x="1180" y="573" on="0"/>
        <pt x="990" y="573" on="1"/>
        <pt x="817" y="573" on="0"/>
        <pt x="600" y="752" on="0"/>
        <pt x="600" y="906" on="1"/>
        <pt x="600" y="1084" on="0"/>
        <pt x="857" y="1279" on="0"/>
        <pt x="1084" y="1279" on="1"/>
        <pt x="1300" y="1279" on="0"/>
        <pt x="1629" y="1103" on="0"/>
        <pt x="1807" y="788" on="0"/>
        <pt x="1807" y="605" on="1"/>
        <pt x="1807" y="542" on="0"/>
        <pt x="1800" y="499" on="1"/>
        <pt x="2032" y="499" on="1"/>
        <pt x="2032" y="1255" on="1"/>
        <pt x="2334" y="1255" on="1"/>
      </contour>
      <contour>
        <pt x="1105" y="1074" on="1"/>
        <pt x="1091" y="1074" on="1"/>
        <pt x="873" y="1074" on="0"/>
        <pt x="873" y="920" on="1"/>
        <pt x="873" y="857" on="0"/>
        <pt x="946" y="781" on="0"/>
        <pt x="1008" y="781" on="1"/>
        <pt x="1138" y="781" on="0"/>
        <pt x="1138" y="938" on="1"/>
        <pt x="1138" y="1005" on="0"/>
      </contour>
      <contour>
        <pt x="780" y="34" on="1"/>
        <pt x="1014" y="34" on="0"/>
        <pt x="1343" y="158" on="0"/>
        <pt x="1439" y="283" on="1"/>
        <pt x="542" y="283" on="1"/>
        <pt x="445" y="283" on="0"/>
        <pt x="379" y="271" on="0"/>
        <pt x="343" y="236" on="0"/>
        <pt x="343" y="206" on="1"/>
        <pt x="343" y="123" on="0"/>
        <pt x="553" y="34" on="0"/>
        <pt x="756" y="34" on="1"/>
      </contour>
      <contour>
        <pt x="486" y="-553" on="1"/>
      </contour>
    </TTGlyph>
    <TTGlyph name="aulengthmarktamil" xMin="95" yMin="81" xMax="2373" yMax="1279">
      <component glyphName="llatamil" x="0" y="0" flags="0x204"/>
    </TTGlyph>
    <TTGlyph name="autamil" xMin="83" yMin="-553" xMax="4678" yMax="1279">
      <contour>
        <pt x="1034" y="383" on="1"/>
        <pt x="1034" y="504" on="0"/>
        <pt x="1157" y="729" on="0"/>
        <pt x="1391" y="859" on="0"/>
        <pt x="1546" y="859" on="1"/>
        <pt x="1635" y="859" on="0"/>
        <pt x="1703" y="833" on="1"/>
        <pt x="1644" y="703" on="0"/>
        <pt x="1644" y="582" on="1"/>
        <pt x="1644" y="500" on="0"/>
        <pt x="1720" y="411" on="0"/>
        <pt x="1796" y="411" on="1"/>
        <pt x="1867" y="411" on="0"/>
        <pt x="1941" y="509" on="0"/>
        <pt x="1941" y="599" on="1"/>
        <pt x="1941" y="735" on="0"/>
        <pt x="1751" y="945" on="0"/>
        <pt x="1392" y="1062" on="0"/>
        <pt x="1155" y="1062" on="1"/>
        <pt x="889" y="1062" on="0"/>
        <pt x="485" y="952" on="0"/>
        <pt x="392" y="850" on="1"/>
        <pt x="483" y="900" on="0"/>
        <pt x="590" y="900" on="1"/>
        <pt x="748" y="900" on="0"/>
        <pt x="937" y="726" on="0"/>
        <pt x="937" y="575" on="1"/>
        <pt x="937" y="401" on="0"/>
        <pt x="723" y="217" on="0"/>
        <pt x="521" y="217" on="1"/>
        <pt x="326" y="217" on="0"/>
        <pt x="83" y="452" on="0"/>
        <pt x="83" y="644" on="1"/>
        <pt x="83" y="941" on="0"/>
        <pt x="636" y="1279" on="0"/>
        <pt x="1129" y="1279" on="1"/>
        <pt x="1478" y="1279" on="0"/>
        <pt x="1939" y="1140" on="0"/>
        <pt x="2232" y="844" on="0"/>
        <pt x="2232" y="609" on="1"/>
        <pt x="2232" y="494" on="0"/>
        <pt x="2131" y="306" on="0"/>
        <pt x="1930" y="203" on="0"/>
        <pt x="1788" y="203" on="1"/>
        <pt x="1608" y="203" on="0"/>
        <pt x="1404" y="370" on="0"/>
        <pt x="1404" y="516" on="1"/>
        <pt x="1404" y="579" on="0"/>
        <pt x="1424" y="637" on="1"/>
        <pt x="1361" y="592" on="0"/>
        <pt x="1295" y="465" on="0"/>
        <pt x="1295" y="392" on="1"/>
        <pt x="1295" y="304" on="0"/>
        <pt x="1359" y="180" on="0"/>
        <pt x="1491" y="95" on="0"/>
        <pt x="1654" y="64" on="0"/>
        <pt x="1798" y="64" on="1"/>
        <pt x="2029" y="64" on="1"/>
        <pt x="2029" y="-153" on="1"/>
        <pt x="1617" y="-153" on="1"/>
        <pt x="1599" y="-179" on="0"/>
        <pt x="1588" y="-201" on="1"/>
        <pt x="1494" y="-388" on="0"/>
        <pt x="1193" y="-553" on="0"/>
        <pt x="970" y="-553" on="1"/>
        <pt x="744" y="-553" on="0"/>
        <pt x="487" y="-359" on="0"/>
        <pt x="487" y="-182" on="1"/>
        <pt x="487" y="-6" on="0"/>
        <pt x="599" y="153" on="1"/>
        <pt x="843" y="43" on="1"/>
        <pt x="773" y="-54" on="0"/>
        <pt x="773" y="-152" on="1"/>
        <pt x="773" y="-240" on="0"/>
        <pt x="881" y="-336" on="0"/>
        <pt x="977" y="-336" on="1"/>
        <pt x="1085" y="-336" on="0"/>
        <pt x="1239" y="-232" on="0"/>
        <pt x="1298" y="-134" on="1"/>
        <pt x="1313" y="-109" on="0"/>
        <pt x="1334" y="-83" on="1"/>
        <pt x="1176" y="-5" on="0"/>
        <pt x="1034" y="223" on="0"/>
      </contour>
      <contour>
        <pt x="345" y="645" on="1"/>
        <pt x="345" y="642" on="1"/>
        <pt x="345" y="535" on="0"/>
        <pt x="439" y="425" on="0"/>
        <pt x="530" y="425" on="1"/>
        <pt x="600" y="425" on="0"/>
        <pt x="677" y="504" on="0"/>
        <pt x="677" y="576" on="1"/>
        <pt x="677" y="639" on="0"/>
        <pt x="595" y="715" on="0"/>
        <pt x="527" y="715" on="1"/>
        <pt x="431" y="715" on="0"/>
      </contour>
      <contour>
        <pt x="3470" y="891" on="1"/>
        <pt x="3312" y="1057" on="0"/>
        <pt x="3091" y="1057" on="1"/>
        <pt x="2952" y="1057" on="0"/>
        <pt x="2742" y="904" on="0"/>
        <pt x="2696" y="768" on="1"/>
        <pt x="2801" y="816" on="0"/>
        <pt x="2920" y="816" on="1"/>
        <pt x="3089" y="816" on="0"/>
        <pt x="3287" y="626" on="0"/>
        <pt x="3287" y="462" on="1"/>
        <pt x="3287" y="281" on="0"/>
        <pt x="3069" y="81" on="0"/>
        <pt x="2869" y="81" on="1"/>
        <pt x="2645" y="81" on="0"/>
        <pt x="2400" y="354" on="0"/>
        <pt x="2400" y="612" on="1"/>
        <pt x="2400" y="811" on="0"/>
        <pt x="2581" y="1115" on="0"/>
        <pt x="2906" y="1279" on="0"/>
        <pt x="3105" y="1279" on="1"/>
        <pt x="3223" y="1279" on="0"/>
        <pt x="3413" y="1227" on="0"/>
        <pt x="3513" y="1167" on="1"/>
        <pt x="3513" y="1255" on="1"/>
        <pt x="4678" y="1255" on="1"/>
        <pt x="4678" y="1038" on="1"/>
        <pt x="4382" y="1038" on="1"/>
        <pt x="4382" y="105" on="1"/>
        <pt x="4080" y="105" on="1"/>
        <pt x="4080" y="1038" on="1"/>
        <pt x="3772" y="1038" on="1"/>
        <pt x="3772" y="105" on="1"/>
        <pt x="3470" y="105" on="1"/>
      </contour>
      <contour>
        <pt x="2667" y="546" on="1"/>
        <pt x="2674" y="422" on="0"/>
        <pt x="2779" y="289" on="0"/>
        <pt x="2867" y="289" on="1"/>
        <pt x="2930" y="289" on="0"/>
        <pt x="3004" y="374" on="0"/>
        <pt x="3004" y="447" on="1"/>
        <pt x="3004" y="522" on="0"/>
        <pt x="2915" y="611" on="0"/>
        <pt x="2844" y="611" on="1"/>
        <pt x="2756" y="611" on="0"/>
      </contour>
    </TTGlyph>
    <TTGlyph name="auvowelsigntamil" xMin="112" yMin="81" xMax="4832" yMax="1847">
      <component glyphName="evowelsigntamil" x="0" y="0" flags="0x4"/>
      <component glyphName="viramatamil" x="2798" y="-780" flags="0x4"/>
      <component glyphName="llatamil" x="2459" y="0" flags="0x4"/>
    </TTGlyph>
    <TTGlyph name="backslash.tamil" xMin="35" yMin="-553" xMax="837" yMax="1847">
      <contour>
        <pt x="292" y="1743" on="1"/>
        <pt x="837" y="-395" on="1"/>
        <pt x="580" y="-395" on="1"/>
        <pt x="35" y="1743" on="1"/>
      </contour>
      <contour>
        <pt x="390" y="105" on="1"/>
      </contour>
      <contour>
        <pt x="412" y="-553" on="1"/>
      </contour>
      <contour>
        <pt x="495" y="1565" on="1"/>
      </contour>
      <contour>
        <pt x="497" y="1847" on="1"/>
      </contour>
    </TTGlyph>
    <TTGlyph name="bar.tamil" xMin="455" yMin="-553" xMax="812" yMax="1847">
      <contour>
        <pt x="455" y="1743" on="1"/>
        <pt x="674" y="1743" on="1"/>
        <pt x="674" y="-395" on="1"/>
        <pt x="455" y="-395" on="1"/>
      </contour>
      <contour>
        <pt x="790" y="105" on="1"/>
      </contour>
      <contour>
        <pt x="812" y="-553" on="1"/>
      </contour>
      <contour>
        <pt x="795" y="1565" on="1"/>
      </contour>
      <contour>
        <pt x="797" y="1847" on="1"/>
      </contour>
    </TTGlyph>
    <TTGlyph name="braceleft.tamil" xMin="50" yMin="-553" xMax="714" yMax="1847">
      <contour>
        <pt x="714" y="1518" on="1"/>
        <pt x="636" y="1516" on="0"/>
        <pt x="564" y="1435" on="0"/>
        <pt x="564" y="1347" on="1"/>
        <pt x="564" y="906" on="1"/>
        <pt x="564" y="720" on="0"/>
        <pt x="330" y="684" on="1"/>
        <pt x="330" y="672" on="1"/>
        <pt x="564" y="637" on="0"/>
        <pt x="564" y="451" on="1"/>
        <pt x="564" y="2" on="1"/>
        <pt x="564" y="-87" on="0"/>
        <pt x="637" y="-168" on="0"/>
        <pt x="714" y="-169" on="1"/>
        <pt x="714" y="-395" on="1"/>
        <pt x="574" y="-395" on="0"/>
        <pt x="389" y="-332" on="0"/>
        <pt x="296" y="-189" on="0"/>
        <pt x="296" y="-56" on="1"/>
        <pt x="296" y="379" on="1"/>
        <pt x="296" y="470" on="0"/>
        <pt x="176" y="558" on="0"/>
        <pt x="50" y="558" on="1"/>
        <pt x="50" y="797" on="1"/>
        <pt x="175" y="797" on="0"/>
        <pt x="296" y="884" on="0"/>
        <pt x="296" y="975" on="1"/>
        <pt x="296" y="1405" on="1"/>
        <pt x="296" y="1535" on="0"/>
        <pt x="386" y="1678" on="0"/>
        <pt x="571" y="1743" on="0"/>
        <pt x="714" y="1743" on="1"/>
      </contour>
      <contour>
        <pt x="190" y="105" on="1"/>
      </contour>
      <contour>
        <pt x="212" y="-553" on="1"/>
      </contour>
      <contour>
        <pt x="195" y="1565" on="1"/>
      </contour>
      <contour>
        <pt x="197" y="1847" on="1"/>
      </contour>
    </TTGlyph>
    <TTGlyph name="braceright.tamil" xMin="74" yMin="-553" xMax="738" yMax="1847">
      <contour>
        <pt x="74" y="1743" on="1"/>
        <pt x="218" y="1743" on="0"/>
        <pt x="403" y="1677" on="0"/>
        <pt x="492" y="1535" on="0"/>
        <pt x="492" y="1405" on="1"/>
        <pt x="492" y="975" on="1"/>
        <pt x="492" y="884" on="0"/>
        <pt x="613" y="797" on="0"/>
        <pt x="738" y="797" on="1"/>
        <pt x="738" y="558" on="1"/>
        <pt x="612" y="558" on="0"/>
        <pt x="492" y="470" on="0"/>
        <pt x="492" y="379" on="1"/>
        <pt x="492" y="-56" on="1"/>
        <pt x="492" y="-189" on="0"/>
        <pt x="400" y="-331" on="0"/>
        <pt x="215" y="-395" on="0"/>
        <pt x="74" y="-395" on="1"/>
        <pt x="74" y="-169" on="1"/>
        <pt x="151" y="-168" on="0"/>
        <pt x="224" y="-87" on="0"/>
        <pt x="224" y="2" on="1"/>
        <pt x="224" y="451" on="1"/>
        <pt x="224" y="637" on="0"/>
        <pt x="458" y="672" on="1"/>
        <pt x="458" y="684" on="1"/>
        <pt x="224" y="720" on="0"/>
        <pt x="224" y="906" on="1"/>
        <pt x="224" y="1347" on="1"/>
        <pt x="224" y="1435" on="0"/>
        <pt x="152" y="1516" on="0"/>
        <pt x="74" y="1518" on="1"/>
      </contour>
      <contour>
        <pt x="590" y="105" on="1"/>
      </contour>
      <contour>
        <pt x="612" y="-553" on="1"/>
      </contour>
      <contour>
        <pt x="555" y="1565" on="1"/>
      </contour>
      <contour>
        <pt x="557" y="1847" on="1"/>
      </contour>
    </TTGlyph>
    <TTGlyph name="bracketleft.tamil" xMin="140" yMin="-553" xMax="667" yMax="1847">
      <contour>
        <pt x="624" y="-395" on="1"/>
        <pt x="140" y="-395" on="1"/>
        <pt x="140" y="1743" on="1"/>
        <pt x="624" y="1743" on="1"/>
        <pt x="624" y="1532" on="1"/>
        <pt x="400" y="1532" on="1"/>
        <pt x="400" y="-184" on="1"/>
        <pt x="624" y="-184" on="1"/>
      </contour>
      <contour>
        <pt x="490" y="105" on="1"/>
      </contour>
      <contour>
        <pt x="512" y="-553" on="1"/>
      </contour>
      <contour>
        <pt x="665" y="1565" on="1"/>
      </contour>
      <contour>
        <pt x="667" y="1847" on="1"/>
      </contour>
    </TTGlyph>
    <TTGlyph name="bracketright.tamil" xMin="74" yMin="-553" xMax="607" yMax="1847">
      <contour>
        <pt x="74" y="-184" on="1"/>
        <pt x="298" y="-184" on="1"/>
        <pt x="298" y="1532" on="1"/>
        <pt x="74" y="1532" on="1"/>
        <pt x="74" y="1743" on="1"/>
        <pt x="558" y="1743" on="1"/>
        <pt x="558" y="-395" on="1"/>
        <pt x="74" y="-395" on="1"/>
      </contour>
      <contour>
        <pt x="190" y="105" on="1"/>
      </contour>
      <contour>
        <pt x="212" y="-553" on="1"/>
      </contour>
      <contour>
        <pt x="605" y="1565" on="1"/>
      </contour>
      <contour>
        <pt x="607" y="1847" on="1"/>
      </contour>
    </TTGlyph>
    <TTGlyph name="caprehalftamil" xMin="88" yMin="81" xMax="1559" yMax="1847">
      <component glyphName="catamil" x="0" y="0" flags="0x204"/>
      <component glyphName="viramatamil" x="1551" y="0" flags="0x4"/>
    </TTGlyph>
    <TTGlyph name="catamil" xMin="88" yMin="81" xMax="1559" yMax="1255">
      <contour>
        <pt x="1170" y="612" on="1"/>
        <pt x="1170" y="597" on="1"/>
        <pt x="1170" y="448" on="0"/>
        <pt x="1107" y="266" on="0"/>
        <pt x="970" y="141" on="0"/>
        <pt x="755" y="81" on="0"/>
        <pt x="602" y="81" on="1"/>
        <pt x="368" y="81" on="0"/>
        <pt x="88" y="274" on="0"/>
        <pt x="88" y="442" on="1"/>
        <pt x="88" y="545" on="0"/>
        <pt x="192" y="695" on="0"/>
        <pt x="296" y="742" on="1"/>
        <pt x="296" y="1255" on="1"/>
        <pt x="1559" y="1255" on="1"/>
        <pt x="1559" y="1038" on="1"/>
        <pt x="1170" y="1038" on="1"/>
        <pt x="1170" y="816" on="1"/>
        <pt x="1559" y="816" on="1"/>
        <pt x="1559" y="612" on="1"/>
      </contour>
      <contour>
        <pt x="566" y="807" on="1"/>
        <pt x="659" y="816" on="0"/>
        <pt x="748" y="816" on="1"/>
        <pt x="878" y="816" on="1"/>
        <pt x="878" y="1038" on="1"/>
        <pt x="566" y="1038" on="1"/>
      </contour>
      <contour>
        <pt x="878" y="612" on="1"/>
        <pt x="725" y="612" on="1"/>
        <pt x="545" y="612" on="0"/>
        <pt x="384" y="536" on="0"/>
        <pt x="384" y="445" on="1"/>
        <pt x="384" y="375" on="0"/>
        <pt x="513" y="298" on="0"/>
        <pt x="623" y="298" on="1"/>
        <pt x="762" y="298" on="0"/>
        <pt x="878" y="443" on="0"/>
        <pt x="878" y="592" on="1"/>
      </contour>
    </TTGlyph>
    <TTGlyph name="cauuvowelsigntamil" xMin="115" yMin="-553" xMax="2774" yMax="1279">
      <contour>
        <pt x="1709" y="612" on="1"/>
        <pt x="1709" y="597" on="1"/>
        <pt x="1709" y="448" on="0"/>
        <pt x="1646" y="266" on="0"/>
        <pt x="1509" y="141" on="0"/>
        <pt x="1294" y="81" on="0"/>
        <pt x="1141" y="81" on="1"/>
        <pt x="907" y="81" on="0"/>
        <pt x="627" y="274" on="0"/>
        <pt x="627" y="442" on="1"/>
        <pt x="627" y="545" on="0"/>
        <pt x="731" y="695" on="0"/>
        <pt x="835" y="742" on="1"/>
        <pt x="835" y="1255" on="1"/>
        <pt x="2098" y="1255" on="1"/>
        <pt x="2098" y="1038" on="1"/>
        <pt x="1709" y="1038" on="1"/>
        <pt x="1709" y="816" on="1"/>
        <pt x="2448" y="816" on="1"/>
        <pt x="2448" y="612" on="1"/>
        <pt x="2204" y="612" on="1"/>
        <pt x="2204" y="452" on="1"/>
        <pt x="2250" y="477" on="0"/>
        <pt x="2367" y="503" on="0"/>
        <pt x="2415" y="503" on="1"/>
        <pt x="2588" y="503" on="0"/>
        <pt x="2774" y="302" on="0"/>
        <pt x="2774" y="129" on="1"/>
        <pt x="2774" y="-204" on="0"/>
        <pt x="2128" y="-553" on="0"/>
        <pt x="1559" y="-553" on="1"/>
        <pt x="1438" y="-553" on="1"/>
        <pt x="1034" y="-553" on="0"/>
        <pt x="432" y="-326" on="0"/>
        <pt x="115" y="118" on="0"/>
        <pt x="115" y="398" on="1"/>
        <pt x="115" y="448" on="1"/>
        <pt x="115" y="856" on="0"/>
        <pt x="390" y="1279" on="1"/>
        <pt x="625" y="1137" on="1"/>
        <pt x="518" y="981" on="0"/>
        <pt x="401" y="621" on="0"/>
        <pt x="401" y="464" on="1"/>
        <pt x="401" y="438" on="1"/>
        <pt x="401" y="69" on="0"/>
        <pt x="946" y="-330" on="0"/>
        <pt x="1462" y="-330" on="1"/>
        <pt x="1542" y="-330" on="1"/>
        <pt x="1813" y="-330" on="0"/>
        <pt x="2256" y="-224" on="0"/>
        <pt x="2494" y="-19" on="0"/>
        <pt x="2494" y="127" on="1"/>
        <pt x="2494" y="206" on="0"/>
        <pt x="2416" y="293" on="0"/>
        <pt x="2346" y="293" on="1"/>
        <pt x="2273" y="293" on="0"/>
        <pt x="2204" y="246" on="1"/>
        <pt x="2204" y="105" on="1"/>
        <pt x="1918" y="105" on="1"/>
        <pt x="1918" y="612" on="1"/>
      </contour>
      <contour>
        <pt x="1105" y="807" on="1"/>
        <pt x="1198" y="816" on="0"/>
        <pt x="1287" y="816" on="1"/>
        <pt x="1417" y="816" on="1"/>
        <pt x="1417" y="1038" on="1"/>
        <pt x="1105" y="1038" on="1"/>
      </contour>
      <contour>
        <pt x="1417" y="612" on="1"/>
        <pt x="1264" y="612" on="1"/>
        <pt x="1084" y="612" on="0"/>
        <pt x="923" y="536" on="0"/>
        <pt x="923" y="445" on="1"/>
        <pt x="923" y="375" on="0"/>
        <pt x="1052" y="298" on="0"/>
        <pt x="1162" y="298" on="1"/>
        <pt x="1301" y="298" on="0"/>
        <pt x="1417" y="443" on="0"/>
        <pt x="1417" y="592" on="1"/>
      </contour>
    </TTGlyph>
    <TTGlyph name="cauvowelsigntamil" xMin="88" yMin="81" xMax="1909" yMax="1255">
      <contour>
        <pt x="1170" y="612" on="1"/>
        <pt x="1170" y="597" on="1"/>
        <pt x="1170" y="448" on="0"/>
        <pt x="1107" y="266" on="0"/>
        <pt x="970" y="141" on="0"/>
        <pt x="755" y="81" on="0"/>
        <pt x="602" y="81" on="1"/>
        <pt x="368" y="81" on="0"/>
        <pt x="88" y="274" on="0"/>
        <pt x="88" y="442" on="1"/>
        <pt x="88" y="545" on="0"/>
        <pt x="192" y="695" on="0"/>
        <pt x="296" y="742" on="1"/>
        <pt x="296" y="1255" on="1"/>
        <pt x="1559" y="1255" on="1"/>
        <pt x="1559" y="1038" on="1"/>
        <pt x="1170" y="1038" on="1"/>
        <pt x="1170" y="816" on="1"/>
        <pt x="1909" y="816" on="1"/>
        <pt x="1909" y="612" on="1"/>
        <pt x="1674" y="612" on="1"/>
        <pt x="1674" y="105" on="1"/>
        <pt x="1379" y="105" on="1"/>
        <pt x="1379" y="612" on="1"/>
      </contour>
      <contour>
        <pt x="566" y="807" on="1"/>
        <pt x="659" y="816" on="0"/>
        <pt x="748" y="816" on="1"/>
        <pt x="878" y="816" on="1"/>
        <pt x="878" y="1038" on="1"/>
        <pt x="566" y="1038" on="1"/>
      </contour>
      <contour>
        <pt x="878" y="612" on="1"/>
        <pt x="725" y="612" on="1"/>
        <pt x="545" y="612" on="0"/>
        <pt x="384" y="536" on="0"/>
        <pt x="384" y="445" on="1"/>
        <pt x="384" y="375" on="0"/>
        <pt x="513" y="298" on="0"/>
        <pt x="623" y="298" on="1"/>
        <pt x="762" y="298" on="0"/>
        <pt x="878" y="443" on="0"/>
        <pt x="878" y="592" on="1"/>
      </contour>
    </TTGlyph>
    <TTGlyph name="colon.tamil" xMin="117" yMin="78" xMax="467" yMax="1255">
      <contour>
        <pt x="293" y="1244" on="1"/>
        <pt x="375" y="1244" on="0"/>
        <pt x="467" y="1157" on="0"/>
        <pt x="467" y="1074" on="1"/>
        <pt x="467" y="992" on="0"/>
        <pt x="374" y="904" on="0"/>
        <pt x="293" y="904" on="1"/>
        <pt x="210" y="904" on="0"/>
        <pt x="117" y="992" on="0"/>
        <pt x="117" y="1074" on="1"/>
        <pt x="117" y="1157" on="0"/>
        <pt x="208" y="1244" on="0"/>
      </contour>
      <contour>
        <pt x="293" y="418" on="1"/>
        <pt x="375" y="418" on="0"/>
        <pt x="467" y="331" on="0"/>
        <pt x="467" y="248" on="1"/>
        <pt x="467" y="166" on="0"/>
        <pt x="372" y="78" on="0"/>
        <pt x="293" y="78" on="1"/>
        <pt x="211" y="78" on="0"/>
        <pt x="117" y="166" on="0"/>
        <pt x="117" y="248" on="1"/>
        <pt x="117" y="331" on="0"/>
        <pt x="208" y="418" on="0"/>
      </contour>
      <contour>
        <pt x="296" y="1255" on="1"/>
      </contour>
    </TTGlyph>
    <TTGlyph name="comma.tamil" xMin="63" yMin="-159" xMax="459" yMax="343">
      <contour>
        <pt x="459" y="320" on="1"/>
        <pt x="407" y="119" on="0"/>
        <pt x="283" y="-159" on="1"/>
        <pt x="63" y="-159" on="1"/>
        <pt x="131" y="127" on="0"/>
        <pt x="164" y="343" on="1"/>
        <pt x="444" y="343" on="1"/>
      </contour>
      <contour>
        <pt x="90" y="105" on="1"/>
      </contour>
    </TTGlyph>
    <TTGlyph name="creditsigntamil" xMin="95" yMin="81" xMax="2980" yMax="1255">
      <contour>
        <pt x="1763" y="1038" on="1"/>
        <pt x="1467" y="1038" on="1"/>
        <pt x="1467" y="582" on="1"/>
        <pt x="1638" y="582" on="1"/>
        <pt x="1696" y="710" on="0"/>
        <pt x="1936" y="848" on="0"/>
        <pt x="2098" y="848" on="1"/>
        <pt x="2309" y="848" on="0"/>
        <pt x="2543" y="649" on="0"/>
        <pt x="2543" y="474" on="1"/>
        <pt x="2543" y="376" on="0"/>
        <pt x="2508" y="288" on="1"/>
        <pt x="2763" y="288" on="1"/>
        <pt x="2763" y="837" on="1"/>
        <pt x="2980" y="837" on="1"/>
        <pt x="2980" y="105" on="1"/>
        <pt x="2254" y="105" on="1"/>
        <pt x="2254" y="213" on="1"/>
        <pt x="2316" y="314" on="0"/>
        <pt x="2316" y="428" on="1"/>
        <pt x="2316" y="544" on="0"/>
        <pt x="2193" y="663" on="0"/>
        <pt x="2073" y="663" on="1"/>
        <pt x="1949" y="663" on="0"/>
        <pt x="1869" y="582" on="1"/>
        <pt x="2025" y="581" on="0"/>
        <pt x="2167" y="449" on="0"/>
        <pt x="2167" y="340" on="1"/>
        <pt x="2167" y="223" on="0"/>
        <pt x="2025" y="97" on="0"/>
        <pt x="1902" y="97" on="1"/>
        <pt x="1762" y="97" on="0"/>
        <pt x="1600" y="258" on="0"/>
        <pt x="1600" y="400" on="1"/>
        <pt x="1600" y="409" on="1"/>
        <pt x="1467" y="409" on="1"/>
        <pt x="1467" y="105" on="1"/>
        <pt x="1165" y="105" on="1"/>
        <pt x="1165" y="1038" on="1"/>
        <pt x="903" y="1038" on="1"/>
        <pt x="726" y="1038" on="0"/>
        <pt x="539" y="971" on="0"/>
        <pt x="420" y="854" on="0"/>
        <pt x="390" y="767" on="1"/>
        <pt x="497" y="816" on="0"/>
        <pt x="615" y="816" on="1"/>
        <pt x="784" y="816" on="0"/>
        <pt x="982" y="626" on="0"/>
        <pt x="982" y="462" on="1"/>
        <pt x="982" y="281" on="0"/>
        <pt x="764" y="81" on="0"/>
        <pt x="564" y="81" on="1"/>
        <pt x="343" y="81" on="0"/>
        <pt x="95" y="346" on="0"/>
        <pt x="95" y="587" on="1"/>
        <pt x="95" y="777" on="0"/>
        <pt x="232" y="1045" on="0"/>
        <pt x="475" y="1199" on="0"/>
        <pt x="750" y="1255" on="0"/>
        <pt x="986" y="1255" on="1"/>
        <pt x="1763" y="1255" on="1"/>
      </contour>
      <contour>
        <pt x="361" y="545" on="1"/>
        <pt x="366" y="422" on="0"/>
        <pt x="473" y="289" on="0"/>
        <pt x="562" y="289" on="1"/>
        <pt x="625" y="289" on="0"/>
        <pt x="699" y="374" on="0"/>
        <pt x="699" y="447" on="1"/>
        <pt x="699" y="522" on="0"/>
        <pt x="610" y="611" on="0"/>
        <pt x="539" y="611" on="1"/>
        <pt x="450" y="611" on="0"/>
      </contour>
      <contour>
        <pt x="1802" y="409" on="1"/>
        <pt x="1802" y="378" on="1"/>
        <pt x="1802" y="322" on="0"/>
        <pt x="1855" y="262" on="0"/>
        <pt x="1904" y="262" on="1"/>
        <pt x="1937" y="262" on="0"/>
        <pt x="1982" y="298" on="0"/>
        <pt x="1982" y="330" on="1"/>
        <pt x="1982" y="363" on="0"/>
        <pt x="1926" y="409" on="0"/>
        <pt x="1845" y="409" on="1"/>
      </contour>
    </TTGlyph>
    <TTGlyph name="dandatamil" xMin="328" yMin="5" xMax="666" yMax="1339">
      <contour>
        <pt x="328" y="5" on="1"/>
        <pt x="328" y="1339" on="1"/>
        <pt x="630" y="1339" on="1"/>
        <pt x="630" y="5" on="1"/>
      </contour>
      <contour>
        <pt x="660" y="105" on="1"/>
      </contour>
      <contour>
        <pt x="666" y="1255" on="1"/>
      </contour>
    </TTGlyph>
    <TTGlyph name="daysigntamil" xMin="95" yMin="81" xMax="2205" yMax="1279">
      <contour>
        <pt x="390" y="767" on="1"/>
        <pt x="497" y="816" on="0"/>
        <pt x="615" y="816" on="1"/>
        <pt x="784" y="816" on="0"/>
        <pt x="982" y="626" on="0"/>
        <pt x="982" y="462" on="1"/>
        <pt x="982" y="281" on="0"/>
        <pt x="764" y="81" on="0"/>
        <pt x="564" y="81" on="1"/>
        <pt x="340" y="81" on="0"/>
        <pt x="95" y="354" on="0"/>
        <pt x="95" y="612" on="1"/>
        <pt x="95" y="808" on="0"/>
        <pt x="282" y="1112" on="0"/>
        <pt x="623" y="1279" on="0"/>
        <pt x="831" y="1279" on="1"/>
        <pt x="1162" y="1279" on="0"/>
        <pt x="1511" y="966" on="0"/>
        <pt x="1511" y="686" on="1"/>
        <pt x="1511" y="510" on="0"/>
        <pt x="1435" y="322" on="1"/>
        <pt x="2205" y="322" on="1"/>
        <pt x="2205" y="105" on="1"/>
        <pt x="1124" y="105" on="1"/>
        <pt x="1117" y="271" on="1"/>
        <pt x="1209" y="445" on="0"/>
        <pt x="1209" y="652" on="1"/>
        <pt x="1209" y="845" on="0"/>
        <pt x="1000" y="1057" on="0"/>
        <pt x="809" y="1057" on="1"/>
        <pt x="655" y="1057" on="0"/>
        <pt x="436" y="905" on="0"/>
      </contour>
      <contour>
        <pt x="362" y="546" on="1"/>
        <pt x="369" y="422" on="0"/>
        <pt x="474" y="289" on="0"/>
        <pt x="562" y="289" on="1"/>
        <pt x="625" y="289" on="0"/>
        <pt x="699" y="374" on="0"/>
        <pt x="699" y="447" on="1"/>
        <pt x="699" y="522" on="0"/>
        <pt x="610" y="611" on="0"/>
        <pt x="539" y="611" on="1"/>
        <pt x="451" y="611" on="0"/>
      </contour>
      <contour>
        <pt x="1464" y="1255" on="1"/>
      </contour>
    </TTGlyph>
    <TTGlyph name="dbldandatamil" xMin="328" yMin="5" xMax="1230" yMax="1339">
      <contour>
        <pt x="328" y="5" on="1"/>
        <pt x="328" y="1339" on="1"/>
        <pt x="630" y="1339" on="1"/>
        <pt x="630" y="5" on="1"/>
      </contour>
      <contour>
        <pt x="928" y="5" on="1"/>
        <pt x="928" y="1339" on="1"/>
        <pt x="1230" y="1339" on="1"/>
        <pt x="1230" y="5" on="1"/>
      </contour>
      <contour>
        <pt x="790" y="105" on="1"/>
      </contour>
      <contour>
        <pt x="796" y="1255" on="1"/>
      </contour>
    </TTGlyph>
    <TTGlyph name="debitsigntamil" xMin="67" yMin="-553" xMax="1810" yMax="1255">
      <contour>
        <pt x="1232" y="137" on="1"/>
        <pt x="1232" y="53" on="0"/>
        <pt x="1220" y="-22" on="1"/>
        <pt x="1508" y="-22" on="1"/>
        <pt x="1508" y="793" on="1"/>
        <pt x="1810" y="793" on="1"/>
        <pt x="1810" y="-239" on="1"/>
        <pt x="1159" y="-239" on="1"/>
        <pt x="1079" y="-392" on="0"/>
        <pt x="754" y="-553" on="0"/>
        <pt x="530" y="-553" on="1"/>
        <pt x="411" y="-553" on="0"/>
        <pt x="190" y="-468" on="0"/>
        <pt x="67" y="-315" on="0"/>
        <pt x="67" y="-217" on="1"/>
        <pt x="67" y="-144" on="0"/>
        <pt x="138" y="-57" on="0"/>
        <pt x="253" y="-22" on="0"/>
        <pt x="391" y="-22" on="1"/>
        <pt x="923" y="-22" on="1"/>
        <pt x="930" y="36" on="0"/>
        <pt x="930" y="121" on="1"/>
        <pt x="930" y="161" on="1"/>
        <pt x="826" y="81" on="0"/>
        <pt x="696" y="81" on="1"/>
        <pt x="557" y="81" on="0"/>
        <pt x="404" y="192" on="0"/>
        <pt x="336" y="372" on="0"/>
        <pt x="336" y="519" on="1"/>
        <pt x="336" y="1255" on="1"/>
        <pt x="638" y="1255" on="1"/>
        <pt x="638" y="556" on="1"/>
        <pt x="638" y="455" on="0"/>
        <pt x="659" y="357" on="0"/>
        <pt x="726" y="298" on="0"/>
        <pt x="786" y="298" on="1"/>
        <pt x="867" y="298" on="0"/>
        <pt x="930" y="372" on="1"/>
        <pt x="930" y="1255" on="1"/>
        <pt x="1232" y="1255" on="1"/>
      </contour>
      <contour>
        <pt x="864" y="-221" on="1"/>
        <pt x="419" y="-221" on="1"/>
        <pt x="372" y="-221" on="0"/>
        <pt x="340" y="-237" on="0"/>
        <pt x="340" y="-255" on="1"/>
        <pt x="340" y="-295" on="0"/>
        <pt x="447" y="-350" on="0"/>
        <pt x="527" y="-350" on="1"/>
        <pt x="647" y="-350" on="0"/>
        <pt x="816" y="-285" on="0"/>
      </contour>
    </TTGlyph>
    <TTGlyph name="divide.tamil" xMin="88" yMin="105" xMax="1081" yMax="1565">
      <contour>
        <pt x="584" y="1328" on="1"/>
        <pt x="650" y="1328" on="0"/>
        <pt x="723" y="1249" on="0"/>
        <pt x="723" y="1176" on="1"/>
        <pt x="723" y="1104" on="0"/>
        <pt x="646" y="1025" on="0"/>
        <pt x="584" y="1025" on="1"/>
        <pt x="520" y="1025" on="0"/>
        <pt x="444" y="1104" on="0"/>
        <pt x="444" y="1176" on="1"/>
        <pt x="444" y="1250" on="0"/>
        <pt x="516" y="1328" on="0"/>
      </contour>
      <contour>
        <pt x="88" y="717" on="1"/>
        <pt x="88" y="936" on="1"/>
        <pt x="1081" y="936" on="1"/>
        <pt x="1081" y="717" on="1"/>
      </contour>
      <contour>
        <pt x="584" y="629" on="1"/>
        <pt x="650" y="629" on="0"/>
        <pt x="723" y="551" on="0"/>
        <pt x="723" y="478" on="1"/>
        <pt x="723" y="406" on="0"/>
        <pt x="646" y="326" on="0"/>
        <pt x="584" y="326" on="1"/>
        <pt x="519" y="326" on="0"/>
        <pt x="444" y="406" on="0"/>
        <pt x="444" y="478" on="1"/>
        <pt x="444" y="551" on="0"/>
        <pt x="516" y="629" on="0"/>
      </contour>
      <contour>
        <pt x="597" y="105" on="1"/>
      </contour>
      <contour>
        <pt x="555" y="1565" on="1"/>
      </contour>
    </TTGlyph>
    <TTGlyph name="eetamil" xMin="95" yMin="-553" xMax="1763" yMax="1255">
      <contour>
        <pt x="1165" y="172" on="1"/>
        <pt x="1165" y="1038" on="1"/>
        <pt x="903" y="1038" on="1"/>
        <pt x="726" y="1038" on="0"/>
        <pt x="539" y="971" on="0"/>
        <pt x="420" y="854" on="0"/>
        <pt x="390" y="767" on="1"/>
        <pt x="497" y="816" on="0"/>
        <pt x="615" y="816" on="1"/>
        <pt x="784" y="816" on="0"/>
        <pt x="982" y="626" on="0"/>
        <pt x="982" y="462" on="1"/>
        <pt x="982" y="281" on="0"/>
        <pt x="764" y="81" on="0"/>
        <pt x="564" y="81" on="1"/>
        <pt x="343" y="81" on="0"/>
        <pt x="95" y="346" on="0"/>
        <pt x="95" y="587" on="1"/>
        <pt x="95" y="777" on="0"/>
        <pt x="232" y="1045" on="0"/>
        <pt x="475" y="1199" on="0"/>
        <pt x="750" y="1255" on="0"/>
        <pt x="986" y="1255" on="1"/>
        <pt x="1763" y="1255" on="1"/>
        <pt x="1763" y="1038" on="1"/>
        <pt x="1467" y="1038" on="1"/>
        <pt x="1467" y="105" on="1"/>
        <pt x="1010" y="-331" on="1"/>
        <pt x="820" y="-154" on="1"/>
      </contour>
      <contour>
        <pt x="361" y="545" on="1"/>
        <pt x="366" y="422" on="0"/>
        <pt x="473" y="289" on="0"/>
        <pt x="562" y="289" on="1"/>
        <pt x="625" y="289" on="0"/>
        <pt x="699" y="374" on="0"/>
        <pt x="699" y="447" on="1"/>
        <pt x="699" y="522" on="0"/>
        <pt x="610" y="611" on="0"/>
        <pt x="539" y="611" on="1"/>
        <pt x="450" y="611" on="0"/>
      </contour>
      <contour>
        <pt x="986" y="-553" on="1"/>
      </contour>
    </TTGlyph>
    <TTGlyph name="eevowelsigntamil" xMin="112" yMin="81" xMax="1565" yMax="1847">
      <contour>
        <pt x="748" y="346" on="1"/>
        <pt x="723" y="408" on="0"/>
        <pt x="723" y="504" on="1"/>
        <pt x="723" y="669" on="0"/>
        <pt x="938" y="875" on="0"/>
        <pt x="1124" y="875" on="1"/>
        <pt x="1319" y="875" on="0"/>
        <pt x="1540" y="658" on="0"/>
        <pt x="1540" y="480" on="1"/>
        <pt x="1540" y="294" on="0"/>
        <pt x="1253" y="81" on="0"/>
        <pt x="1002" y="81" on="1"/>
        <pt x="740" y="81" on="0"/>
        <pt x="332" y="295" on="0"/>
        <pt x="112" y="695" on="0"/>
        <pt x="112" y="965" on="1"/>
        <pt x="112" y="1225" on="0"/>
        <pt x="354" y="1626" on="0"/>
        <pt x="794" y="1847" on="0"/>
        <pt x="1062" y="1847" on="1"/>
        <pt x="1303" y="1847" on="0"/>
        <pt x="1565" y="1644" on="0"/>
        <pt x="1565" y="1458" on="1"/>
        <pt x="1565" y="1289" on="0"/>
        <pt x="1340" y="1074" on="0"/>
        <pt x="1149" y="1074" on="1"/>
        <pt x="964" y="1074" on="0"/>
        <pt x="748" y="1271" on="0"/>
        <pt x="748" y="1432" on="1"/>
        <pt x="748" y="1521" on="0"/>
        <pt x="776" y="1586" on="1"/>
        <pt x="598" y="1513" on="0"/>
        <pt x="398" y="1183" on="0"/>
        <pt x="398" y="957" on="1"/>
        <pt x="398" y="738" on="0"/>
        <pt x="580" y="421" on="0"/>
      </contour>
      <contour>
        <pt x="1052" y="1638" on="1"/>
        <pt x="999" y="1552" on="0"/>
        <pt x="999" y="1450" on="1"/>
        <pt x="999" y="1370" on="0"/>
        <pt x="1075" y="1282" on="0"/>
        <pt x="1142" y="1282" on="1"/>
        <pt x="1208" y="1282" on="0"/>
        <pt x="1282" y="1370" on="0"/>
        <pt x="1282" y="1450" on="1"/>
        <pt x="1282" y="1538" on="0"/>
        <pt x="1179" y="1639" on="0"/>
        <pt x="1080" y="1639" on="1"/>
        <pt x="1066" y="1639" on="1"/>
        <pt x="1060" y="1639" on="0"/>
      </contour>
      <contour>
        <pt x="1036" y="289" on="1"/>
        <pt x="1146" y="289" on="0"/>
        <pt x="1257" y="385" on="0"/>
        <pt x="1257" y="489" on="1"/>
        <pt x="1257" y="571" on="0"/>
        <pt x="1183" y="667" on="0"/>
        <pt x="1117" y="667" on="1"/>
        <pt x="1054" y="667" on="0"/>
        <pt x="974" y="571" on="0"/>
        <pt x="974" y="490" on="1"/>
        <pt x="974" y="380" on="0"/>
        <pt x="1029" y="289" on="1"/>
      </contour>
    </TTGlyph>
    <TTGlyph name="eight.tamil" xMin="72" yMin="85" xMax="1098" yMax="1586">
      <contour>
        <pt x="791" y="877" on="1"/>
        <pt x="950" y="793" on="0"/>
        <pt x="1098" y="600" on="0"/>
        <pt x="1098" y="484" on="1"/>
        <pt x="1098" y="305" on="0"/>
        <pt x="817" y="85" on="0"/>
        <pt x="586" y="85" on="1"/>
        <pt x="341" y="85" on="0"/>
        <pt x="72" y="293" on="0"/>
        <pt x="72" y="476" on="1"/>
        <pt x="72" y="604" on="0"/>
        <pt x="212" y="800" on="0"/>
        <pt x="352" y="869" on="1"/>
        <pt x="231" y="944" on="0"/>
        <pt x="117" y="1124" on="0"/>
        <pt x="117" y="1235" on="1"/>
        <pt x="117" y="1342" on="0"/>
        <pt x="239" y="1502" on="0"/>
        <pt x="457" y="1586" on="0"/>
        <pt x="586" y="1586" on="1"/>
        <pt x="793" y="1586" on="0"/>
        <pt x="1053" y="1396" on="0"/>
        <pt x="1053" y="1233" on="1"/>
        <pt x="1053" y="1119" on="0"/>
        <pt x="922" y="941" on="0"/>
      </contour>
      <contour>
        <pt x="586" y="1006" on="1"/>
        <pt x="681" y="1050" on="0"/>
        <pt x="762" y="1147" on="0"/>
        <pt x="762" y="1211" on="1"/>
        <pt x="762" y="1278" on="0"/>
        <pt x="664" y="1360" on="0"/>
        <pt x="584" y="1360" on="1"/>
        <pt x="505" y="1360" on="0"/>
        <pt x="408" y="1278" on="0"/>
        <pt x="408" y="1211" on="1"/>
        <pt x="408" y="1149" on="0"/>
        <pt x="493" y="1051" on="0"/>
      </contour>
      <contour>
        <pt x="571" y="742" on="1"/>
        <pt x="464" y="693" on="0"/>
        <pt x="358" y="569" on="0"/>
        <pt x="358" y="494" on="1"/>
        <pt x="358" y="411" on="0"/>
        <pt x="476" y="312" on="0"/>
        <pt x="582" y="312" on="1"/>
        <pt x="692" y="312" on="0"/>
        <pt x="811" y="407" on="0"/>
        <pt x="811" y="492" on="1"/>
        <pt x="811" y="554" on="0"/>
        <pt x="717" y="666" on="0"/>
        <pt x="598" y="728" on="1"/>
      </contour>
    </TTGlyph>
    <TTGlyph name="eighttamil" xMin="52" yMin="-553" xMax="2334" yMax="1279">
      <contour>
        <pt x="2334" y="-210" on="1"/>
        <pt x="2032" y="-210" on="1"/>
        <pt x="2032" y="283" on="1"/>
        <pt x="1751" y="283" on="1"/>
        <pt x="1633" y="61" on="0"/>
        <pt x="1109" y="-183" on="0"/>
        <pt x="757" y="-183" on="1"/>
        <pt x="720" y="-183" on="1"/>
        <pt x="407" y="-183" on="0"/>
        <pt x="52" y="45" on="0"/>
        <pt x="52" y="235" on="1"/>
        <pt x="52" y="308" on="0"/>
        <pt x="122" y="429" on="0"/>
        <pt x="283" y="499" on="0"/>
        <pt x="464" y="499" on="1"/>
        <pt x="742" y="499" on="1"/>
        <pt x="601" y="660" on="0"/>
        <pt x="601" y="847" on="1"/>
        <pt x="601" y="1047" on="0"/>
        <pt x="885" y="1279" on="0"/>
        <pt x="1134" y="1279" on="1"/>
        <pt x="1344" y="1279" on="0"/>
        <pt x="1648" y="1108" on="0"/>
        <pt x="1807" y="798" on="0"/>
        <pt x="1807" y="611" on="1"/>
        <pt x="1807" y="550" on="0"/>
        <pt x="1801" y="499" on="1"/>
        <pt x="2032" y="499" on="1"/>
        <pt x="2032" y="1255" on="1"/>
        <pt x="2334" y="1255" on="1"/>
      </contour>
      <contour>
        <pt x="1093" y="499" on="1"/>
        <pt x="1516" y="499" on="1"/>
        <pt x="1521" y="527" on="0"/>
        <pt x="1521" y="606" on="1"/>
        <pt x="1521" y="805" on="0"/>
        <pt x="1307" y="1057" on="0"/>
        <pt x="1131" y="1057" on="1"/>
        <pt x="1013" y="1057" on="0"/>
        <pt x="886" y="943" on="0"/>
        <pt x="886" y="835" on="1"/>
        <pt x="886" y="746" on="0"/>
        <pt x="997" y="567" on="0"/>
      </contour>
      <contour>
        <pt x="781" y="34" on="1"/>
        <pt x="1016" y="34" on="0"/>
        <pt x="1345" y="158" on="0"/>
        <pt x="1438" y="283" on="1"/>
        <pt x="542" y="283" on="1"/>
        <pt x="445" y="283" on="0"/>
        <pt x="379" y="271" on="0"/>
        <pt x="343" y="236" on="0"/>
        <pt x="343" y="206" on="1"/>
        <pt x="343" y="123" on="0"/>
        <pt x="555" y="34" on="0"/>
        <pt x="757" y="34" on="1"/>
      </contour>
      <contour>
        <pt x="486" y="-553" on="1"/>
      </contour>
    </TTGlyph>
    <TTGlyph name="ellipsis.tamil" xMin="117" yMin="78" xMax="1634" yMax="418">
      <contour>
        <pt x="293" y="418" on="1"/>
        <pt x="375" y="418" on="0"/>
        <pt x="467" y="331" on="0"/>
        <pt x="467" y="248" on="1"/>
        <pt x="467" y="166" on="0"/>
        <pt x="372" y="78" on="0"/>
        <pt x="293" y="78" on="1"/>
        <pt x="211" y="78" on="0"/>
        <pt x="117" y="166" on="0"/>
        <pt x="117" y="248" on="1"/>
        <pt x="117" y="331" on="0"/>
        <pt x="208" y="418" on="0"/>
      </contour>
      <contour>
        <pt x="877" y="418" on="1"/>
        <pt x="959" y="418" on="0"/>
        <pt x="1051" y="331" on="0"/>
        <pt x="1051" y="248" on="1"/>
        <pt x="1051" y="166" on="0"/>
        <pt x="956" y="78" on="0"/>
        <pt x="877" y="78" on="1"/>
        <pt x="795" y="78" on="0"/>
        <pt x="700" y="166" on="0"/>
        <pt x="700" y="248" on="1"/>
        <pt x="700" y="331" on="0"/>
        <pt x="792" y="418" on="0"/>
      </contour>
      <contour>
        <pt x="1460" y="418" on="1"/>
        <pt x="1542" y="418" on="0"/>
        <pt x="1634" y="331" on="0"/>
        <pt x="1634" y="248" on="1"/>
        <pt x="1634" y="166" on="0"/>
        <pt x="1539" y="78" on="0"/>
        <pt x="1460" y="78" on="1"/>
        <pt x="1378" y="78" on="0"/>
        <pt x="1284" y="166" on="0"/>
        <pt x="1284" y="248" on="1"/>
        <pt x="1284" y="331" on="0"/>
        <pt x="1375" y="418" on="0"/>
      </contour>
    </TTGlyph>
    <TTGlyph name="emdash.tamil" xMin="82" yMin="105" xMax="1966" yMax="1255">
      <contour>
        <pt x="82" y="529" on="1"/>
        <pt x="82" y="779" on="1"/>
        <pt x="1966" y="779" on="1"/>
        <pt x="1966" y="529" on="1"/>
      </contour>
      <contour>
        <pt x="290" y="105" on="1"/>
      </contour>
      <contour>
        <pt x="296" y="1255" on="1"/>
      </contour>
    </TTGlyph>
    <TTGlyph name="endash.tamil" xMin="82" yMin="105" xMax="942" yMax="1255">
      <contour>
        <pt x="82" y="529" on="1"/>
        <pt x="82" y="779" on="1"/>
        <pt x="942" y="779" on="1"/>
        <pt x="942" y="529" on="1"/>
      </contour>
      <contour>
        <pt x="290" y="105" on="1"/>
      </contour>
      <contour>
        <pt x="296" y="1255" on="1"/>
      </contour>
    </TTGlyph>
    <TTGlyph name="equal.tamil" xMin="88" yMin="105" xMax="1081" yMax="1565">
      <contour>
        <pt x="88" y="912" on="1"/>
        <pt x="88" y="1129" on="1"/>
        <pt x="1081" y="1129" on="1"/>
        <pt x="1081" y="912" on="1"/>
      </contour>
      <contour>
        <pt x="88" y="523" on="1"/>
        <pt x="88" y="742" on="1"/>
        <pt x="1081" y="742" on="1"/>
        <pt x="1081" y="523" on="1"/>
      </contour>
      <contour>
        <pt x="597" y="105" on="1"/>
      </contour>
      <contour>
        <pt x="555" y="1565" on="1"/>
      </contour>
    </TTGlyph>
    <TTGlyph name="etamil" xMin="95" yMin="81" xMax="1763" yMax="1255">
      <contour>
        <pt x="1165" y="105" on="1"/>
        <pt x="1165" y="1038" on="1"/>
        <pt x="903" y="1038" on="1"/>
        <pt x="726" y="1038" on="0"/>
        <pt x="539" y="971" on="0"/>
        <pt x="420" y="854" on="0"/>
        <pt x="390" y="767" on="1"/>
        <pt x="497" y="816" on="0"/>
        <pt x="615" y="816" on="1"/>
        <pt x="784" y="816" on="0"/>
        <pt x="982" y="626" on="0"/>
        <pt x="982" y="462" on="1"/>
        <pt x="982" y="281" on="0"/>
        <pt x="764" y="81" on="0"/>
        <pt x="564" y="81" on="1"/>
        <pt x="343" y="81" on="0"/>
        <pt x="95" y="346" on="0"/>
        <pt x="95" y="587" on="1"/>
        <pt x="95" y="777" on="0"/>
        <pt x="232" y="1045" on="0"/>
        <pt x="475" y="1199" on="0"/>
        <pt x="750" y="1255" on="0"/>
        <pt x="986" y="1255" on="1"/>
        <pt x="1763" y="1255" on="1"/>
        <pt x="1763" y="1038" on="1"/>
        <pt x="1467" y="1038" on="1"/>
        <pt x="1467" y="105" on="1"/>
      </contour>
      <contour>
        <pt x="361" y="545" on="1"/>
        <pt x="366" y="422" on="0"/>
        <pt x="473" y="289" on="0"/>
        <pt x="562" y="289" on="1"/>
        <pt x="625" y="289" on="0"/>
        <pt x="699" y="374" on="0"/>
        <pt x="699" y="447" on="1"/>
        <pt x="699" y="522" on="0"/>
        <pt x="610" y="611" on="0"/>
        <pt x="539" y="611" on="1"/>
        <pt x="450" y="611" on="0"/>
      </contour>
    </TTGlyph>
    <TTGlyph name="evowelsigntamil" xMin="112" yMin="81" xMax="1856" yMax="1847">
      <contour>
        <pt x="538" y="395" on="1"/>
        <pt x="523" y="449" on="0"/>
        <pt x="523" y="504" on="1"/>
        <pt x="523" y="668" on="0"/>
        <pt x="746" y="875" on="0"/>
        <pt x="934" y="875" on="1"/>
        <pt x="1132" y="875" on="0"/>
        <pt x="1360" y="659" on="0"/>
        <pt x="1360" y="480" on="1"/>
        <pt x="1360" y="289" on="0"/>
        <pt x="1090" y="81" on="0"/>
        <pt x="841" y="81" on="1"/>
        <pt x="621" y="81" on="0"/>
        <pt x="292" y="273" on="0"/>
        <pt x="112" y="639" on="0"/>
        <pt x="112" y="884" on="1"/>
        <pt x="112" y="1166" on="0"/>
        <pt x="360" y="1604" on="0"/>
        <pt x="811" y="1847" on="0"/>
        <pt x="1085" y="1847" on="1"/>
        <pt x="1311" y="1847" on="0"/>
        <pt x="1585" y="1735" on="0"/>
        <pt x="1768" y="1551" on="0"/>
        <pt x="1856" y="1247" on="0"/>
        <pt x="1856" y="1011" on="1"/>
        <pt x="1856" y="105" on="1"/>
        <pt x="1554" y="105" on="1"/>
        <pt x="1554" y="908" on="1"/>
        <pt x="1554" y="1138" on="0"/>
        <pt x="1493" y="1401" on="0"/>
        <pt x="1378" y="1549" on="0"/>
        <pt x="1209" y="1624" on="0"/>
        <pt x="1068" y="1624" on="1"/>
        <pt x="895" y="1624" on="0"/>
        <pt x="579" y="1447" on="0"/>
        <pt x="398" y="1109" on="0"/>
        <pt x="398" y="881" on="1"/>
        <pt x="398" y="722" on="0"/>
        <pt x="471" y="474" on="0"/>
      </contour>
      <contour>
        <pt x="828" y="290" on="1"/>
        <pt x="852" y="289" on="1"/>
        <pt x="967" y="284" on="0"/>
        <pt x="1077" y="392" on="0"/>
        <pt x="1077" y="488" on="1"/>
        <pt x="1077" y="564" on="0"/>
        <pt x="998" y="667" on="0"/>
        <pt x="927" y="667" on="1"/>
        <pt x="860" y="667" on="0"/>
        <pt x="774" y="571" on="0"/>
        <pt x="774" y="490" on="1"/>
        <pt x="774" y="380" on="0"/>
      </contour>
    </TTGlyph>
    <TTGlyph name="exclam.tamil" xMin="138" yMin="78" xMax="488" yMax="1567">
      <contour>
        <pt x="437" y="590" on="1"/>
        <pt x="193" y="590" on="1"/>
        <pt x="142" y="1567" on="1"/>
        <pt x="488" y="1567" on="1"/>
      </contour>
      <contour>
        <pt x="314" y="418" on="1"/>
        <pt x="396" y="418" on="0"/>
        <pt x="488" y="331" on="0"/>
        <pt x="488" y="248" on="1"/>
        <pt x="488" y="166" on="0"/>
        <pt x="393" y="78" on="0"/>
        <pt x="314" y="78" on="1"/>
        <pt x="232" y="78" on="0"/>
        <pt x="138" y="166" on="0"/>
        <pt x="138" y="248" on="1"/>
        <pt x="138" y="331" on="0"/>
        <pt x="229" y="418" on="0"/>
      </contour>
    </TTGlyph>
    <TTGlyph name="five.tamil" xMin="100" yMin="85" xMax="1077" yMax="1567">
      <contour>
        <pt x="100" y="164" on="1"/>
        <pt x="100" y="431" on="1"/>
        <pt x="178" y="389" on="0"/>
        <pt x="392" y="336" on="0"/>
        <pt x="483" y="336" on="1"/>
        <pt x="766" y="336" on="0"/>
        <pt x="766" y="568" on="1"/>
        <pt x="766" y="789" on="0"/>
        <pt x="473" y="789" on="1"/>
        <pt x="376" y="789" on="0"/>
        <pt x="252" y="756" on="1"/>
        <pt x="129" y="822" on="1"/>
        <pt x="184" y="1567" on="1"/>
        <pt x="977" y="1567" on="1"/>
        <pt x="977" y="1305" on="1"/>
        <pt x="455" y="1305" on="1"/>
        <pt x="428" y="1018" on="1"/>
        <pt x="519" y="1039" on="0"/>
        <pt x="614" y="1039" on="1"/>
        <pt x="823" y="1039" on="0"/>
        <pt x="1077" y="801" on="0"/>
        <pt x="1077" y="594" on="1"/>
        <pt x="1077" y="350" on="0"/>
        <pt x="775" y="85" on="0"/>
        <pt x="494" y="85" on="1"/>
        <pt x="250" y="85" on="0"/>
      </contour>
    </TTGlyph>
    <TTGlyph name="fivetamil" xMin="120" yMin="-553" xMax="2342" yMax="1847">
      <contour>
        <pt x="784" y="1255" on="1"/>
        <pt x="1992" y="1255" on="1"/>
        <pt x="1992" y="1038" on="1"/>
        <pt x="1696" y="1038" on="1"/>
        <pt x="1696" y="746" on="1"/>
        <pt x="1795" y="792" on="0"/>
        <pt x="1909" y="792" on="1"/>
        <pt x="2109" y="792" on="0"/>
        <pt x="2342" y="535" on="0"/>
        <pt x="2342" y="300" on="1"/>
        <pt x="2342" y="33" on="0"/>
        <pt x="2090" y="-347" on="0"/>
        <pt x="1604" y="-553" on="0"/>
        <pt x="1298" y="-553" on="1"/>
        <pt x="931" y="-553" on="0"/>
        <pt x="399" y="-276" on="0"/>
        <pt x="120" y="251" on="0"/>
        <pt x="120" y="602" on="1"/>
        <pt x="120" y="658" on="1"/>
        <pt x="120" y="995" on="0"/>
        <pt x="407" y="1549" on="0"/>
        <pt x="951" y="1847" on="0"/>
        <pt x="1330" y="1847" on="1"/>
        <pt x="1565" y="1847" on="0"/>
        <pt x="1982" y="1745" on="0"/>
        <pt x="2246" y="1612" on="1"/>
        <pt x="2137" y="1375" on="1"/>
        <pt x="1876" y="1516" on="0"/>
        <pt x="1525" y="1617" on="0"/>
        <pt x="1342" y="1617" on="1"/>
        <pt x="909" y="1617" on="0"/>
        <pt x="423" y="1129" on="0"/>
        <pt x="423" y="678" on="1"/>
        <pt x="423" y="583" on="1"/>
        <pt x="423" y="147" on="0"/>
        <pt x="868" y="-330" on="0"/>
        <pt x="1282" y="-330" on="1"/>
        <pt x="1299" y="-330" on="1"/>
        <pt x="1655" y="-330" on="0"/>
        <pt x="2040" y="-10" on="0"/>
        <pt x="2040" y="291" on="1"/>
        <pt x="2040" y="433" on="0"/>
        <pt x="1935" y="575" on="0"/>
        <pt x="1835" y="575" on="1"/>
        <pt x="1765" y="575" on="0"/>
        <pt x="1696" y="534" on="1"/>
        <pt x="1696" y="105" on="1"/>
        <pt x="1394" y="105" on="1"/>
        <pt x="1394" y="1038" on="1"/>
        <pt x="1086" y="1038" on="1"/>
        <pt x="1086" y="105" on="1"/>
        <pt x="784" y="105" on="1"/>
      </contour>
    </TTGlyph>
    <TTGlyph name="four.tamil" xMin="35" yMin="105" xMax="1137" yMax="1567">
      <contour>
        <pt x="1137" y="408" on="1"/>
        <pt x="961" y="408" on="1"/>
        <pt x="961" y="105" on="1"/>
        <pt x="659" y="105" on="1"/>
        <pt x="659" y="408" on="1"/>
        <pt x="35" y="408" on="1"/>
        <pt x="35" y="623" on="1"/>
        <pt x="676" y="1567" on="1"/>
        <pt x="961" y="1567" on="1"/>
        <pt x="961" y="648" on="1"/>
        <pt x="1137" y="648" on="1"/>
      </contour>
      <contour>
        <pt x="659" y="648" on="1"/>
        <pt x="659" y="896" on="1"/>
        <pt x="659" y="957" on="0"/>
        <pt x="668" y="1165" on="0"/>
        <pt x="672" y="1213" on="1"/>
        <pt x="664" y="1213" on="1"/>
        <pt x="626" y="1129" on="0"/>
        <pt x="575" y="1053" on="1"/>
        <pt x="307" y="648" on="1"/>
      </contour>
    </TTGlyph>
    <TTGlyph name="fourtamil" xMin="88" yMin="81" xMax="2016" yMax="1255">
      <contour>
        <pt x="1170" y="612" on="1"/>
        <pt x="1170" y="597" on="1"/>
        <pt x="1170" y="448" on="0"/>
        <pt x="1107" y="266" on="0"/>
        <pt x="970" y="141" on="0"/>
        <pt x="755" y="81" on="0"/>
        <pt x="602" y="81" on="1"/>
        <pt x="368" y="81" on="0"/>
        <pt x="88" y="274" on="0"/>
        <pt x="88" y="442" on="1"/>
        <pt x="88" y="545" on="0"/>
        <pt x="192" y="695" on="0"/>
        <pt x="296" y="742" on="1"/>
        <pt x="296" y="1255" on="1"/>
        <pt x="1519" y="1255" on="1"/>
        <pt x="1519" y="1038" on="1"/>
        <pt x="1170" y="1038" on="1"/>
        <pt x="1170" y="816" on="1"/>
        <pt x="1714" y="816" on="1"/>
        <pt x="1714" y="1255" on="1"/>
        <pt x="2016" y="1255" on="1"/>
        <pt x="2016" y="612" on="1"/>
      </contour>
      <contour>
        <pt x="566" y="807" on="1"/>
        <pt x="659" y="816" on="0"/>
        <pt x="748" y="816" on="1"/>
        <pt x="878" y="816" on="1"/>
        <pt x="878" y="1038" on="1"/>
        <pt x="566" y="1038" on="1"/>
      </contour>
      <contour>
        <pt x="878" y="612" on="1"/>
        <pt x="725" y="612" on="1"/>
        <pt x="545" y="612" on="0"/>
        <pt x="384" y="536" on="0"/>
        <pt x="384" y="445" on="1"/>
        <pt x="384" y="375" on="0"/>
        <pt x="513" y="298" on="0"/>
        <pt x="623" y="298" on="1"/>
        <pt x="762" y="298" on="0"/>
        <pt x="878" y="443" on="0"/>
        <pt x="878" y="592" on="1"/>
      </contour>
    </TTGlyph>
    <TTGlyph name="greater.tamil" xMin="88" yMin="105" xMax="1081" yMax="1565">
      <contour>
        <pt x="88" y="547" on="1"/>
        <pt x="772" y="828" on="1"/>
        <pt x="88" y="1145" on="1"/>
        <pt x="88" y="1385" on="1"/>
        <pt x="1081" y="889" on="1"/>
        <pt x="1081" y="746" on="1"/>
        <pt x="88" y="308" on="1"/>
      </contour>
      <contour>
        <pt x="597" y="105" on="1"/>
      </contour>
      <contour>
        <pt x="555" y="1565" on="1"/>
      </contour>
    </TTGlyph>
    <TTGlyph name="haprehalftamil" xMin="83" yMin="-553" xMax="3530" yMax="1847">
      <component glyphName="hatamil" x="0" y="0" flags="0x204"/>
      <component glyphName="viramatamil" x="2393" y="0" flags="0x4"/>
    </TTGlyph>
    <TTGlyph name="hatamil" xMin="83" yMin="-553" xMax="3530" yMax="1279">
      <contour>
        <pt x="95" y="-553" on="1"/>
        <pt x="83" y="-454" on="0"/>
        <pt x="83" y="-377" on="1"/>
        <pt x="83" y="-268" on="0"/>
        <pt x="191" y="-105" on="0"/>
        <pt x="390" y="-22" on="0"/>
        <pt x="584" y="-22" on="1"/>
        <pt x="2533" y="-22" on="1"/>
        <pt x="2832" y="-22" on="0"/>
        <pt x="3110" y="103" on="0"/>
        <pt x="3228" y="365" on="0"/>
        <pt x="3228" y="591" on="1"/>
        <pt x="3228" y="821" on="0"/>
        <pt x="3084" y="1062" on="0"/>
        <pt x="2952" y="1062" on="1"/>
        <pt x="2871" y="1062" on="0"/>
        <pt x="2772" y="986" on="0"/>
        <pt x="2731" y="861" on="0"/>
        <pt x="2731" y="739" on="1"/>
        <pt x="2731" y="105" on="1"/>
        <pt x="2429" y="105" on="1"/>
        <pt x="2429" y="736" on="1"/>
        <pt x="2429" y="921" on="0"/>
        <pt x="2357" y="1062" on="0"/>
        <pt x="2279" y="1062" on="1"/>
        <pt x="2191" y="1062" on="0"/>
        <pt x="2115" y="947" on="0"/>
        <pt x="2115" y="773" on="1"/>
        <pt x="2115" y="105" on="1"/>
        <pt x="1124" y="105" on="1"/>
        <pt x="1117" y="271" on="1"/>
        <pt x="1209" y="445" on="0"/>
        <pt x="1209" y="652" on="1"/>
        <pt x="1209" y="845" on="0"/>
        <pt x="1000" y="1057" on="0"/>
        <pt x="809" y="1057" on="1"/>
        <pt x="655" y="1057" on="0"/>
        <pt x="436" y="905" on="0"/>
        <pt x="390" y="767" on="1"/>
        <pt x="497" y="816" on="0"/>
        <pt x="615" y="816" on="1"/>
        <pt x="784" y="816" on="0"/>
        <pt x="982" y="626" on="0"/>
        <pt x="982" y="462" on="1"/>
        <pt x="982" y="281" on="0"/>
        <pt x="764" y="81" on="0"/>
        <pt x="564" y="81" on="1"/>
        <pt x="340" y="81" on="0"/>
        <pt x="95" y="354" on="0"/>
        <pt x="95" y="612" on="1"/>
        <pt x="95" y="808" on="0"/>
        <pt x="282" y="1112" on="0"/>
        <pt x="623" y="1279" on="0"/>
        <pt x="831" y="1279" on="1"/>
        <pt x="1162" y="1279" on="0"/>
        <pt x="1511" y="966" on="0"/>
        <pt x="1511" y="686" on="1"/>
        <pt x="1511" y="510" on="0"/>
        <pt x="1435" y="322" on="1"/>
        <pt x="1813" y="322" on="1"/>
        <pt x="1813" y="783" on="1"/>
        <pt x="1813" y="960" on="0"/>
        <pt x="1904" y="1167" on="0"/>
        <pt x="2093" y="1279" on="0"/>
        <pt x="2232" y="1279" on="1"/>
        <pt x="2361" y="1279" on="0"/>
        <pt x="2521" y="1197" on="0"/>
        <pt x="2586" y="1103" on="1"/>
        <pt x="2665" y="1197" on="0"/>
        <pt x="2847" y="1279" on="0"/>
        <pt x="2973" y="1279" on="1"/>
        <pt x="3239" y="1279" on="0"/>
        <pt x="3530" y="922" on="0"/>
        <pt x="3530" y="594" on="1"/>
        <pt x="3530" y="404" on="0"/>
        <pt x="3452" y="120" on="0"/>
        <pt x="3298" y="-75" on="0"/>
        <pt x="3079" y="-189" on="0"/>
        <pt x="2788" y="-239" on="0"/>
        <pt x="2571" y="-239" on="1"/>
        <pt x="715" y="-239" on="1"/>
        <pt x="577" y="-239" on="0"/>
        <pt x="459" y="-270" on="0"/>
        <pt x="385" y="-358" on="0"/>
        <pt x="385" y="-452" on="1"/>
        <pt x="385" y="-515" on="0"/>
        <pt x="390" y="-539" on="1"/>
      </contour>
      <contour>
        <pt x="362" y="546" on="1"/>
        <pt x="369" y="422" on="0"/>
        <pt x="474" y="289" on="0"/>
        <pt x="562" y="289" on="1"/>
        <pt x="625" y="289" on="0"/>
        <pt x="699" y="374" on="0"/>
        <pt x="699" y="447" on="1"/>
        <pt x="699" y="522" on="0"/>
        <pt x="610" y="611" on="0"/>
        <pt x="539" y="611" on="1"/>
        <pt x="451" y="611" on="0"/>
      </contour>
      <contour>
        <pt x="1314" y="1255" on="1"/>
      </contour>
    </TTGlyph>
    <TTGlyph name="hundredtamil" xMin="164" yMin="105" xMax="1966" yMax="1280">
      <contour>
        <pt x="758" y="988" on="1"/>
        <pt x="695" y="1063" on="0"/>
        <pt x="614" y="1063" on="1"/>
        <pt x="555" y="1063" on="0"/>
        <pt x="489" y="1006" on="0"/>
        <pt x="466" y="911" on="0"/>
        <pt x="466" y="805" on="1"/>
        <pt x="466" y="105" on="1"/>
        <pt x="164" y="105" on="1"/>
        <pt x="164" y="842" on="1"/>
        <pt x="164" y="989" on="0"/>
        <pt x="232" y="1169" on="0"/>
        <pt x="385" y="1280" on="0"/>
        <pt x="524" y="1280" on="1"/>
        <pt x="656" y="1280" on="0"/>
        <pt x="758" y="1199" on="1"/>
        <pt x="758" y="1255" on="1"/>
        <pt x="1966" y="1255" on="1"/>
        <pt x="1966" y="1038" on="1"/>
        <pt x="1670" y="1038" on="1"/>
        <pt x="1670" y="105" on="1"/>
        <pt x="1368" y="105" on="1"/>
        <pt x="1368" y="1038" on="1"/>
        <pt x="1060" y="1038" on="1"/>
        <pt x="1060" y="105" on="1"/>
        <pt x="758" y="105" on="1"/>
      </contour>
    </TTGlyph>
    <TTGlyph name="hyphen.tamil" xMin="61" yMin="105" xMax="598" yMax="1255">
      <contour>
        <pt x="61" y="529" on="1"/>
        <pt x="61" y="779" on="1"/>
        <pt x="598" y="779" on="1"/>
        <pt x="598" y="529" on="1"/>
      </contour>
      <contour>
        <pt x="290" y="105" on="1"/>
      </contour>
      <contour>
        <pt x="296" y="1255" on="1"/>
      </contour>
    </TTGlyph>
    <TTGlyph name="iitamil" xMin="164" yMin="105" xMax="1692" yMax="1255">
      <contour>
        <pt x="164" y="1255" on="1"/>
        <pt x="1692" y="1255" on="1"/>
        <pt x="1692" y="1038" on="1"/>
        <pt x="1240" y="1038" on="1"/>
        <pt x="1240" y="105" on="1"/>
        <pt x="938" y="105" on="1"/>
        <pt x="938" y="1038" on="1"/>
        <pt x="466" y="1038" on="1"/>
        <pt x="466" y="105" on="1"/>
        <pt x="164" y="105" on="1"/>
      </contour>
      <contour>
        <pt x="858" y="666" on="1"/>
        <pt x="858" y="598" on="0"/>
        <pt x="769" y="509" on="0"/>
        <pt x="702" y="509" on="1"/>
        <pt x="635" y="509" on="0"/>
        <pt x="546" y="598" on="0"/>
        <pt x="546" y="666" on="1"/>
        <pt x="546" y="732" on="0"/>
        <pt x="635" y="821" on="0"/>
        <pt x="702" y="821" on="1"/>
        <pt x="769" y="821" on="0"/>
        <pt x="858" y="733" on="0"/>
      </contour>
      <contour>
        <pt x="1632" y="666" on="1"/>
        <pt x="1632" y="598" on="0"/>
        <pt x="1543" y="509" on="0"/>
        <pt x="1476" y="509" on="1"/>
        <pt x="1409" y="509" on="0"/>
        <pt x="1320" y="598" on="0"/>
        <pt x="1320" y="666" on="1"/>
        <pt x="1320" y="732" on="0"/>
        <pt x="1409" y="821" on="0"/>
        <pt x="1476" y="821" on="1"/>
        <pt x="1543" y="821" on="0"/>
        <pt x="1632" y="733" on="0"/>
      </contour>
    </TTGlyph>
    <TTGlyph name="iivowelsigntamil" xMin="-998" yMin="1161" xMax="17" yMax="1847">
      <contour>
        <pt x="-950" y="1161" on="1"/>
        <pt x="-998" y="1259" on="0"/>
        <pt x="-998" y="1393" on="1"/>
        <pt x="-998" y="1520" on="0"/>
        <pt x="-855" y="1731" on="0"/>
        <pt x="-586" y="1847" on="0"/>
        <pt x="-401" y="1847" on="1"/>
        <pt x="-197" y="1847" on="0"/>
        <pt x="17" y="1698" on="0"/>
        <pt x="17" y="1559" on="1"/>
        <pt x="17" y="1433" on="0"/>
        <pt x="-154" y="1292" on="0"/>
        <pt x="-312" y="1292" on="1"/>
        <pt x="-473" y="1292" on="0"/>
        <pt x="-639" y="1427" on="0"/>
        <pt x="-639" y="1554" on="1"/>
        <pt x="-639" y="1568" on="0"/>
        <pt x="-635" y="1596" on="1"/>
        <pt x="-693" y="1559" on="0"/>
        <pt x="-753" y="1444" on="0"/>
        <pt x="-753" y="1374" on="1"/>
        <pt x="-753" y="1291" on="0"/>
        <pt x="-713" y="1202" on="1"/>
      </contour>
      <contour>
        <pt x="-413" y="1655" on="1"/>
        <pt x="-435" y="1612" on="0"/>
        <pt x="-435" y="1565" on="1"/>
        <pt x="-435" y="1514" on="0"/>
        <pt x="-382" y="1463" on="0"/>
        <pt x="-324" y="1463" on="1"/>
        <pt x="-276" y="1463" on="0"/>
        <pt x="-222" y="1514" on="0"/>
        <pt x="-222" y="1558" on="1"/>
        <pt x="-222" y="1607" on="0"/>
        <pt x="-303" y="1655" on="0"/>
        <pt x="-393" y="1655" on="1"/>
      </contour>
      <contour>
        <pt x="-316" y="1255" on="1"/>
      </contour>
    </TTGlyph>
    <TTGlyph name="itamil" xMin="61" yMin="-553" xMax="2364" yMax="1847">
      <contour>
        <pt x="291" y="252" on="1"/>
        <pt x="220" y="387" on="0"/>
        <pt x="151" y="682" on="0"/>
        <pt x="151" y="870" on="1"/>
        <pt x="151" y="1153" on="0"/>
        <pt x="425" y="1606" on="0"/>
        <pt x="932" y="1847" on="0"/>
        <pt x="1277" y="1847" on="1"/>
        <pt x="1557" y="1847" on="0"/>
        <pt x="1970" y="1713" on="0"/>
        <pt x="2245" y="1429" on="0"/>
        <pt x="2364" y="1026" on="0"/>
        <pt x="2364" y="692" on="1"/>
        <pt x="2364" y="105" on="1"/>
        <pt x="2062" y="105" on="1"/>
        <pt x="2062" y="642" on="1"/>
        <pt x="2062" y="1045" on="0"/>
        <pt x="1888" y="1429" on="0"/>
        <pt x="1551" y="1625" on="0"/>
        <pt x="1273" y="1625" on="1"/>
        <pt x="1031" y="1625" on="0"/>
        <pt x="646" y="1435" on="0"/>
        <pt x="437" y="1080" on="0"/>
        <pt x="437" y="844" on="1"/>
        <pt x="437" y="689" on="0"/>
        <pt x="486" y="469" on="0"/>
        <pt x="531" y="371" on="1"/>
        <pt x="761" y="448" on="0"/>
        <pt x="1053" y="448" on="1"/>
        <pt x="1282" y="448" on="0"/>
        <pt x="1491" y="393" on="1"/>
        <pt x="1514" y="500" on="0"/>
        <pt x="1514" y="618" on="1"/>
        <pt x="1514" y="731" on="0"/>
        <pt x="1455" y="919" on="0"/>
        <pt x="1397" y="983" on="1"/>
        <pt x="1408" y="948" on="0"/>
        <pt x="1408" y="913" on="1"/>
        <pt x="1408" y="764" on="0"/>
        <pt x="1203" y="573" on="0"/>
        <pt x="1019" y="573" on="1"/>
        <pt x="852" y="573" on="0"/>
        <pt x="638" y="757" on="0"/>
        <pt x="638" y="913" on="1"/>
        <pt x="638" y="1086" on="0"/>
        <pt x="905" y="1279" on="0"/>
        <pt x="1130" y="1279" on="1"/>
        <pt x="1447" y="1279" on="0"/>
        <pt x="1799" y="928" on="0"/>
        <pt x="1799" y="623" on="1"/>
        <pt x="1799" y="440" on="0"/>
        <pt x="1754" y="290" on="1"/>
        <pt x="1901" y="208" on="0"/>
        <pt x="2049" y="-15" on="0"/>
        <pt x="2049" y="-157" on="1"/>
        <pt x="2049" y="-348" on="0"/>
        <pt x="1777" y="-553" on="0"/>
        <pt x="1514" y="-553" on="1"/>
        <pt x="1398" y="-553" on="0"/>
        <pt x="1170" y="-507" on="0"/>
        <pt x="1057" y="-462" on="1"/>
        <pt x="939" y="-507" on="0"/>
        <pt x="701" y="-553" on="0"/>
        <pt x="580" y="-553" on="1"/>
        <pt x="330" y="-553" on="0"/>
        <pt x="61" y="-344" on="0"/>
        <pt x="61" y="-157" on="1"/>
        <pt x="61" y="-37" on="0"/>
        <pt x="177" y="172" on="0"/>
      </contour>
      <contour>
        <pt x="1137" y="1074" on="1"/>
        <pt x="1116" y="1074" on="1"/>
        <pt x="1009" y="1074" on="0"/>
        <pt x="907" y="999" on="0"/>
        <pt x="907" y="922" on="1"/>
        <pt x="907" y="857" on="0"/>
        <pt x="979" y="781" on="0"/>
        <pt x="1041" y="781" on="1"/>
        <pt x="1170" y="781" on="0"/>
        <pt x="1170" y="938" on="1"/>
        <pt x="1170" y="1003" on="0"/>
      </contour>
      <contour>
        <pt x="1050" y="-219" on="1"/>
        <pt x="1176" y="-147" on="0"/>
        <pt x="1363" y="56" on="0"/>
        <pt x="1424" y="187" on="1"/>
        <pt x="1255" y="232" on="0"/>
        <pt x="1058" y="232" on="1"/>
        <pt x="818" y="232" on="0"/>
        <pt x="636" y="177" on="1"/>
        <pt x="720" y="45" on="0"/>
        <pt x="927" y="-153" on="0"/>
      </contour>
      <contour>
        <pt x="1671" y="75" on="1"/>
        <pt x="1609" y="-48" on="0"/>
        <pt x="1440" y="-245" on="0"/>
        <pt x="1333" y="-320" on="1"/>
        <pt x="1425" y="-336" on="0"/>
        <pt x="1508" y="-336" on="1"/>
        <pt x="1640" y="-336" on="0"/>
        <pt x="1777" y="-230" on="0"/>
        <pt x="1777" y="-129" on="1"/>
        <pt x="1777" y="-70" on="0"/>
        <pt x="1724" y="32" on="0"/>
      </contour>
      <contour>
        <pt x="784" y="-318" on="1"/>
        <pt x="675" y="-247" on="0"/>
        <pt x="489" y="-61" on="0"/>
        <pt x="411" y="54" on="1"/>
        <pt x="332" y="-25" on="0"/>
        <pt x="332" y="-127" on="1"/>
        <pt x="332" y="-229" on="0"/>
        <pt x="466" y="-336" on="0"/>
        <pt x="600" y="-336" on="1"/>
        <pt x="694" y="-336" on="0"/>
      </contour>
    </TTGlyph>
    <TTGlyph name="ivowelsign1tamil" xMin="-801" yMin="105" xMax="466" yMax="1847">
      <contour>
        <pt x="-742" y="1159" on="1"/>
        <pt x="-770" y="1212" on="0"/>
        <pt x="-801" y="1346" on="0"/>
        <pt x="-801" y="1408" on="1"/>
        <pt x="-801" y="1543" on="0"/>
        <pt x="-657" y="1742" on="0"/>
        <pt x="-391" y="1847" on="0"/>
        <pt x="-226" y="1847" on="1"/>
        <pt x="31" y="1847" on="0"/>
        <pt x="332" y="1670" on="0"/>
        <pt x="466" y="1372" on="0"/>
        <pt x="466" y="1095" on="1"/>
        <pt x="466" y="105" on="1"/>
        <pt x="164" y="105" on="1"/>
        <pt x="164" y="991" on="1"/>
        <pt x="164" y="1221" on="0"/>
        <pt x="118" y="1430" on="0"/>
        <pt x="26" y="1557" on="0"/>
        <pt x="-110" y="1629" on="0"/>
        <pt x="-231" y="1629" on="1"/>
        <pt x="-366" y="1629" on="0"/>
        <pt x="-514" y="1505" on="0"/>
        <pt x="-514" y="1409" on="1"/>
        <pt x="-514" y="1287" on="0"/>
        <pt x="-439" y="1159" on="1"/>
      </contour>
      <contour>
        <pt x="-336" y="1255" on="1"/>
      </contour>
    </TTGlyph>
    <TTGlyph name="ivowelsign2tamil" xMin="-1020" yMin="105" xMax="466" yMax="1847">
      <contour>
        <pt x="-967" y="1153" on="1"/>
        <pt x="-1020" y="1257" on="0"/>
        <pt x="-1020" y="1397" on="1"/>
        <pt x="-1020" y="1610" on="0"/>
        <pt x="-668" y="1847" on="0"/>
        <pt x="-368" y="1847" on="1"/>
        <pt x="-159" y="1847" on="0"/>
        <pt x="125" y="1758" on="0"/>
        <pt x="355" y="1568" on="0"/>
        <pt x="466" y="1264" on="0"/>
        <pt x="466" y="1038" on="1"/>
        <pt x="466" y="105" on="1"/>
        <pt x="164" y="105" on="1"/>
        <pt x="164" y="963" on="1"/>
        <pt x="164" y="1218" on="0"/>
        <pt x="64" y="1480" on="0"/>
        <pt x="-171" y="1624" on="0"/>
        <pt x="-356" y="1624" on="1"/>
        <pt x="-545" y="1624" on="0"/>
        <pt x="-734" y="1490" on="0"/>
        <pt x="-734" y="1357" on="1"/>
        <pt x="-734" y="1247" on="0"/>
        <pt x="-680" y="1153" on="1"/>
      </contour>
      <contour>
        <pt x="-336" y="1255" on="1"/>
      </contour>
    </TTGlyph>
    <TTGlyph name="ivowelsign3tamil" xMin="-863" yMin="105" xMax="466" yMax="1847">
      <contour>
        <pt x="-321" y="847" on="1"/>
        <pt x="-566" y="868" on="0"/>
        <pt x="-863" y="1156" on="0"/>
        <pt x="-863" y="1369" on="1"/>
        <pt x="-863" y="1581" on="0"/>
        <pt x="-534" y="1847" on="0"/>
        <pt x="-248" y="1847" on="1"/>
        <pt x="-22" y="1847" on="0"/>
        <pt x="303" y="1674" on="0"/>
        <pt x="466" y="1362" on="0"/>
        <pt x="466" y="1060" on="1"/>
        <pt x="466" y="105" on="1"/>
        <pt x="164" y="105" on="1"/>
        <pt x="164" y="970" on="1"/>
        <pt x="164" y="1176" on="0"/>
        <pt x="117" y="1408" on="0"/>
        <pt x="0" y="1559" on="0"/>
        <pt x="-165" y="1624" on="0"/>
        <pt x="-268" y="1624" on="1"/>
        <pt x="-422" y="1624" on="0"/>
        <pt x="-585" y="1473" on="0"/>
        <pt x="-585" y="1364" on="1"/>
        <pt x="-585" y="1255" on="0"/>
        <pt x="-444" y="1095" on="0"/>
        <pt x="-321" y="1070" on="1"/>
      </contour>
      <contour>
        <pt x="-336" y="1255" on="1"/>
      </contour>
    </TTGlyph>
    <TTGlyph name="ivowelsign4tamil" xMin="-1045" yMin="105" xMax="466" yMax="1847">
      <contour>
        <pt x="-992" y="1153" on="1"/>
        <pt x="-1045" y="1257" on="0"/>
        <pt x="-1045" y="1397" on="1"/>
        <pt x="-1045" y="1612" on="0"/>
        <pt x="-685" y="1847" on="0"/>
        <pt x="-368" y="1847" on="1"/>
        <pt x="-159" y="1847" on="0"/>
        <pt x="125" y="1758" on="0"/>
        <pt x="355" y="1568" on="0"/>
        <pt x="466" y="1264" on="0"/>
        <pt x="466" y="1038" on="1"/>
        <pt x="466" y="105" on="1"/>
        <pt x="164" y="105" on="1"/>
        <pt x="164" y="963" on="1"/>
        <pt x="164" y="1218" on="0"/>
        <pt x="64" y="1480" on="0"/>
        <pt x="-171" y="1624" on="0"/>
        <pt x="-356" y="1624" on="1"/>
        <pt x="-557" y="1624" on="0"/>
        <pt x="-759" y="1490" on="0"/>
        <pt x="-759" y="1357" on="1"/>
        <pt x="-759" y="1246" on="0"/>
        <pt x="-701" y="1153" on="1"/>
      </contour>
      <contour>
        <pt x="-336" y="1255" on="1"/>
      </contour>
    </TTGlyph>
    <TTGlyph name="ivowelsigntamil" xMin="-687" yMin="105" xMax="466" yMax="1847">
      <contour>
        <pt x="-628" y="1159" on="1"/>
        <pt x="-656" y="1212" on="0"/>
        <pt x="-687" y="1346" on="0"/>
        <pt x="-687" y="1408" on="1"/>
        <pt x="-687" y="1543" on="0"/>
        <pt x="-553" y="1742" on="0"/>
        <pt x="-311" y="1847" on="0"/>
        <pt x="-166" y="1847" on="1"/>
        <pt x="36" y="1847" on="0"/>
        <pt x="322" y="1697" on="0"/>
        <pt x="466" y="1388" on="0"/>
        <pt x="466" y="1114" on="1"/>
        <pt x="466" y="105" on="1"/>
        <pt x="164" y="105" on="1"/>
        <pt x="164" y="985" on="1"/>
        <pt x="164" y="1270" on="0"/>
        <pt x="98" y="1507" on="0"/>
        <pt x="-52" y="1634" on="0"/>
        <pt x="-160" y="1634" on="1"/>
        <pt x="-275" y="1634" on="0"/>
        <pt x="-400" y="1511" on="0"/>
        <pt x="-400" y="1412" on="1"/>
        <pt x="-400" y="1287" on="0"/>
        <pt x="-330" y="1159" on="1"/>
      </contour>
      <contour>
        <pt x="-336" y="1255" on="1"/>
      </contour>
    </TTGlyph>
    <TTGlyph name="japrehalftamil" xMin="105" yMin="-553" xMax="2202" yMax="1847">
      <component glyphName="jatamil" x="0" y="0" flags="0x204"/>
      <component glyphName="viramatamil" x="1723" y="0" flags="0x4"/>
    </TTGlyph>
    <TTGlyph name="jatamil" xMin="105" yMin="-553" xMax="2202" yMax="1279">
      <contour>
        <pt x="666" y="-553" on="1"/>
        <pt x="393" y="-553" on="0"/>
        <pt x="105" y="-305" on="0"/>
        <pt x="105" y="-85" on="1"/>
        <pt x="105" y="68" on="0"/>
        <pt x="250" y="286" on="0"/>
        <pt x="555" y="416" on="0"/>
        <pt x="843" y="416" on="1"/>
        <pt x="1262" y="416" on="1"/>
        <pt x="1422" y="416" on="0"/>
        <pt x="1597" y="434" on="0"/>
        <pt x="1740" y="477" on="0"/>
        <pt x="1847" y="559" on="0"/>
        <pt x="1900" y="681" on="0"/>
        <pt x="1900" y="765" on="1"/>
        <pt x="1900" y="905" on="0"/>
        <pt x="1755" y="1062" on="0"/>
        <pt x="1634" y="1062" on="1"/>
        <pt x="1549" y="1062" on="0"/>
        <pt x="1440" y="977" on="0"/>
        <pt x="1401" y="837" on="0"/>
        <pt x="1401" y="707" on="1"/>
        <pt x="1401" y="538" on="1"/>
        <pt x="1099" y="538" on="1"/>
        <pt x="1099" y="654" on="1"/>
        <pt x="1099" y="814" on="0"/>
        <pt x="1025" y="987" on="0"/>
        <pt x="858" y="1076" on="0"/>
        <pt x="720" y="1077" on="1"/>
        <pt x="812" y="1038" on="0"/>
        <pt x="912" y="889" on="0"/>
        <pt x="912" y="792" on="1"/>
        <pt x="912" y="636" on="0"/>
        <pt x="697" y="458" on="0"/>
        <pt x="503" y="458" on="1"/>
        <pt x="382" y="458" on="0"/>
        <pt x="202" y="545" on="0"/>
        <pt x="105" y="706" on="0"/>
        <pt x="105" y="801" on="1"/>
        <pt x="105" y="1023" on="0"/>
        <pt x="450" y="1279" on="0"/>
        <pt x="737" y="1279" on="1"/>
        <pt x="903" y="1279" on="0"/>
        <pt x="1137" y="1193" on="0"/>
        <pt x="1238" y="1080" on="1"/>
        <pt x="1307" y="1179" on="0"/>
        <pt x="1516" y="1279" on="0"/>
        <pt x="1655" y="1279" on="1"/>
        <pt x="1819" y="1279" on="0"/>
        <pt x="2066" y="1160" on="0"/>
        <pt x="2202" y="928" on="0"/>
        <pt x="2202" y="778" on="1"/>
        <pt x="2202" y="585" on="0"/>
        <pt x="2030" y="329" on="0"/>
        <pt x="1664" y="199" on="0"/>
        <pt x="1331" y="199" on="1"/>
        <pt x="855" y="199" on="1"/>
        <pt x="726" y="199" on="0"/>
        <pt x="571" y="168" on="0"/>
        <pt x="457" y="96" on="0"/>
        <pt x="407" y="-6" on="0"/>
        <pt x="407" y="-73" on="1"/>
        <pt x="407" y="-196" on="0"/>
        <pt x="558" y="-335" on="0"/>
        <pt x="693" y="-335" on="1"/>
        <pt x="787" y="-335" on="0"/>
        <pt x="989" y="-230" on="0"/>
        <pt x="1088" y="-131" on="1"/>
        <pt x="1251" y="32" on="0"/>
        <pt x="1516" y="154" on="0"/>
        <pt x="1729" y="154" on="1"/>
        <pt x="1858" y="154" on="0"/>
        <pt x="2062" y="59" on="0"/>
        <pt x="2175" y="-114" on="0"/>
        <pt x="2175" y="-220" on="1"/>
        <pt x="2175" y="-373" on="0"/>
        <pt x="1964" y="-553" on="0"/>
        <pt x="1774" y="-553" on="1"/>
        <pt x="1578" y="-553" on="0"/>
        <pt x="1378" y="-383" on="0"/>
        <pt x="1378" y="-239" on="1"/>
        <pt x="1378" y="-205" on="0"/>
        <pt x="1385" y="-179" on="1"/>
        <pt x="1350" y="-208" on="0"/>
        <pt x="1299" y="-263" on="1"/>
        <pt x="1144" y="-425" on="0"/>
        <pt x="858" y="-553" on="0"/>
      </contour>
      <contour>
        <pt x="447" y="996" on="1"/>
        <pt x="365" y="927" on="0"/>
        <pt x="365" y="811" on="1"/>
        <pt x="365" y="742" on="0"/>
        <pt x="441" y="663" on="0"/>
        <pt x="512" y="663" on="1"/>
        <pt x="580" y="663" on="0"/>
        <pt x="657" y="734" on="0"/>
        <pt x="657" y="795" on="1"/>
        <pt x="657" y="879" on="0"/>
        <pt x="549" y="983" on="0"/>
      </contour>
      <contour>
        <pt x="1681" y="-52" on="1"/>
        <pt x="1616" y="-132" on="0"/>
        <pt x="1616" y="-206" on="1"/>
        <pt x="1616" y="-271" on="0"/>
        <pt x="1694" y="-345" on="0"/>
        <pt x="1764" y="-345" on="1"/>
        <pt x="1835" y="-345" on="0"/>
        <pt x="1915" y="-267" on="0"/>
        <pt x="1915" y="-205" on="1"/>
        <pt x="1915" y="-132" on="0"/>
        <pt x="1803" y="-52" on="0"/>
        <pt x="1698" y="-52" on="1"/>
      </contour>
    </TTGlyph>
    <TTGlyph name="kaprehalftamil" xMin="88" yMin="81" xMax="1785" yMax="1847">
      <component glyphName="katamil" x="0" y="0" flags="0x204"/>
      <component glyphName="viramatamil" x="1551" y="0" flags="0x4"/>
    </TTGlyph>
    <TTGlyph name="katamil" xMin="88" yMin="81" xMax="1785" yMax="1255">
      <contour>
        <pt x="1170" y="612" on="1"/>
        <pt x="1170" y="597" on="1"/>
        <pt x="1170" y="448" on="0"/>
        <pt x="1107" y="266" on="0"/>
        <pt x="970" y="141" on="0"/>
        <pt x="755" y="81" on="0"/>
        <pt x="602" y="81" on="1"/>
        <pt x="368" y="81" on="0"/>
        <pt x="88" y="274" on="0"/>
        <pt x="88" y="442" on="1"/>
        <pt x="88" y="545" on="0"/>
        <pt x="192" y="695" on="0"/>
        <pt x="296" y="742" on="1"/>
        <pt x="296" y="1255" on="1"/>
        <pt x="1559" y="1255" on="1"/>
        <pt x="1559" y="1038" on="1"/>
        <pt x="1170" y="1038" on="1"/>
        <pt x="1170" y="816" on="1"/>
        <pt x="1172" y="816" on="1"/>
        <pt x="1340" y="816" on="0"/>
        <pt x="1547" y="778" on="0"/>
        <pt x="1707" y="678" on="0"/>
        <pt x="1785" y="530" on="0"/>
        <pt x="1785" y="435" on="1"/>
        <pt x="1785" y="268" on="0"/>
        <pt x="1573" y="81" on="0"/>
        <pt x="1382" y="81" on="1"/>
        <pt x="1243" y="81" on="0"/>
        <pt x="1155" y="104" on="1"/>
        <pt x="1204" y="315" on="1"/>
        <pt x="1258" y="302" on="0"/>
        <pt x="1324" y="302" on="1"/>
        <pt x="1499" y="302" on="0"/>
        <pt x="1499" y="450" on="1"/>
        <pt x="1499" y="531" on="0"/>
        <pt x="1352" y="611" on="0"/>
      </contour>
      <contour>
        <pt x="566" y="807" on="1"/>
        <pt x="659" y="816" on="0"/>
        <pt x="748" y="816" on="1"/>
        <pt x="878" y="816" on="1"/>
        <pt x="878" y="1038" on="1"/>
        <pt x="566" y="1038" on="1"/>
      </contour>
      <contour>
        <pt x="878" y="612" on="1"/>
        <pt x="725" y="612" on="1"/>
        <pt x="545" y="612" on="0"/>
        <pt x="384" y="536" on="0"/>
        <pt x="384" y="445" on="1"/>
        <pt x="384" y="375" on="0"/>
        <pt x="513" y="298" on="0"/>
        <pt x="623" y="298" on="1"/>
        <pt x="762" y="298" on="0"/>
        <pt x="878" y="443" on="0"/>
        <pt x="878" y="592" on="1"/>
      </contour>
    </TTGlyph>
    <TTGlyph name="kauuvowelsigntamil" xMin="88" yMin="81" xMax="3046" yMax="1255">
      <contour>
        <pt x="2366" y="245" on="1"/>
        <pt x="2400" y="294" on="0"/>
        <pt x="2449" y="468" on="0"/>
        <pt x="2449" y="542" on="1"/>
        <pt x="2449" y="695" on="0"/>
        <pt x="2260" y="870" on="0"/>
        <pt x="2102" y="870" on="1"/>
        <pt x="2022" y="870" on="0"/>
        <pt x="1896" y="838" on="0"/>
        <pt x="1850" y="807" on="1"/>
        <pt x="2035" y="777" on="0"/>
        <pt x="2233" y="575" on="0"/>
        <pt x="2233" y="417" on="1"/>
        <pt x="2233" y="265" on="0"/>
        <pt x="2036" y="81" on="0"/>
        <pt x="1871" y="81" on="1"/>
        <pt x="1686" y="81" on="0"/>
        <pt x="1452" y="297" on="0"/>
        <pt x="1452" y="488" on="1"/>
        <pt x="1452" y="557" on="0"/>
        <pt x="1465" y="612" on="1"/>
        <pt x="1170" y="612" on="1"/>
        <pt x="1170" y="597" on="1"/>
        <pt x="1170" y="448" on="0"/>
        <pt x="1107" y="266" on="0"/>
        <pt x="970" y="141" on="0"/>
        <pt x="755" y="81" on="0"/>
        <pt x="602" y="81" on="1"/>
        <pt x="368" y="81" on="0"/>
        <pt x="88" y="274" on="0"/>
        <pt x="88" y="442" on="1"/>
        <pt x="88" y="545" on="0"/>
        <pt x="192" y="695" on="0"/>
        <pt x="296" y="742" on="1"/>
        <pt x="296" y="1255" on="1"/>
        <pt x="1559" y="1255" on="1"/>
        <pt x="1559" y="1038" on="1"/>
        <pt x="1170" y="1038" on="1"/>
        <pt x="1170" y="816" on="1"/>
        <pt x="1551" y="816" on="1"/>
        <pt x="1641" y="946" on="0"/>
        <pt x="1945" y="1087" on="0"/>
        <pt x="2133" y="1087" on="1"/>
        <pt x="2430" y="1087" on="0"/>
        <pt x="2734" y="820" on="0"/>
        <pt x="2734" y="591" on="1"/>
        <pt x="2734" y="514" on="0"/>
        <pt x="2705" y="369" on="0"/>
        <pt x="2680" y="322" on="1"/>
        <pt x="3046" y="322" on="1"/>
        <pt x="3046" y="105" on="1"/>
        <pt x="2380" y="105" on="1"/>
      </contour>
      <contour>
        <pt x="566" y="807" on="1"/>
        <pt x="659" y="816" on="0"/>
        <pt x="748" y="816" on="1"/>
        <pt x="878" y="816" on="1"/>
        <pt x="878" y="1038" on="1"/>
        <pt x="566" y="1038" on="1"/>
      </contour>
      <contour>
        <pt x="878" y="612" on="1"/>
        <pt x="725" y="612" on="1"/>
        <pt x="545" y="612" on="0"/>
        <pt x="384" y="536" on="0"/>
        <pt x="384" y="445" on="1"/>
        <pt x="384" y="375" on="0"/>
        <pt x="513" y="298" on="0"/>
        <pt x="623" y="298" on="1"/>
        <pt x="762" y="298" on="0"/>
        <pt x="878" y="443" on="0"/>
        <pt x="878" y="592" on="1"/>
      </contour>
      <contour>
        <pt x="1727" y="609" on="1"/>
        <pt x="1715" y="554" on="0"/>
        <pt x="1715" y="489" on="1"/>
        <pt x="1715" y="391" on="0"/>
        <pt x="1793" y="286" on="0"/>
        <pt x="1859" y="286" on="1"/>
        <pt x="1912" y="286" on="0"/>
        <pt x="1970" y="344" on="0"/>
        <pt x="1970" y="397" on="1"/>
        <pt x="1970" y="498" on="0"/>
        <pt x="1847" y="599" on="0"/>
      </contour>
    </TTGlyph>
    <TTGlyph name="kauvowelsigntamil" xMin="115" yMin="-553" xMax="2323" yMax="1279">
      <contour>
        <pt x="1709" y="593" on="1"/>
        <pt x="1708" y="445" on="0"/>
        <pt x="1644" y="263" on="0"/>
        <pt x="1507" y="140" on="0"/>
        <pt x="1292" y="81" on="0"/>
        <pt x="1141" y="81" on="1"/>
        <pt x="907" y="81" on="0"/>
        <pt x="627" y="274" on="0"/>
        <pt x="627" y="442" on="1"/>
        <pt x="627" y="546" on="0"/>
        <pt x="731" y="696" on="0"/>
        <pt x="835" y="743" on="1"/>
        <pt x="835" y="1255" on="1"/>
        <pt x="2098" y="1255" on="1"/>
        <pt x="2098" y="1038" on="1"/>
        <pt x="1709" y="1038" on="1"/>
        <pt x="1709" y="809" on="1"/>
        <pt x="2011" y="778" on="0"/>
        <pt x="2323" y="457" on="0"/>
        <pt x="2323" y="209" on="1"/>
        <pt x="2323" y="-33" on="0"/>
        <pt x="2075" y="-374" on="0"/>
        <pt x="1599" y="-553" on="0"/>
        <pt x="1284" y="-553" on="1"/>
        <pt x="1231" y="-553" on="1"/>
        <pt x="873" y="-553" on="0"/>
        <pt x="372" y="-318" on="0"/>
        <pt x="115" y="120" on="0"/>
        <pt x="115" y="393" on="1"/>
        <pt x="115" y="437" on="1"/>
        <pt x="115" y="859" on="0"/>
        <pt x="390" y="1279" on="1"/>
        <pt x="625" y="1137" on="1"/>
        <pt x="517" y="976" on="0"/>
        <pt x="401" y="625" on="0"/>
        <pt x="401" y="464" on="1"/>
        <pt x="401" y="415" on="1"/>
        <pt x="401" y="65" on="0"/>
        <pt x="831" y="-330" on="0"/>
        <pt x="1236" y="-330" on="1"/>
        <pt x="1250" y="-330" on="1"/>
        <pt x="1620" y="-330" on="0"/>
        <pt x="2015" y="-56" on="0"/>
        <pt x="2015" y="204" on="1"/>
        <pt x="2015" y="355" on="0"/>
        <pt x="1860" y="554" on="0"/>
      </contour>
      <contour>
        <pt x="1105" y="807" on="1"/>
        <pt x="1198" y="816" on="0"/>
        <pt x="1287" y="816" on="1"/>
        <pt x="1416" y="816" on="1"/>
        <pt x="1416" y="1038" on="1"/>
        <pt x="1105" y="1038" on="1"/>
      </contour>
      <contour>
        <pt x="1416" y="612" on="1"/>
        <pt x="1264" y="612" on="1"/>
        <pt x="1084" y="612" on="0"/>
        <pt x="923" y="536" on="0"/>
        <pt x="923" y="445" on="1"/>
        <pt x="923" y="374" on="0"/>
        <pt x="1053" y="298" on="0"/>
        <pt x="1163" y="298" on="1"/>
        <pt x="1300" y="298" on="0"/>
        <pt x="1416" y="442" on="0"/>
        <pt x="1416" y="592" on="1"/>
      </contour>
    </TTGlyph>
    <TTGlyph name="laiivowelsigntamil" xMin="95" yMin="81" xMax="2304" yMax="1847">
      <contour>
        <pt x="390" y="767" on="1"/>
        <pt x="497" y="816" on="0"/>
        <pt x="615" y="816" on="1"/>
        <pt x="784" y="816" on="0"/>
        <pt x="982" y="626" on="0"/>
        <pt x="982" y="462" on="1"/>
        <pt x="982" y="281" on="0"/>
        <pt x="764" y="81" on="0"/>
        <pt x="564" y="81" on="1"/>
        <pt x="340" y="81" on="0"/>
        <pt x="95" y="354" on="0"/>
        <pt x="95" y="612" on="1"/>
        <pt x="95" y="807" on="0"/>
        <pt x="280" y="1110" on="0"/>
        <pt x="623" y="1279" on="0"/>
        <pt x="833" y="1279" on="1"/>
        <pt x="968" y="1279" on="0"/>
        <pt x="1169" y="1227" on="0"/>
        <pt x="1325" y="1115" on="0"/>
        <pt x="1408" y="973" on="0"/>
        <pt x="1452" y="758" on="0"/>
        <pt x="1461" y="587" on="1"/>
        <pt x="1470" y="424" on="0"/>
        <pt x="1572" y="298" on="0"/>
        <pt x="1666" y="298" on="1"/>
        <pt x="1775" y="298" on="0"/>
        <pt x="1877" y="455" on="0"/>
        <pt x="1877" y="619" on="1"/>
        <pt x="1877" y="747" on="0"/>
        <pt x="1834" y="878" on="1"/>
        <pt x="1563" y="930" on="0"/>
        <pt x="1289" y="1187" on="0"/>
        <pt x="1289" y="1385" on="1"/>
        <pt x="1289" y="1516" on="0"/>
        <pt x="1427" y="1730" on="0"/>
        <pt x="1698" y="1847" on="0"/>
        <pt x="1886" y="1847" on="1"/>
        <pt x="2090" y="1847" on="0"/>
        <pt x="2304" y="1698" on="0"/>
        <pt x="2304" y="1559" on="1"/>
        <pt x="2304" y="1433" on="0"/>
        <pt x="2133" y="1292" on="0"/>
        <pt x="1975" y="1292" on="1"/>
        <pt x="1814" y="1292" on="0"/>
        <pt x="1648" y="1427" on="0"/>
        <pt x="1648" y="1554" on="1"/>
        <pt x="1648" y="1580" on="0"/>
        <pt x="1652" y="1598" on="1"/>
        <pt x="1534" y="1522" on="0"/>
        <pt x="1534" y="1376" on="1"/>
        <pt x="1534" y="1286" on="0"/>
        <pt x="1641" y="1162" on="0"/>
        <pt x="1749" y="1128" on="1"/>
        <pt x="1978" y="1255" on="1"/>
        <pt x="2179" y="968" on="0"/>
        <pt x="2179" y="632" on="1"/>
        <pt x="2179" y="371" on="0"/>
        <pt x="1909" y="81" on="0"/>
        <pt x="1658" y="81" on="1"/>
        <pt x="1415" y="81" on="0"/>
        <pt x="1173" y="328" on="0"/>
        <pt x="1157" y="581" on="1"/>
        <pt x="1148" y="716" on="0"/>
        <pt x="1118" y="876" on="0"/>
        <pt x="1044" y="990" on="0"/>
        <pt x="911" y="1057" on="0"/>
        <pt x="806" y="1057" on="1"/>
        <pt x="655" y="1057" on="0"/>
        <pt x="437" y="905" on="0"/>
      </contour>
      <contour>
        <pt x="1874" y="1655" on="1"/>
        <pt x="1852" y="1611" on="0"/>
        <pt x="1852" y="1565" on="1"/>
        <pt x="1852" y="1513" on="0"/>
        <pt x="1905" y="1463" on="0"/>
        <pt x="1963" y="1463" on="1"/>
        <pt x="2011" y="1463" on="0"/>
        <pt x="2065" y="1514" on="0"/>
        <pt x="2065" y="1558" on="1"/>
        <pt x="2065" y="1607" on="0"/>
        <pt x="1984" y="1655" on="0"/>
        <pt x="1894" y="1655" on="1"/>
      </contour>
      <contour>
        <pt x="362" y="545" on="1"/>
        <pt x="369" y="423" on="0"/>
        <pt x="474" y="289" on="0"/>
        <pt x="562" y="289" on="1"/>
        <pt x="625" y="289" on="0"/>
        <pt x="699" y="374" on="0"/>
        <pt x="699" y="447" on="1"/>
        <pt x="699" y="522" on="0"/>
        <pt x="610" y="611" on="0"/>
        <pt x="539" y="611" on="1"/>
        <pt x="452" y="611" on="0"/>
      </contour>
    </TTGlyph>
    <TTGlyph name="laivowelsigntamil" xMin="95" yMin="81" xMax="2753" yMax="1847">
      <contour>
        <pt x="1808" y="1161" on="1"/>
        <pt x="1978" y="1255" on="1"/>
        <pt x="2179" y="968" on="0"/>
        <pt x="2179" y="632" on="1"/>
        <pt x="2179" y="371" on="0"/>
        <pt x="1909" y="81" on="0"/>
        <pt x="1658" y="81" on="1"/>
        <pt x="1415" y="81" on="0"/>
        <pt x="1173" y="328" on="0"/>
        <pt x="1157" y="581" on="1"/>
        <pt x="1148" y="716" on="0"/>
        <pt x="1118" y="876" on="0"/>
        <pt x="1044" y="990" on="0"/>
        <pt x="911" y="1057" on="0"/>
        <pt x="806" y="1057" on="1"/>
        <pt x="655" y="1057" on="0"/>
        <pt x="437" y="905" on="0"/>
        <pt x="390" y="767" on="1"/>
        <pt x="497" y="816" on="0"/>
        <pt x="615" y="816" on="1"/>
        <pt x="784" y="816" on="0"/>
        <pt x="982" y="626" on="0"/>
        <pt x="982" y="462" on="1"/>
        <pt x="982" y="281" on="0"/>
        <pt x="764" y="81" on="0"/>
        <pt x="564" y="81" on="1"/>
        <pt x="340" y="81" on="0"/>
        <pt x="95" y="354" on="0"/>
        <pt x="95" y="612" on="1"/>
        <pt x="95" y="807" on="0"/>
        <pt x="280" y="1110" on="0"/>
        <pt x="623" y="1279" on="0"/>
        <pt x="833" y="1279" on="1"/>
        <pt x="968" y="1279" on="0"/>
        <pt x="1169" y="1227" on="0"/>
        <pt x="1325" y="1115" on="0"/>
        <pt x="1408" y="973" on="0"/>
        <pt x="1452" y="758" on="0"/>
        <pt x="1461" y="587" on="1"/>
        <pt x="1470" y="424" on="0"/>
        <pt x="1572" y="298" on="0"/>
        <pt x="1666" y="298" on="1"/>
        <pt x="1775" y="298" on="0"/>
        <pt x="1877" y="455" on="0"/>
        <pt x="1877" y="619" on="1"/>
        <pt x="1877" y="744" on="0"/>
        <pt x="1837" y="868" on="1"/>
        <pt x="1645" y="919" on="0"/>
        <pt x="1424" y="1188" on="0"/>
        <pt x="1424" y="1369" on="1"/>
        <pt x="1424" y="1581" on="0"/>
        <pt x="1753" y="1847" on="0"/>
        <pt x="2039" y="1847" on="1"/>
        <pt x="2265" y="1847" on="0"/>
        <pt x="2590" y="1674" on="0"/>
        <pt x="2753" y="1362" on="0"/>
        <pt x="2753" y="1060" on="1"/>
        <pt x="2753" y="105" on="1"/>
        <pt x="2451" y="105" on="1"/>
        <pt x="2451" y="967" on="1"/>
        <pt x="2451" y="1174" on="0"/>
        <pt x="2404" y="1407" on="0"/>
        <pt x="2288" y="1558" on="0"/>
        <pt x="2122" y="1624" on="0"/>
        <pt x="2019" y="1624" on="1"/>
        <pt x="1865" y="1624" on="0"/>
        <pt x="1702" y="1473" on="0"/>
        <pt x="1702" y="1364" on="1"/>
        <pt x="1702" y="1221" on="0"/>
      </contour>
      <contour>
        <pt x="362" y="545" on="1"/>
        <pt x="369" y="423" on="0"/>
        <pt x="474" y="289" on="0"/>
        <pt x="562" y="289" on="1"/>
        <pt x="625" y="289" on="0"/>
        <pt x="699" y="374" on="0"/>
        <pt x="699" y="447" on="1"/>
        <pt x="699" y="522" on="0"/>
        <pt x="610" y="611" on="0"/>
        <pt x="539" y="611" on="1"/>
        <pt x="452" y="611" on="0"/>
      </contour>
    </TTGlyph>
    <TTGlyph name="laprehalftamil" xMin="95" yMin="81" xMax="2179" yMax="1847">
      <component glyphName="latamil" x="0" y="0" flags="0x204"/>
      <component glyphName="viramatamil" x="1717" y="0" flags="0x4"/>
    </TTGlyph>
    <TTGlyph name="latamil" xMin="95" yMin="81" xMax="2179" yMax="1355">
      <contour>
        <pt x="390" y="767" on="1"/>
        <pt x="497" y="816" on="0"/>
        <pt x="615" y="816" on="1"/>
        <pt x="784" y="816" on="0"/>
        <pt x="982" y="626" on="0"/>
        <pt x="982" y="462" on="1"/>
        <pt x="982" y="281" on="0"/>
        <pt x="764" y="81" on="0"/>
        <pt x="564" y="81" on="1"/>
        <pt x="340" y="81" on="0"/>
        <pt x="95" y="354" on="0"/>
        <pt x="95" y="612" on="1"/>
        <pt x="95" y="807" on="0"/>
        <pt x="280" y="1110" on="0"/>
        <pt x="623" y="1279" on="0"/>
        <pt x="833" y="1279" on="1"/>
        <pt x="968" y="1279" on="0"/>
        <pt x="1169" y="1227" on="0"/>
        <pt x="1325" y="1115" on="0"/>
        <pt x="1408" y="973" on="0"/>
        <pt x="1452" y="758" on="0"/>
        <pt x="1461" y="587" on="1"/>
        <pt x="1470" y="424" on="0"/>
        <pt x="1572" y="298" on="0"/>
        <pt x="1666" y="298" on="1"/>
        <pt x="1775" y="298" on="0"/>
        <pt x="1877" y="455" on="0"/>
        <pt x="1877" y="619" on="1"/>
        <pt x="1877" y="761" on="0"/>
        <pt x="1761" y="1073" on="0"/>
        <pt x="1654" y="1204" on="1"/>
        <pt x="1903" y="1355" on="1"/>
        <pt x="2179" y="1021" on="0"/>
        <pt x="2179" y="632" on="1"/>
        <pt x="2179" y="371" on="0"/>
        <pt x="1909" y="81" on="0"/>
        <pt x="1658" y="81" on="1"/>
        <pt x="1415" y="81" on="0"/>
        <pt x="1173" y="328" on="0"/>
        <pt x="1157" y="581" on="1"/>
        <pt x="1148" y="716" on="0"/>
        <pt x="1118" y="876" on="0"/>
        <pt x="1044" y="990" on="0"/>
        <pt x="911" y="1057" on="0"/>
        <pt x="806" y="1057" on="1"/>
        <pt x="655" y="1057" on="0"/>
        <pt x="437" y="905" on="0"/>
      </contour>
      <contour>
        <pt x="362" y="545" on="1"/>
        <pt x="369" y="423" on="0"/>
        <pt x="474" y="289" on="0"/>
        <pt x="562" y="289" on="1"/>
        <pt x="625" y="289" on="0"/>
        <pt x="699" y="374" on="0"/>
        <pt x="699" y="447" on="1"/>
        <pt x="699" y="522" on="0"/>
        <pt x="610" y="611" on="0"/>
        <pt x="539" y="611" on="1"/>
        <pt x="452" y="611" on="0"/>
      </contour>
      <contour>
        <pt x="1464" y="1255" on="1"/>
      </contour>
    </TTGlyph>
    <TTGlyph name="lauuvowelsigntamil" xMin="67" yMin="-553" xMax="3643" yMax="1355">
      <contour>
        <pt x="2747" y="-239" on="1"/>
        <pt x="1659" y="-239" on="1"/>
        <pt x="1514" y="-394" on="0"/>
        <pt x="1045" y="-553" on="0"/>
        <pt x="739" y="-553" on="1"/>
        <pt x="719" y="-553" on="1"/>
        <pt x="400" y="-553" on="0"/>
        <pt x="67" y="-382" on="0"/>
        <pt x="67" y="-217" on="1"/>
        <pt x="67" y="-144" on="0"/>
        <pt x="138" y="-57" on="0"/>
        <pt x="253" y="-22" on="0"/>
        <pt x="391" y="-22" on="1"/>
        <pt x="1464" y="-22" on="1"/>
        <pt x="1493" y="39" on="0"/>
        <pt x="1506" y="96" on="1"/>
        <pt x="1343" y="129" on="0"/>
        <pt x="1170" y="369" on="0"/>
        <pt x="1157" y="581" on="1"/>
        <pt x="1148" y="716" on="0"/>
        <pt x="1118" y="876" on="0"/>
        <pt x="1044" y="990" on="0"/>
        <pt x="911" y="1057" on="0"/>
        <pt x="806" y="1057" on="1"/>
        <pt x="655" y="1057" on="0"/>
        <pt x="437" y="905" on="0"/>
        <pt x="390" y="767" on="1"/>
        <pt x="497" y="816" on="0"/>
        <pt x="615" y="816" on="1"/>
        <pt x="784" y="816" on="0"/>
        <pt x="982" y="626" on="0"/>
        <pt x="982" y="462" on="1"/>
        <pt x="982" y="281" on="0"/>
        <pt x="764" y="81" on="0"/>
        <pt x="564" y="81" on="1"/>
        <pt x="340" y="81" on="0"/>
        <pt x="95" y="354" on="0"/>
        <pt x="95" y="612" on="1"/>
        <pt x="95" y="807" on="0"/>
        <pt x="280" y="1110" on="0"/>
        <pt x="623" y="1279" on="0"/>
        <pt x="833" y="1279" on="1"/>
        <pt x="968" y="1279" on="0"/>
        <pt x="1169" y="1227" on="0"/>
        <pt x="1325" y="1115" on="0"/>
        <pt x="1408" y="973" on="0"/>
        <pt x="1452" y="758" on="0"/>
        <pt x="1461" y="587" on="1"/>
        <pt x="1470" y="424" on="0"/>
        <pt x="1572" y="298" on="0"/>
        <pt x="1666" y="298" on="1"/>
        <pt x="1775" y="298" on="0"/>
        <pt x="1877" y="455" on="0"/>
        <pt x="1877" y="619" on="1"/>
        <pt x="1877" y="761" on="0"/>
        <pt x="1761" y="1073" on="0"/>
        <pt x="1654" y="1204" on="1"/>
        <pt x="1903" y="1355" on="1"/>
        <pt x="2179" y="1021" on="0"/>
        <pt x="2179" y="632" on="1"/>
        <pt x="2179" y="412" on="0"/>
        <pt x="1986" y="134" on="0"/>
        <pt x="1802" y="95" on="1"/>
        <pt x="1789" y="37" on="0"/>
        <pt x="1766" y="-22" on="1"/>
        <pt x="2445" y="-22" on="1"/>
        <pt x="2445" y="1255" on="1"/>
        <pt x="3643" y="1255" on="1"/>
        <pt x="3643" y="1038" on="1"/>
        <pt x="3357" y="1038" on="1"/>
        <pt x="3357" y="-240" on="1"/>
        <pt x="3055" y="-240" on="1"/>
        <pt x="3055" y="1038" on="1"/>
        <pt x="2747" y="1038" on="1"/>
      </contour>
      <contour>
        <pt x="362" y="545" on="1"/>
        <pt x="369" y="423" on="0"/>
        <pt x="474" y="289" on="0"/>
        <pt x="562" y="289" on="1"/>
        <pt x="625" y="289" on="0"/>
        <pt x="699" y="374" on="0"/>
        <pt x="699" y="447" on="1"/>
        <pt x="699" y="522" on="0"/>
        <pt x="610" y="611" on="0"/>
        <pt x="539" y="611" on="1"/>
        <pt x="452" y="611" on="0"/>
      </contour>
      <contour>
        <pt x="723" y="-350" on="1"/>
        <pt x="945" y="-350" on="0"/>
        <pt x="1254" y="-285" on="0"/>
        <pt x="1342" y="-221" on="1"/>
        <pt x="419" y="-221" on="1"/>
        <pt x="372" y="-221" on="0"/>
        <pt x="340" y="-237" on="0"/>
        <pt x="340" y="-255" on="1"/>
        <pt x="340" y="-300" on="0"/>
        <pt x="519" y="-350" on="0"/>
        <pt x="700" y="-350" on="1"/>
      </contour>
    </TTGlyph>
    <TTGlyph name="lauvowelsigntamil" xMin="67" yMin="-553" xMax="2747" yMax="1355">
      <contour>
        <pt x="2747" y="-239" on="1"/>
        <pt x="1659" y="-239" on="1"/>
        <pt x="1514" y="-394" on="0"/>
        <pt x="1045" y="-553" on="0"/>
        <pt x="739" y="-553" on="1"/>
        <pt x="719" y="-553" on="1"/>
        <pt x="400" y="-553" on="0"/>
        <pt x="67" y="-382" on="0"/>
        <pt x="67" y="-217" on="1"/>
        <pt x="67" y="-144" on="0"/>
        <pt x="138" y="-57" on="0"/>
        <pt x="253" y="-22" on="0"/>
        <pt x="391" y="-22" on="1"/>
        <pt x="1464" y="-22" on="1"/>
        <pt x="1493" y="39" on="0"/>
        <pt x="1506" y="96" on="1"/>
        <pt x="1343" y="129" on="0"/>
        <pt x="1170" y="369" on="0"/>
        <pt x="1157" y="581" on="1"/>
        <pt x="1148" y="716" on="0"/>
        <pt x="1118" y="876" on="0"/>
        <pt x="1044" y="990" on="0"/>
        <pt x="911" y="1057" on="0"/>
        <pt x="806" y="1057" on="1"/>
        <pt x="655" y="1057" on="0"/>
        <pt x="437" y="905" on="0"/>
        <pt x="390" y="767" on="1"/>
        <pt x="497" y="816" on="0"/>
        <pt x="615" y="816" on="1"/>
        <pt x="784" y="816" on="0"/>
        <pt x="982" y="626" on="0"/>
        <pt x="982" y="462" on="1"/>
        <pt x="982" y="281" on="0"/>
        <pt x="764" y="81" on="0"/>
        <pt x="564" y="81" on="1"/>
        <pt x="340" y="81" on="0"/>
        <pt x="95" y="354" on="0"/>
        <pt x="95" y="612" on="1"/>
        <pt x="95" y="807" on="0"/>
        <pt x="280" y="1110" on="0"/>
        <pt x="623" y="1279" on="0"/>
        <pt x="833" y="1279" on="1"/>
        <pt x="968" y="1279" on="0"/>
        <pt x="1169" y="1227" on="0"/>
        <pt x="1325" y="1115" on="0"/>
        <pt x="1408" y="973" on="0"/>
        <pt x="1452" y="758" on="0"/>
        <pt x="1461" y="587" on="1"/>
        <pt x="1470" y="424" on="0"/>
        <pt x="1572" y="298" on="0"/>
        <pt x="1666" y="298" on="1"/>
        <pt x="1775" y="298" on="0"/>
        <pt x="1877" y="455" on="0"/>
        <pt x="1877" y="619" on="1"/>
        <pt x="1877" y="761" on="0"/>
        <pt x="1761" y="1073" on="0"/>
        <pt x="1654" y="1204" on="1"/>
        <pt x="1903" y="1355" on="1"/>
        <pt x="2179" y="1021" on="0"/>
        <pt x="2179" y="632" on="1"/>
        <pt x="2179" y="412" on="0"/>
        <pt x="1986" y="134" on="0"/>
        <pt x="1802" y="95" on="1"/>
        <pt x="1789" y="37" on="0"/>
        <pt x="1766" y="-22" on="1"/>
        <pt x="2445" y="-22" on="1"/>
        <pt x="2445" y="1255" on="1"/>
        <pt x="2747" y="1255" on="1"/>
      </contour>
      <contour>
        <pt x="362" y="545" on="1"/>
        <pt x="369" y="423" on="0"/>
        <pt x="474" y="289" on="0"/>
        <pt x="562" y="289" on="1"/>
        <pt x="625" y="289" on="0"/>
        <pt x="699" y="374" on="0"/>
        <pt x="699" y="447" on="1"/>
        <pt x="699" y="522" on="0"/>
        <pt x="610" y="611" on="0"/>
        <pt x="539" y="611" on="1"/>
        <pt x="452" y="611" on="0"/>
      </contour>
      <contour>
        <pt x="723" y="-350" on="1"/>
        <pt x="945" y="-350" on="0"/>
        <pt x="1254" y="-285" on="0"/>
        <pt x="1342" y="-221" on="1"/>
        <pt x="419" y="-221" on="1"/>
        <pt x="372" y="-221" on="0"/>
        <pt x="340" y="-237" on="0"/>
        <pt x="340" y="-255" on="1"/>
        <pt x="340" y="-300" on="0"/>
        <pt x="519" y="-350" on="0"/>
        <pt x="700" y="-350" on="1"/>
      </contour>
    </TTGlyph>
    <TTGlyph name="less.tamil" xMin="88" yMin="105" xMax="1081" yMax="1565">
      <contour>
        <pt x="1081" y="308" on="1"/>
        <pt x="88" y="746" on="1"/>
        <pt x="88" y="889" on="1"/>
        <pt x="1081" y="1385" on="1"/>
        <pt x="1081" y="1145" on="1"/>
        <pt x="397" y="828" on="1"/>
        <pt x="1081" y="547" on="1"/>
      </contour>
      <contour>
        <pt x="597" y="105" on="1"/>
      </contour>
      <contour>
        <pt x="555" y="1565" on="1"/>
      </contour>
    </TTGlyph>
    <TTGlyph name="llaprehalftamil" xMin="95" yMin="81" xMax="2373" yMax="1847">
      <component glyphName="llatamil" x="0" y="0" flags="0x204"/>
      <component glyphName="viramatamil" x="1774" y="0" flags="0x4"/>
    </TTGlyph>
    <TTGlyph name="llatamil" xMin="95" yMin="81" xMax="2373" yMax="1279">
      <contour>
        <pt x="1165" y="891" on="1"/>
        <pt x="1007" y="1057" on="0"/>
        <pt x="786" y="1057" on="1"/>
        <pt x="647" y="1057" on="0"/>
        <pt x="437" y="904" on="0"/>
        <pt x="391" y="768" on="1"/>
        <pt x="496" y="816" on="0"/>
        <pt x="615" y="816" on="1"/>
        <pt x="784" y="816" on="0"/>
        <pt x="982" y="626" on="0"/>
        <pt x="982" y="462" on="1"/>
        <pt x="982" y="281" on="0"/>
        <pt x="764" y="81" on="0"/>
        <pt x="564" y="81" on="1"/>
        <pt x="340" y="81" on="0"/>
        <pt x="95" y="354" on="0"/>
        <pt x="95" y="612" on="1"/>
        <pt x="95" y="811" on="0"/>
        <pt x="276" y="1115" on="0"/>
        <pt x="601" y="1279" on="0"/>
        <pt x="800" y="1279" on="1"/>
        <pt x="918" y="1279" on="0"/>
        <pt x="1108" y="1227" on="0"/>
        <pt x="1208" y="1167" on="1"/>
        <pt x="1208" y="1255" on="1"/>
        <pt x="2373" y="1255" on="1"/>
        <pt x="2373" y="1038" on="1"/>
        <pt x="2077" y="1038" on="1"/>
        <pt x="2077" y="105" on="1"/>
        <pt x="1775" y="105" on="1"/>
        <pt x="1775" y="1038" on="1"/>
        <pt x="1467" y="1038" on="1"/>
        <pt x="1467" y="105" on="1"/>
        <pt x="1165" y="105" on="1"/>
      </contour>
      <contour>
        <pt x="362" y="546" on="1"/>
        <pt x="369" y="422" on="0"/>
        <pt x="474" y="289" on="0"/>
        <pt x="562" y="289" on="1"/>
        <pt x="625" y="289" on="0"/>
        <pt x="699" y="374" on="0"/>
        <pt x="699" y="447" on="1"/>
        <pt x="699" y="522" on="0"/>
        <pt x="610" y="611" on="0"/>
        <pt x="539" y="611" on="1"/>
        <pt x="451" y="611" on="0"/>
      </contour>
    </TTGlyph>
    <TTGlyph name="llauuvowelsigntamil" xMin="108" yMin="-553" xMax="3665" yMax="1279">
      <contour>
        <pt x="2107" y="902" on="1"/>
        <pt x="1951" y="1057" on="0"/>
        <pt x="1739" y="1057" on="1"/>
        <pt x="1600" y="1057" on="0"/>
        <pt x="1390" y="904" on="0"/>
        <pt x="1344" y="768" on="1"/>
        <pt x="1449" y="816" on="0"/>
        <pt x="1568" y="816" on="1"/>
        <pt x="1737" y="816" on="0"/>
        <pt x="1935" y="626" on="0"/>
        <pt x="1935" y="462" on="1"/>
        <pt x="1935" y="281" on="0"/>
        <pt x="1717" y="81" on="0"/>
        <pt x="1517" y="81" on="1"/>
        <pt x="1293" y="81" on="0"/>
        <pt x="1048" y="354" on="0"/>
        <pt x="1048" y="612" on="1"/>
        <pt x="1048" y="811" on="0"/>
        <pt x="1229" y="1115" on="0"/>
        <pt x="1554" y="1279" on="0"/>
        <pt x="1753" y="1279" on="1"/>
        <pt x="1860" y="1279" on="0"/>
        <pt x="2028" y="1240" on="0"/>
        <pt x="2107" y="1198" on="1"/>
        <pt x="2107" y="1255" on="1"/>
        <pt x="3315" y="1255" on="1"/>
        <pt x="3315" y="1038" on="1"/>
        <pt x="3019" y="1038" on="1"/>
        <pt x="3019" y="746" on="1"/>
        <pt x="3120" y="792" on="0"/>
        <pt x="3232" y="792" on="1"/>
        <pt x="3438" y="792" on="0"/>
        <pt x="3665" y="533" on="0"/>
        <pt x="3665" y="296" on="1"/>
        <pt x="3665" y="87" on="0"/>
        <pt x="3470" y="-207" on="0"/>
        <pt x="3083" y="-437" on="0"/>
        <pt x="2489" y="-553" on="0"/>
        <pt x="2115" y="-553" on="1"/>
        <pt x="1872" y="-553" on="1"/>
        <pt x="1317" y="-553" on="0"/>
        <pt x="518" y="-293" on="0"/>
        <pt x="108" y="224" on="0"/>
        <pt x="108" y="598" on="1"/>
        <pt x="108" y="914" on="0"/>
        <pt x="394" y="1279" on="0"/>
        <pt x="647" y="1279" on="1"/>
        <pt x="816" y="1279" on="0"/>
        <pt x="1003" y="1089" on="0"/>
        <pt x="1003" y="918" on="1"/>
        <pt x="1003" y="760" on="0"/>
        <pt x="807" y="579" on="0"/>
        <pt x="623" y="579" on="1"/>
        <pt x="490" y="579" on="0"/>
        <pt x="390" y="639" on="1"/>
        <pt x="389" y="606" on="1"/>
        <pt x="380" y="313" on="0"/>
        <pt x="730" y="-115" on="0"/>
        <pt x="1419" y="-330" on="0"/>
        <pt x="1886" y="-330" on="1"/>
        <pt x="2047" y="-330" on="1"/>
        <pt x="2405" y="-330" on="0"/>
        <pt x="2931" y="-225" on="0"/>
        <pt x="3238" y="-37" on="0"/>
        <pt x="3363" y="176" on="0"/>
        <pt x="3363" y="309" on="1"/>
        <pt x="3363" y="432" on="0"/>
        <pt x="3255" y="575" on="0"/>
        <pt x="3158" y="575" on="1"/>
        <pt x="3086" y="575" on="0"/>
        <pt x="3019" y="534" on="1"/>
        <pt x="3019" y="105" on="1"/>
        <pt x="2717" y="105" on="1"/>
        <pt x="2717" y="1038" on="1"/>
        <pt x="2409" y="1038" on="1"/>
        <pt x="2409" y="105" on="1"/>
        <pt x="2107" y="105" on="1"/>
      </contour>
      <contour>
        <pt x="422" y="862" on="1"/>
        <pt x="499" y="797" on="0"/>
        <pt x="589" y="797" on="1"/>
        <pt x="655" y="797" on="0"/>
        <pt x="738" y="871" on="0"/>
        <pt x="738" y="938" on="1"/>
        <pt x="738" y="1002" on="0"/>
        <pt x="678" y="1070" on="0"/>
        <pt x="624" y="1070" on="1"/>
        <pt x="555" y="1070" on="0"/>
        <pt x="451" y="965" on="0"/>
      </contour>
      <contour>
        <pt x="1315" y="546" on="1"/>
        <pt x="1322" y="422" on="0"/>
        <pt x="1427" y="289" on="0"/>
        <pt x="1515" y="289" on="1"/>
        <pt x="1578" y="289" on="0"/>
        <pt x="1652" y="374" on="0"/>
        <pt x="1652" y="447" on="1"/>
        <pt x="1652" y="522" on="0"/>
        <pt x="1563" y="611" on="0"/>
        <pt x="1492" y="611" on="1"/>
        <pt x="1404" y="611" on="0"/>
      </contour>
    </TTGlyph>
    <TTGlyph name="llauvowelsigntamil" xMin="115" yMin="-553" xMax="3296" yMax="1279">
      <contour>
        <pt x="1738" y="902" on="1"/>
        <pt x="1582" y="1057" on="0"/>
        <pt x="1370" y="1057" on="1"/>
        <pt x="1231" y="1057" on="0"/>
        <pt x="1021" y="904" on="0"/>
        <pt x="975" y="768" on="1"/>
        <pt x="1080" y="816" on="0"/>
        <pt x="1199" y="816" on="1"/>
        <pt x="1368" y="816" on="0"/>
        <pt x="1566" y="626" on="0"/>
        <pt x="1566" y="462" on="1"/>
        <pt x="1566" y="281" on="0"/>
        <pt x="1348" y="81" on="0"/>
        <pt x="1148" y="81" on="1"/>
        <pt x="924" y="81" on="0"/>
        <pt x="679" y="354" on="0"/>
        <pt x="679" y="612" on="1"/>
        <pt x="679" y="811" on="0"/>
        <pt x="860" y="1115" on="0"/>
        <pt x="1185" y="1279" on="0"/>
        <pt x="1384" y="1279" on="1"/>
        <pt x="1491" y="1279" on="0"/>
        <pt x="1659" y="1240" on="0"/>
        <pt x="1738" y="1198" on="1"/>
        <pt x="1738" y="1255" on="1"/>
        <pt x="2946" y="1255" on="1"/>
        <pt x="2946" y="1038" on="1"/>
        <pt x="2650" y="1038" on="1"/>
        <pt x="2650" y="746" on="1"/>
        <pt x="2751" y="792" on="0"/>
        <pt x="2863" y="792" on="1"/>
        <pt x="3069" y="792" on="0"/>
        <pt x="3296" y="533" on="0"/>
        <pt x="3296" y="296" on="1"/>
        <pt x="3296" y="30" on="0"/>
        <pt x="2929" y="-361" on="0"/>
        <pt x="2228" y="-553" on="0"/>
        <pt x="1743" y="-553" on="1"/>
        <pt x="1631" y="-553" on="1"/>
        <pt x="897" y="-553" on="0"/>
        <pt x="115" y="-63" on="0"/>
        <pt x="115" y="416" on="1"/>
        <pt x="115" y="448" on="1"/>
        <pt x="115" y="639" on="0"/>
        <pt x="229" y="1014" on="0"/>
        <pt x="380" y="1279" on="1"/>
        <pt x="617" y="1143" on="1"/>
        <pt x="504" y="952" on="0"/>
        <pt x="401" y="630" on="0"/>
        <pt x="401" y="460" on="1"/>
        <pt x="401" y="423" on="1"/>
        <pt x="401" y="177" on="0"/>
        <pt x="691" y="-163" on="0"/>
        <pt x="1268" y="-330" on="0"/>
        <pt x="1659" y="-330" on="1"/>
        <pt x="1745" y="-330" on="1"/>
        <pt x="1966" y="-330" on="0"/>
        <pt x="2373" y="-275" on="0"/>
        <pt x="2694" y="-166" on="0"/>
        <pt x="2900" y="-2" on="0"/>
        <pt x="2994" y="186" on="0"/>
        <pt x="2994" y="309" on="1"/>
        <pt x="2994" y="432" on="0"/>
        <pt x="2886" y="575" on="0"/>
        <pt x="2789" y="575" on="1"/>
        <pt x="2717" y="575" on="0"/>
        <pt x="2650" y="534" on="1"/>
        <pt x="2650" y="105" on="1"/>
        <pt x="2348" y="105" on="1"/>
        <pt x="2348" y="1038" on="1"/>
        <pt x="2040" y="1038" on="1"/>
        <pt x="2040" y="105" on="1"/>
        <pt x="1738" y="105" on="1"/>
      </contour>
      <contour>
        <pt x="946" y="546" on="1"/>
        <pt x="953" y="422" on="0"/>
        <pt x="1058" y="289" on="0"/>
        <pt x="1146" y="289" on="1"/>
        <pt x="1209" y="289" on="0"/>
        <pt x="1283" y="374" on="0"/>
        <pt x="1283" y="447" on="1"/>
        <pt x="1283" y="522" on="0"/>
        <pt x="1194" y="611" on="0"/>
        <pt x="1123" y="611" on="1"/>
        <pt x="1035" y="611" on="0"/>
      </contour>
    </TTGlyph>
    <TTGlyph name="lllaprehalftamil" xMin="99" yMin="-553" xMax="1814" yMax="1847">
      <component glyphName="lllatamil" x="0" y="0" flags="0x204"/>
      <component glyphName="viramatamil" x="1534" y="0" flags="0x4"/>
    </TTGlyph>
    <TTGlyph name="lllatamil" xMin="99" yMin="-553" xMax="1814" yMax="1279">
      <contour>
        <pt x="1218" y="-269" on="1"/>
        <pt x="1145" y="-414" on="0"/>
        <pt x="864" y="-553" on="0"/>
        <pt x="638" y="-553" on="1"/>
        <pt x="563" y="-553" on="1"/>
        <pt x="430" y="-553" on="0"/>
        <pt x="207" y="-482" on="0"/>
        <pt x="99" y="-346" on="0"/>
        <pt x="99" y="-258" on="1"/>
        <pt x="99" y="-131" on="0"/>
        <pt x="294" y="15" on="0"/>
        <pt x="467" y="15" on="1"/>
        <pt x="557" y="15" on="0"/>
        <pt x="633" y="0" on="1"/>
        <pt x="618" y="-200" on="1"/>
        <pt x="578" y="-194" on="0"/>
        <pt x="507" y="-194" on="1"/>
        <pt x="448" y="-194" on="0"/>
        <pt x="380" y="-229" on="0"/>
        <pt x="380" y="-261" on="1"/>
        <pt x="380" y="-342" on="0"/>
        <pt x="560" y="-342" on="1"/>
        <pt x="615" y="-342" on="1"/>
        <pt x="740" y="-342" on="0"/>
        <pt x="907" y="-257" on="0"/>
        <pt x="958" y="-166" on="1"/>
        <pt x="850" y="-73" on="0"/>
        <pt x="845" y="105" on="1"/>
        <pt x="164" y="105" on="1"/>
        <pt x="164" y="1255" on="1"/>
        <pt x="466" y="1255" on="1"/>
        <pt x="466" y="322" on="1"/>
        <pt x="845" y="322" on="1"/>
        <pt x="845" y="832" on="1"/>
        <pt x="845" y="1004" on="0"/>
        <pt x="949" y="1191" on="0"/>
        <pt x="1142" y="1279" on="0"/>
        <pt x="1275" y="1279" on="1"/>
        <pt x="1535" y="1279" on="0"/>
        <pt x="1814" y="951" on="0"/>
        <pt x="1814" y="657" on="1"/>
        <pt x="1814" y="499" on="0"/>
        <pt x="1740" y="291" on="0"/>
        <pt x="1583" y="160" on="0"/>
        <pt x="1355" y="105" on="0"/>
        <pt x="1138" y="105" on="1"/>
        <pt x="1139" y="59" on="0"/>
        <pt x="1170" y="-9" on="0"/>
        <pt x="1230" y="-41" on="0"/>
        <pt x="1297" y="-53" on="0"/>
        <pt x="1366" y="-53" on="1"/>
        <pt x="1598" y="-53" on="1"/>
        <pt x="1598" y="-269" on="1"/>
      </contour>
      <contour>
        <pt x="1147" y="322" on="1"/>
        <pt x="1226" y="322" on="1"/>
        <pt x="1387" y="322" on="0"/>
        <pt x="1512" y="467" on="0"/>
        <pt x="1512" y="657" on="1"/>
        <pt x="1512" y="856" on="0"/>
        <pt x="1402" y="1063" on="0"/>
        <pt x="1297" y="1063" on="1"/>
        <pt x="1242" y="1063" on="0"/>
        <pt x="1173" y="1003" on="0"/>
        <pt x="1147" y="905" on="0"/>
        <pt x="1147" y="801" on="1"/>
      </contour>
    </TTGlyph>
    <TTGlyph name="lllauuvowelsigntamil" xMin="108" yMin="-553" xMax="2765" yMax="1279">
      <contour>
        <pt x="2088" y="105" on="1"/>
        <pt x="2088" y="20" on="1"/>
        <pt x="2181" y="47" on="0"/>
        <pt x="2266" y="47" on="1"/>
        <pt x="2404" y="47" on="0"/>
        <pt x="2561" y="-77" on="0"/>
        <pt x="2561" y="-193" on="1"/>
        <pt x="2561" y="-361" on="0"/>
        <pt x="2185" y="-553" on="0"/>
        <pt x="1764" y="-553" on="1"/>
        <pt x="1630" y="-553" on="1"/>
        <pt x="904" y="-553" on="0"/>
        <pt x="108" y="10" on="0"/>
        <pt x="108" y="598" on="1"/>
        <pt x="108" y="916" on="0"/>
        <pt x="384" y="1279" on="0"/>
        <pt x="634" y="1279" on="1"/>
        <pt x="810" y="1279" on="0"/>
        <pt x="1003" y="1090" on="0"/>
        <pt x="1003" y="918" on="1"/>
        <pt x="1003" y="760" on="0"/>
        <pt x="807" y="579" on="0"/>
        <pt x="623" y="579" on="1"/>
        <pt x="490" y="579" on="0"/>
        <pt x="390" y="639" on="1"/>
        <pt x="389" y="606" on="1"/>
        <pt x="383" y="412" on="0"/>
        <pt x="506" y="67" on="0"/>
        <pt x="807" y="-194" on="0"/>
        <pt x="1300" y="-330" on="0"/>
        <pt x="1686" y="-330" on="1"/>
        <pt x="1776" y="-330" on="1"/>
        <pt x="2006" y="-330" on="0"/>
        <pt x="2283" y="-268" on="0"/>
        <pt x="2283" y="-201" on="1"/>
        <pt x="2283" y="-172" on="0"/>
        <pt x="2239" y="-142" on="0"/>
        <pt x="2202" y="-142" on="1"/>
        <pt x="2145" y="-142" on="0"/>
        <pt x="2088" y="-161" on="1"/>
        <pt x="2088" y="-216" on="1"/>
        <pt x="1796" y="-216" on="1"/>
        <pt x="1796" y="105" on="1"/>
        <pt x="1115" y="105" on="1"/>
        <pt x="1115" y="1255" on="1"/>
        <pt x="1417" y="1255" on="1"/>
        <pt x="1417" y="322" on="1"/>
        <pt x="1796" y="322" on="1"/>
        <pt x="1796" y="832" on="1"/>
        <pt x="1796" y="1001" on="0"/>
        <pt x="1896" y="1187" on="0"/>
        <pt x="2089" y="1279" on="0"/>
        <pt x="2226" y="1279" on="1"/>
        <pt x="2486" y="1279" on="0"/>
        <pt x="2765" y="951" on="0"/>
        <pt x="2765" y="657" on="1"/>
        <pt x="2765" y="500" on="0"/>
        <pt x="2692" y="293" on="0"/>
        <pt x="2535" y="160" on="0"/>
        <pt x="2310" y="105" on="0"/>
        <pt x="2098" y="105" on="1"/>
      </contour>
      <contour>
        <pt x="422" y="862" on="1"/>
        <pt x="499" y="797" on="0"/>
        <pt x="589" y="797" on="1"/>
        <pt x="655" y="797" on="0"/>
        <pt x="738" y="871" on="0"/>
        <pt x="738" y="939" on="1"/>
        <pt x="738" y="1003" on="0"/>
        <pt x="678" y="1071" on="0"/>
        <pt x="624" y="1071" on="1"/>
        <pt x="555" y="1071" on="0"/>
        <pt x="451" y="966" on="0"/>
      </contour>
      <contour>
        <pt x="2098" y="322" on="1"/>
        <pt x="2177" y="322" on="1"/>
        <pt x="2338" y="322" on="0"/>
        <pt x="2463" y="467" on="0"/>
        <pt x="2463" y="657" on="1"/>
        <pt x="2463" y="856" on="0"/>
        <pt x="2353" y="1063" on="0"/>
        <pt x="2248" y="1063" on="1"/>
        <pt x="2193" y="1063" on="0"/>
        <pt x="2124" y="1003" on="0"/>
        <pt x="2098" y="905" on="0"/>
        <pt x="2098" y="801" on="1"/>
      </contour>
    </TTGlyph>
    <TTGlyph name="lllauvowelsigntamil" xMin="115" yMin="-553" xMax="2412" yMax="1279">
      <contour>
        <pt x="1735" y="105" on="1"/>
        <pt x="1735" y="20" on="1"/>
        <pt x="1828" y="47" on="0"/>
        <pt x="1911" y="47" on="1"/>
        <pt x="2050" y="47" on="0"/>
        <pt x="2208" y="-77" on="0"/>
        <pt x="2208" y="-193" on="1"/>
        <pt x="2208" y="-364" on="0"/>
        <pt x="1824" y="-553" on="0"/>
        <pt x="1420" y="-553" on="1"/>
        <pt x="1338" y="-553" on="1"/>
        <pt x="946" y="-553" on="0"/>
        <pt x="395" y="-346" on="0"/>
        <pt x="115" y="81" on="0"/>
        <pt x="115" y="392" on="1"/>
        <pt x="115" y="422" on="1"/>
        <pt x="115" y="640" on="0"/>
        <pt x="247" y="1056" on="0"/>
        <pt x="396" y="1279" on="1"/>
        <pt x="633" y="1143" on="1"/>
        <pt x="513" y="958" on="0"/>
        <pt x="401" y="614" on="0"/>
        <pt x="401" y="425" on="1"/>
        <pt x="401" y="395" on="1"/>
        <pt x="401" y="157" on="0"/>
        <pt x="593" y="-163" on="0"/>
        <pt x="999" y="-330" on="0"/>
        <pt x="1363" y="-330" on="1"/>
        <pt x="1434" y="-330" on="1"/>
        <pt x="1648" y="-330" on="0"/>
        <pt x="1930" y="-269" on="0"/>
        <pt x="1930" y="-200" on="1"/>
        <pt x="1930" y="-172" on="0"/>
        <pt x="1886" y="-142" on="0"/>
        <pt x="1849" y="-142" on="1"/>
        <pt x="1792" y="-142" on="0"/>
        <pt x="1735" y="-161" on="1"/>
        <pt x="1735" y="-216" on="1"/>
        <pt x="1443" y="-216" on="1"/>
        <pt x="1443" y="105" on="1"/>
        <pt x="762" y="105" on="1"/>
        <pt x="762" y="1255" on="1"/>
        <pt x="1064" y="1255" on="1"/>
        <pt x="1064" y="322" on="1"/>
        <pt x="1443" y="322" on="1"/>
        <pt x="1443" y="832" on="1"/>
        <pt x="1443" y="1001" on="0"/>
        <pt x="1543" y="1187" on="0"/>
        <pt x="1736" y="1279" on="0"/>
        <pt x="1873" y="1279" on="1"/>
        <pt x="2133" y="1279" on="0"/>
        <pt x="2412" y="951" on="0"/>
        <pt x="2412" y="657" on="1"/>
        <pt x="2412" y="500" on="0"/>
        <pt x="2339" y="293" on="0"/>
        <pt x="2182" y="160" on="0"/>
        <pt x="1957" y="105" on="0"/>
        <pt x="1745" y="105" on="1"/>
      </contour>
      <contour>
        <pt x="1745" y="322" on="1"/>
        <pt x="1824" y="322" on="1"/>
        <pt x="1985" y="322" on="0"/>
        <pt x="2110" y="467" on="0"/>
        <pt x="2110" y="657" on="1"/>
        <pt x="2110" y="856" on="0"/>
        <pt x="2000" y="1063" on="0"/>
        <pt x="1895" y="1063" on="1"/>
        <pt x="1840" y="1063" on="0"/>
        <pt x="1771" y="1003" on="0"/>
        <pt x="1745" y="905" on="0"/>
        <pt x="1745" y="801" on="1"/>
      </contour>
    </TTGlyph>
    <TTGlyph name="maprehalftamil" xMin="164" yMin="105" xMax="1814" yMax="1847">
      <component glyphName="matamil" x="0" y="0" flags="0x204"/>
      <component glyphName="viramatamil" x="1535" y="0" flags="0x4"/>
    </TTGlyph>
    <TTGlyph name="matamil" xMin="164" yMin="105" xMax="1814" yMax="1279">
      <contour>
        <pt x="164" y="105" on="1"/>
        <pt x="164" y="1255" on="1"/>
        <pt x="466" y="1255" on="1"/>
        <pt x="466" y="322" on="1"/>
        <pt x="845" y="322" on="1"/>
        <pt x="845" y="832" on="1"/>
        <pt x="845" y="1001" on="0"/>
        <pt x="945" y="1187" on="0"/>
        <pt x="1138" y="1279" on="0"/>
        <pt x="1275" y="1279" on="1"/>
        <pt x="1535" y="1279" on="0"/>
        <pt x="1814" y="951" on="0"/>
        <pt x="1814" y="657" on="1"/>
        <pt x="1814" y="492" on="0"/>
        <pt x="1738" y="292" on="0"/>
        <pt x="1592" y="165" on="0"/>
        <pt x="1365" y="105" on="0"/>
        <pt x="1134" y="105" on="1"/>
      </contour>
      <contour>
        <pt x="1147" y="322" on="1"/>
        <pt x="1226" y="322" on="1"/>
        <pt x="1387" y="322" on="0"/>
        <pt x="1512" y="467" on="0"/>
        <pt x="1512" y="657" on="1"/>
        <pt x="1512" y="856" on="0"/>
        <pt x="1402" y="1063" on="0"/>
        <pt x="1297" y="1063" on="1"/>
        <pt x="1242" y="1063" on="0"/>
        <pt x="1173" y="1003" on="0"/>
        <pt x="1147" y="905" on="0"/>
        <pt x="1147" y="801" on="1"/>
      </contour>
    </TTGlyph>
    <TTGlyph name="mauuvowelsigntamil" xMin="108" yMin="-553" xMax="2765" yMax="1279">
      <contour>
        <pt x="390" y="639" on="1"/>
        <pt x="389" y="606" on="1"/>
        <pt x="382" y="355" on="0"/>
        <pt x="573" y="-54" on="0"/>
        <pt x="986" y="-284" on="0"/>
        <pt x="1275" y="-284" on="1"/>
        <pt x="1504" y="-284" on="0"/>
        <pt x="1758" y="-96" on="0"/>
        <pt x="1794" y="105" on="1"/>
        <pt x="1115" y="105" on="1"/>
        <pt x="1115" y="1255" on="1"/>
        <pt x="1417" y="1255" on="1"/>
        <pt x="1417" y="322" on="1"/>
        <pt x="1796" y="322" on="1"/>
        <pt x="1796" y="832" on="1"/>
        <pt x="1796" y="1001" on="0"/>
        <pt x="1896" y="1187" on="0"/>
        <pt x="2089" y="1279" on="0"/>
        <pt x="2226" y="1279" on="1"/>
        <pt x="2486" y="1279" on="0"/>
        <pt x="2765" y="951" on="0"/>
        <pt x="2765" y="657" on="1"/>
        <pt x="2765" y="493" on="0"/>
        <pt x="2689" y="293" on="0"/>
        <pt x="2544" y="165" on="0"/>
        <pt x="2318" y="105" on="0"/>
        <pt x="2089" y="105" on="1"/>
        <pt x="2043" y="-197" on="0"/>
        <pt x="1626" y="-507" on="0"/>
        <pt x="1268" y="-507" on="1"/>
        <pt x="914" y="-507" on="0"/>
        <pt x="387" y="-245" on="0"/>
        <pt x="108" y="251" on="0"/>
        <pt x="108" y="587" on="1"/>
        <pt x="108" y="911" on="0"/>
        <pt x="382" y="1279" on="0"/>
        <pt x="629" y="1279" on="1"/>
        <pt x="809" y="1279" on="0"/>
        <pt x="1003" y="1092" on="0"/>
        <pt x="1003" y="918" on="1"/>
        <pt x="1003" y="760" on="0"/>
        <pt x="807" y="579" on="0"/>
        <pt x="623" y="579" on="1"/>
        <pt x="490" y="579" on="0"/>
      </contour>
      <contour>
        <pt x="422" y="862" on="1"/>
        <pt x="499" y="797" on="0"/>
        <pt x="589" y="797" on="1"/>
        <pt x="655" y="797" on="0"/>
        <pt x="738" y="871" on="0"/>
        <pt x="738" y="939" on="1"/>
        <pt x="738" y="1003" on="0"/>
        <pt x="678" y="1071" on="0"/>
        <pt x="624" y="1071" on="1"/>
        <pt x="555" y="1071" on="0"/>
        <pt x="451" y="965" on="0"/>
      </contour>
      <contour>
        <pt x="2098" y="322" on="1"/>
        <pt x="2177" y="322" on="1"/>
        <pt x="2338" y="322" on="0"/>
        <pt x="2463" y="467" on="0"/>
        <pt x="2463" y="657" on="1"/>
        <pt x="2463" y="856" on="0"/>
        <pt x="2353" y="1063" on="0"/>
        <pt x="2248" y="1063" on="1"/>
        <pt x="2193" y="1063" on="0"/>
        <pt x="2124" y="1003" on="0"/>
        <pt x="2098" y="905" on="0"/>
        <pt x="2098" y="801" on="1"/>
      </contour>
      <contour>
        <pt x="1286" y="-553" on="1"/>
      </contour>
    </TTGlyph>
    <TTGlyph name="mauvowelsigntamil" xMin="115" yMin="-553" xMax="2412" yMax="1279">
      <contour>
        <pt x="1441" y="105" on="1"/>
        <pt x="762" y="105" on="1"/>
        <pt x="762" y="1255" on="1"/>
        <pt x="1064" y="1255" on="1"/>
        <pt x="1064" y="322" on="1"/>
        <pt x="1443" y="322" on="1"/>
        <pt x="1443" y="832" on="1"/>
        <pt x="1443" y="1001" on="0"/>
        <pt x="1543" y="1187" on="0"/>
        <pt x="1736" y="1279" on="0"/>
        <pt x="1873" y="1279" on="1"/>
        <pt x="2133" y="1279" on="0"/>
        <pt x="2412" y="951" on="0"/>
        <pt x="2412" y="657" on="1"/>
        <pt x="2412" y="493" on="0"/>
        <pt x="2336" y="293" on="0"/>
        <pt x="2191" y="165" on="0"/>
        <pt x="1965" y="105" on="0"/>
        <pt x="1736" y="105" on="1"/>
        <pt x="1690" y="-194" on="0"/>
        <pt x="1285" y="-507" on="0"/>
        <pt x="948" y="-507" on="1"/>
        <pt x="687" y="-507" on="0"/>
        <pt x="312" y="-292" on="0"/>
        <pt x="115" y="117" on="0"/>
        <pt x="115" y="391" on="1"/>
        <pt x="115" y="420" on="1"/>
        <pt x="115" y="626" on="0"/>
        <pt x="266" y="1081" on="0"/>
        <pt x="396" y="1279" on="1"/>
        <pt x="633" y="1143" on="1"/>
        <pt x="521" y="975" on="0"/>
        <pt x="394" y="576" on="0"/>
        <pt x="394" y="394" on="1"/>
        <pt x="394" y="364" on="1"/>
        <pt x="394" y="51" on="0"/>
        <pt x="682" y="-284" on="0"/>
        <pt x="959" y="-284" on="1"/>
        <pt x="1163" y="-284" on="0"/>
        <pt x="1404" y="-95" on="0"/>
      </contour>
      <contour>
        <pt x="1745" y="322" on="1"/>
        <pt x="1824" y="322" on="1"/>
        <pt x="1985" y="322" on="0"/>
        <pt x="2110" y="467" on="0"/>
        <pt x="2110" y="657" on="1"/>
        <pt x="2110" y="856" on="0"/>
        <pt x="2000" y="1063" on="0"/>
        <pt x="1895" y="1063" on="1"/>
        <pt x="1840" y="1063" on="0"/>
        <pt x="1771" y="1003" on="0"/>
        <pt x="1745" y="905" on="0"/>
        <pt x="1745" y="801" on="1"/>
      </contour>
      <contour>
        <pt x="986" y="-553" on="1"/>
      </contour>
    </TTGlyph>
    <TTGlyph name="minus.tamil" xMin="88" yMin="105" xMax="1081" yMax="1565">
      <contour>
        <pt x="88" y="717" on="1"/>
        <pt x="88" y="936" on="1"/>
        <pt x="1081" y="936" on="1"/>
        <pt x="1081" y="717" on="1"/>
      </contour>
      <contour>
        <pt x="597" y="105" on="1"/>
      </contour>
      <contour>
        <pt x="555" y="1565" on="1"/>
      </contour>
    </TTGlyph>
    <TTGlyph name="monthsigntamil" xMin="164" yMin="105" xMax="2799" yMax="1847">
      <contour>
        <pt x="466" y="322" on="1"/>
        <pt x="845" y="322" on="1"/>
        <pt x="845" y="832" on="1"/>
        <pt x="845" y="1001" on="0"/>
        <pt x="945" y="1187" on="0"/>
        <pt x="1138" y="1279" on="0"/>
        <pt x="1275" y="1279" on="1"/>
        <pt x="1296" y="1279" on="0"/>
        <pt x="1316" y="1277" on="1"/>
        <pt x="1329" y="1404" on="0"/>
        <pt x="1511" y="1564" on="0"/>
        <pt x="1663" y="1578" on="1"/>
        <pt x="1721" y="1707" on="0"/>
        <pt x="1963" y="1847" on="0"/>
        <pt x="2125" y="1847" on="1"/>
        <pt x="2336" y="1847" on="0"/>
        <pt x="2570" y="1648" on="0"/>
        <pt x="2570" y="1473" on="1"/>
        <pt x="2570" y="1375" on="0"/>
        <pt x="2535" y="1287" on="1"/>
        <pt x="2799" y="1287" on="1"/>
        <pt x="2799" y="1104" on="1"/>
        <pt x="2281" y="1104" on="1"/>
        <pt x="2281" y="1212" on="1"/>
        <pt x="2343" y="1313" on="0"/>
        <pt x="2343" y="1427" on="1"/>
        <pt x="2343" y="1543" on="0"/>
        <pt x="2220" y="1662" on="0"/>
        <pt x="2100" y="1662" on="1"/>
        <pt x="1976" y="1662" on="0"/>
        <pt x="1896" y="1581" on="1"/>
        <pt x="2052" y="1580" on="0"/>
        <pt x="2194" y="1448" on="0"/>
        <pt x="2194" y="1339" on="1"/>
        <pt x="2194" y="1222" on="0"/>
        <pt x="2052" y="1096" on="0"/>
        <pt x="1929" y="1096" on="1"/>
        <pt x="1790" y="1096" on="0"/>
        <pt x="1628" y="1254" on="0"/>
        <pt x="1627" y="1395" on="1"/>
        <pt x="1532" y="1361" on="0"/>
        <pt x="1532" y="1230" on="1"/>
        <pt x="1532" y="1225" on="1"/>
        <pt x="1669" y="1158" on="0"/>
        <pt x="1814" y="866" on="0"/>
        <pt x="1814" y="657" on="1"/>
        <pt x="1814" y="492" on="0"/>
        <pt x="1738" y="292" on="0"/>
        <pt x="1592" y="165" on="0"/>
        <pt x="1365" y="105" on="0"/>
        <pt x="1134" y="105" on="1"/>
        <pt x="164" y="105" on="1"/>
        <pt x="164" y="1255" on="1"/>
        <pt x="466" y="1255" on="1"/>
      </contour>
      <contour>
        <pt x="1829" y="1408" on="1"/>
        <pt x="1829" y="1377" on="1"/>
        <pt x="1829" y="1321" on="0"/>
        <pt x="1882" y="1261" on="0"/>
        <pt x="1931" y="1261" on="1"/>
        <pt x="1964" y="1261" on="0"/>
        <pt x="2009" y="1297" on="0"/>
        <pt x="2009" y="1329" on="1"/>
        <pt x="2009" y="1362" on="0"/>
        <pt x="1953" y="1408" on="0"/>
        <pt x="1872" y="1408" on="1"/>
      </contour>
      <contour>
        <pt x="1226" y="322" on="1"/>
        <pt x="1387" y="322" on="0"/>
        <pt x="1512" y="467" on="0"/>
        <pt x="1512" y="657" on="1"/>
        <pt x="1512" y="856" on="0"/>
        <pt x="1402" y="1063" on="0"/>
        <pt x="1297" y="1063" on="1"/>
        <pt x="1242" y="1063" on="0"/>
        <pt x="1173" y="1003" on="0"/>
        <pt x="1147" y="905" on="0"/>
        <pt x="1147" y="801" on="1"/>
        <pt x="1147" y="322" on="1"/>
      </contour>
    </TTGlyph>
    <TTGlyph name="multiply.tamil" xMin="129" yMin="105" xMax="1040" yMax="1565">
      <contour>
        <pt x="428" y="828" on="1"/>
        <pt x="129" y="1129" on="1"/>
        <pt x="281" y="1283" on="1"/>
        <pt x="582" y="984" on="1"/>
        <pt x="887" y="1283" on="1"/>
        <pt x="1040" y="1133" on="1"/>
        <pt x="735" y="828" on="1"/>
        <pt x="1036" y="525" on="1"/>
        <pt x="887" y="373" on="1"/>
        <pt x="582" y="674" on="1"/>
        <pt x="281" y="375" on="1"/>
        <pt x="131" y="527" on="1"/>
      </contour>
      <contour>
        <pt x="597" y="105" on="1"/>
      </contour>
      <contour>
        <pt x="555" y="1565" on="1"/>
      </contour>
    </TTGlyph>
    <TTGlyph name="naprehalftamil" xMin="83" yMin="-553" xMax="1737" yMax="1847">
      <component glyphName="natamil" x="0" y="0" flags="0x204"/>
      <component glyphName="viramatamil" x="1479" y="0" flags="0x4"/>
    </TTGlyph>
    <TTGlyph name="natamil" xMin="83" yMin="-553" xMax="1737" yMax="1255">
      <contour>
        <pt x="164" y="1255" on="1"/>
        <pt x="1372" y="1255" on="1"/>
        <pt x="1372" y="1038" on="1"/>
        <pt x="1076" y="1038" on="1"/>
        <pt x="1076" y="793" on="1"/>
        <pt x="1183" y="847" on="0"/>
        <pt x="1304" y="847" on="1"/>
        <pt x="1506" y="847" on="0"/>
        <pt x="1737" y="595" on="0"/>
        <pt x="1737" y="368" on="1"/>
        <pt x="1737" y="218" on="0"/>
        <pt x="1644" y="-11" on="0"/>
        <pt x="1447" y="-167" on="0"/>
        <pt x="1142" y="-239" on="0"/>
        <pt x="885" y="-239" on="1"/>
        <pt x="717" y="-239" on="1"/>
        <pt x="577" y="-239" on="0"/>
        <pt x="459" y="-269" on="0"/>
        <pt x="385" y="-358" on="0"/>
        <pt x="385" y="-452" on="1"/>
        <pt x="385" y="-494" on="0"/>
        <pt x="390" y="-539" on="1"/>
        <pt x="95" y="-553" on="1"/>
        <pt x="83" y="-454" on="0"/>
        <pt x="83" y="-377" on="1"/>
        <pt x="83" y="-268" on="0"/>
        <pt x="191" y="-105" on="0"/>
        <pt x="391" y="-22" on="0"/>
        <pt x="584" y="-22" on="1"/>
        <pt x="860" y="-22" on="1"/>
        <pt x="1114" y="-22" on="0"/>
        <pt x="1336" y="58" on="0"/>
        <pt x="1443" y="220" on="0"/>
        <pt x="1443" y="361" on="1"/>
        <pt x="1443" y="493" on="0"/>
        <pt x="1337" y="630" on="0"/>
        <pt x="1234" y="630" on="1"/>
        <pt x="1149" y="630" on="0"/>
        <pt x="1076" y="579" on="1"/>
        <pt x="1076" y="105" on="1"/>
        <pt x="774" y="105" on="1"/>
        <pt x="774" y="1038" on="1"/>
        <pt x="466" y="1038" on="1"/>
        <pt x="466" y="105" on="1"/>
        <pt x="164" y="105" on="1"/>
      </contour>
      <contour>
        <pt x="607" y="81" on="1"/>
      </contour>
    </TTGlyph>
    <TTGlyph name="nauuvowelsigntamil" xMin="67" yMin="-552" xMax="3203" yMax="1255">
      <contour>
        <pt x="2307" y="-239" on="1"/>
        <pt x="1538" y="-239" on="1"/>
        <pt x="1390" y="-391" on="0"/>
        <pt x="955" y="-552" on="0"/>
        <pt x="699" y="-552" on="1"/>
        <pt x="678" y="-552" on="1"/>
        <pt x="384" y="-552" on="0"/>
        <pt x="67" y="-378" on="0"/>
        <pt x="67" y="-217" on="1"/>
        <pt x="67" y="-144" on="0"/>
        <pt x="138" y="-57" on="0"/>
        <pt x="253" y="-22" on="0"/>
        <pt x="391" y="-22" on="1"/>
        <pt x="1365" y="-22" on="1"/>
        <pt x="1402" y="58" on="0"/>
        <pt x="1443" y="242" on="0"/>
        <pt x="1443" y="322" on="1"/>
        <pt x="1443" y="480" on="0"/>
        <pt x="1345" y="630" on="0"/>
        <pt x="1234" y="630" on="1"/>
        <pt x="1149" y="630" on="0"/>
        <pt x="1076" y="579" on="1"/>
        <pt x="1076" y="105" on="1"/>
        <pt x="774" y="105" on="1"/>
        <pt x="774" y="1038" on="1"/>
        <pt x="466" y="1038" on="1"/>
        <pt x="466" y="105" on="1"/>
        <pt x="164" y="105" on="1"/>
        <pt x="164" y="1255" on="1"/>
        <pt x="1372" y="1255" on="1"/>
        <pt x="1372" y="1038" on="1"/>
        <pt x="1076" y="1038" on="1"/>
        <pt x="1076" y="793" on="1"/>
        <pt x="1183" y="847" on="0"/>
        <pt x="1304" y="847" on="1"/>
        <pt x="1513" y="847" on="0"/>
        <pt x="1737" y="589" on="0"/>
        <pt x="1737" y="346" on="1"/>
        <pt x="1737" y="243" on="0"/>
        <pt x="1699" y="60" on="0"/>
        <pt x="1662" y="-22" on="1"/>
        <pt x="2005" y="-22" on="1"/>
        <pt x="2005" y="1255" on="1"/>
        <pt x="3203" y="1255" on="1"/>
        <pt x="3203" y="1038" on="1"/>
        <pt x="2917" y="1038" on="1"/>
        <pt x="2917" y="-239" on="1"/>
        <pt x="2615" y="-239" on="1"/>
        <pt x="2615" y="1038" on="1"/>
        <pt x="2307" y="1038" on="1"/>
      </contour>
      <contour>
        <pt x="680" y="-350" on="1"/>
        <pt x="859" y="-350" on="0"/>
        <pt x="1130" y="-285" on="0"/>
        <pt x="1223" y="-221" on="1"/>
        <pt x="419" y="-221" on="1"/>
        <pt x="372" y="-221" on="0"/>
        <pt x="340" y="-237" on="0"/>
        <pt x="340" y="-255" on="1"/>
        <pt x="340" y="-297" on="0"/>
        <pt x="504" y="-350" on="0"/>
        <pt x="650" y="-350" on="1"/>
      </contour>
      <contour>
        <pt x="564" y="81" on="1"/>
      </contour>
    </TTGlyph>
    <TTGlyph name="nauvowelsigntamil" xMin="67" yMin="-552" xMax="2307" yMax="1255">
      <contour>
        <pt x="2307" y="-239" on="1"/>
        <pt x="1538" y="-239" on="1"/>
        <pt x="1390" y="-391" on="0"/>
        <pt x="955" y="-552" on="0"/>
        <pt x="699" y="-552" on="1"/>
        <pt x="678" y="-552" on="1"/>
        <pt x="384" y="-552" on="0"/>
        <pt x="67" y="-378" on="0"/>
        <pt x="67" y="-217" on="1"/>
        <pt x="67" y="-144" on="0"/>
        <pt x="138" y="-57" on="0"/>
        <pt x="253" y="-22" on="0"/>
        <pt x="391" y="-22" on="1"/>
        <pt x="1365" y="-22" on="1"/>
        <pt x="1402" y="58" on="0"/>
        <pt x="1443" y="242" on="0"/>
        <pt x="1443" y="322" on="1"/>
        <pt x="1443" y="480" on="0"/>
        <pt x="1345" y="630" on="0"/>
        <pt x="1234" y="630" on="1"/>
        <pt x="1149" y="630" on="0"/>
        <pt x="1076" y="579" on="1"/>
        <pt x="1076" y="105" on="1"/>
        <pt x="774" y="105" on="1"/>
        <pt x="774" y="1038" on="1"/>
        <pt x="466" y="1038" on="1"/>
        <pt x="466" y="105" on="1"/>
        <pt x="164" y="105" on="1"/>
        <pt x="164" y="1255" on="1"/>
        <pt x="1372" y="1255" on="1"/>
        <pt x="1372" y="1038" on="1"/>
        <pt x="1076" y="1038" on="1"/>
        <pt x="1076" y="793" on="1"/>
        <pt x="1183" y="847" on="0"/>
        <pt x="1304" y="847" on="1"/>
        <pt x="1513" y="847" on="0"/>
        <pt x="1737" y="589" on="0"/>
        <pt x="1737" y="346" on="1"/>
        <pt x="1737" y="243" on="0"/>
        <pt x="1699" y="60" on="0"/>
        <pt x="1662" y="-22" on="1"/>
        <pt x="2005" y="-22" on="1"/>
        <pt x="2005" y="1255" on="1"/>
        <pt x="2307" y="1255" on="1"/>
      </contour>
      <contour>
        <pt x="680" y="-350" on="1"/>
        <pt x="859" y="-350" on="0"/>
        <pt x="1130" y="-285" on="0"/>
        <pt x="1223" y="-221" on="1"/>
        <pt x="419" y="-221" on="1"/>
        <pt x="372" y="-221" on="0"/>
        <pt x="340" y="-237" on="0"/>
        <pt x="340" y="-255" on="1"/>
        <pt x="340" y="-297" on="0"/>
        <pt x="504" y="-350" on="0"/>
        <pt x="650" y="-350" on="1"/>
      </contour>
      <contour>
        <pt x="564" y="81" on="1"/>
      </contour>
    </TTGlyph>
    <TTGlyph name="ngaiivowelsigntamil" xMin="164" yMin="105" xMax="2440" yMax="1847">
      <contour>
        <pt x="1957" y="1255" on="1"/>
        <pt x="2259" y="1255" on="1"/>
        <pt x="2259" y="105" on="1"/>
        <pt x="766" y="105" on="1"/>
        <pt x="766" y="322" on="1"/>
        <pt x="1341" y="322" on="1"/>
        <pt x="1367" y="351" on="0"/>
        <pt x="1398" y="436" on="0"/>
        <pt x="1398" y="480" on="1"/>
        <pt x="1398" y="630" on="0"/>
        <pt x="1250" y="630" on="1"/>
        <pt x="1162" y="630" on="0"/>
        <pt x="1068" y="562" on="1"/>
        <pt x="1068" y="432" on="1"/>
        <pt x="766" y="432" on="1"/>
        <pt x="766" y="1038" on="1"/>
        <pt x="466" y="1038" on="1"/>
        <pt x="466" y="105" on="1"/>
        <pt x="164" y="105" on="1"/>
        <pt x="164" y="1255" on="1"/>
        <pt x="1349" y="1255" on="1"/>
        <pt x="1349" y="1038" on="1"/>
        <pt x="1068" y="1038" on="1"/>
        <pt x="1068" y="773" on="1"/>
        <pt x="1183" y="847" on="0"/>
        <pt x="1327" y="847" on="1"/>
        <pt x="1505" y="847" on="0"/>
        <pt x="1697" y="672" on="0"/>
        <pt x="1697" y="530" on="1"/>
        <pt x="1697" y="410" on="0"/>
        <pt x="1635" y="322" on="1"/>
        <pt x="1957" y="322" on="1"/>
        <pt x="1957" y="858" on="1"/>
        <pt x="1691" y="911" on="0"/>
        <pt x="1425" y="1168" on="0"/>
        <pt x="1425" y="1371" on="1"/>
        <pt x="1425" y="1507" on="0"/>
        <pt x="1565" y="1728" on="0"/>
        <pt x="1834" y="1847" on="0"/>
        <pt x="2022" y="1847" on="1"/>
        <pt x="2226" y="1847" on="0"/>
        <pt x="2440" y="1698" on="0"/>
        <pt x="2440" y="1559" on="1"/>
        <pt x="2440" y="1433" on="0"/>
        <pt x="2269" y="1292" on="0"/>
        <pt x="2111" y="1292" on="1"/>
        <pt x="1950" y="1292" on="0"/>
        <pt x="1784" y="1427" on="0"/>
        <pt x="1784" y="1554" on="1"/>
        <pt x="1784" y="1579" on="0"/>
        <pt x="1788" y="1595" on="1"/>
        <pt x="1670" y="1518" on="0"/>
        <pt x="1670" y="1365" on="1"/>
        <pt x="1670" y="1257" on="0"/>
        <pt x="1813" y="1118" on="0"/>
        <pt x="1957" y="1088" on="1"/>
      </contour>
      <contour>
        <pt x="2010" y="1655" on="1"/>
        <pt x="1988" y="1611" on="0"/>
        <pt x="1988" y="1565" on="1"/>
        <pt x="1988" y="1513" on="0"/>
        <pt x="2041" y="1463" on="0"/>
        <pt x="2099" y="1463" on="1"/>
        <pt x="2147" y="1463" on="0"/>
        <pt x="2201" y="1514" on="0"/>
        <pt x="2201" y="1558" on="1"/>
        <pt x="2201" y="1607" on="0"/>
        <pt x="2120" y="1655" on="0"/>
        <pt x="2030" y="1655" on="1"/>
      </contour>
    </TTGlyph>
    <TTGlyph name="ngaprehalftamil" xMin="164" yMin="105" xMax="2259" yMax="1847">
      <component glyphName="ngatamil" x="0" y="0" flags="0x204"/>
      <component glyphName="viramatamil" x="1781" y="0" flags="0x4"/>
    </TTGlyph>
    <TTGlyph name="ngatamil" xMin="164" yMin="105" xMax="2259" yMax="1255">
      <contour>
        <pt x="766" y="105" on="1"/>
        <pt x="766" y="322" on="1"/>
        <pt x="1341" y="322" on="1"/>
        <pt x="1367" y="351" on="0"/>
        <pt x="1398" y="436" on="0"/>
        <pt x="1398" y="480" on="1"/>
        <pt x="1398" y="630" on="0"/>
        <pt x="1250" y="630" on="1"/>
        <pt x="1162" y="630" on="0"/>
        <pt x="1068" y="562" on="1"/>
        <pt x="1068" y="432" on="1"/>
        <pt x="766" y="432" on="1"/>
        <pt x="766" y="1038" on="1"/>
        <pt x="466" y="1038" on="1"/>
        <pt x="466" y="105" on="1"/>
        <pt x="164" y="105" on="1"/>
        <pt x="164" y="1255" on="1"/>
        <pt x="1499" y="1255" on="1"/>
        <pt x="1499" y="1038" on="1"/>
        <pt x="1068" y="1038" on="1"/>
        <pt x="1068" y="773" on="1"/>
        <pt x="1183" y="847" on="0"/>
        <pt x="1327" y="847" on="1"/>
        <pt x="1505" y="847" on="0"/>
        <pt x="1697" y="672" on="0"/>
        <pt x="1697" y="530" on="1"/>
        <pt x="1697" y="410" on="0"/>
        <pt x="1635" y="322" on="1"/>
        <pt x="1957" y="322" on="1"/>
        <pt x="1957" y="1255" on="1"/>
        <pt x="2259" y="1255" on="1"/>
        <pt x="2259" y="105" on="1"/>
      </contour>
    </TTGlyph>
    <TTGlyph name="ngauuvowelsigntamil" xMin="162" yMin="-553" xMax="2864" yMax="1255">
      <contour>
        <pt x="1957" y="-179" on="1"/>
        <pt x="1957" y="105" on="1"/>
        <pt x="766" y="105" on="1"/>
        <pt x="766" y="322" on="1"/>
        <pt x="1341" y="322" on="1"/>
        <pt x="1367" y="351" on="0"/>
        <pt x="1398" y="436" on="0"/>
        <pt x="1398" y="480" on="1"/>
        <pt x="1398" y="630" on="0"/>
        <pt x="1250" y="630" on="1"/>
        <pt x="1162" y="630" on="0"/>
        <pt x="1068" y="562" on="1"/>
        <pt x="1068" y="432" on="1"/>
        <pt x="766" y="432" on="1"/>
        <pt x="766" y="1038" on="1"/>
        <pt x="466" y="1038" on="1"/>
        <pt x="466" y="105" on="1"/>
        <pt x="164" y="105" on="1"/>
        <pt x="164" y="1255" on="1"/>
        <pt x="1499" y="1255" on="1"/>
        <pt x="1499" y="1038" on="1"/>
        <pt x="1068" y="1038" on="1"/>
        <pt x="1068" y="773" on="1"/>
        <pt x="1183" y="847" on="0"/>
        <pt x="1327" y="847" on="1"/>
        <pt x="1505" y="847" on="0"/>
        <pt x="1697" y="672" on="0"/>
        <pt x="1697" y="530" on="1"/>
        <pt x="1697" y="410" on="0"/>
        <pt x="1635" y="322" on="1"/>
        <pt x="1957" y="322" on="1"/>
        <pt x="1957" y="1255" on="1"/>
        <pt x="2259" y="1255" on="1"/>
        <pt x="2259" y="305" on="1"/>
        <pt x="2366" y="345" on="0"/>
        <pt x="2496" y="345" on="1"/>
        <pt x="2660" y="345" on="0"/>
        <pt x="2864" y="170" on="0"/>
        <pt x="2864" y="12" on="1"/>
        <pt x="2864" y="-136" on="0"/>
        <pt x="2697" y="-337" on="0"/>
        <pt x="2356" y="-479" on="0"/>
        <pt x="1796" y="-553" on="0"/>
        <pt x="1405" y="-553" on="1"/>
        <pt x="1201" y="-553" on="1"/>
        <pt x="618" y="-553" on="0"/>
        <pt x="162" y="-392" on="0"/>
        <pt x="162" y="-203" on="1"/>
        <pt x="162" y="-80" on="0"/>
        <pt x="359" y="55" on="0"/>
        <pt x="547" y="55" on="1"/>
        <pt x="633" y="55" on="0"/>
        <pt x="836" y="32" on="0"/>
        <pt x="910" y="12" on="1"/>
        <pt x="869" y="-196" on="1"/>
        <pt x="826" y="-182" on="0"/>
        <pt x="642" y="-159" on="0"/>
        <pt x="594" y="-159" on="1"/>
        <pt x="520" y="-159" on="0"/>
        <pt x="449" y="-188" on="0"/>
        <pt x="449" y="-220" on="1"/>
        <pt x="449" y="-286" on="0"/>
        <pt x="883" y="-336" on="0"/>
        <pt x="1315" y="-336" on="1"/>
        <pt x="1418" y="-336" on="1"/>
        <pt x="1738" y="-336" on="0"/>
        <pt x="2293" y="-264" on="0"/>
        <pt x="2576" y="-112" on="0"/>
        <pt x="2576" y="-2" on="1"/>
        <pt x="2576" y="61" on="0"/>
        <pt x="2492" y="135" on="0"/>
        <pt x="2414" y="135" on="1"/>
        <pt x="2340" y="135" on="0"/>
        <pt x="2259" y="95" on="1"/>
        <pt x="2259" y="-179" on="1"/>
      </contour>
    </TTGlyph>
    <TTGlyph name="ngauvowelsigntamil" xMin="164" yMin="-553" xMax="2259" yMax="1255">
      <contour>
        <pt x="1957" y="-475" on="1"/>
        <pt x="1957" y="105" on="1"/>
        <pt x="766" y="105" on="1"/>
        <pt x="766" y="322" on="1"/>
        <pt x="1341" y="322" on="1"/>
        <pt x="1367" y="351" on="0"/>
        <pt x="1398" y="436" on="0"/>
        <pt x="1398" y="480" on="1"/>
        <pt x="1398" y="630" on="0"/>
        <pt x="1250" y="630" on="1"/>
        <pt x="1162" y="630" on="0"/>
        <pt x="1068" y="562" on="1"/>
        <pt x="1068" y="432" on="1"/>
        <pt x="766" y="432" on="1"/>
        <pt x="766" y="1038" on="1"/>
        <pt x="466" y="1038" on="1"/>
        <pt x="466" y="105" on="1"/>
        <pt x="164" y="105" on="1"/>
        <pt x="164" y="1255" on="1"/>
        <pt x="1499" y="1255" on="1"/>
        <pt x="1499" y="1038" on="1"/>
        <pt x="1068" y="1038" on="1"/>
        <pt x="1068" y="773" on="1"/>
        <pt x="1183" y="847" on="0"/>
        <pt x="1327" y="847" on="1"/>
        <pt x="1505" y="847" on="0"/>
        <pt x="1697" y="672" on="0"/>
        <pt x="1697" y="530" on="1"/>
        <pt x="1697" y="410" on="0"/>
        <pt x="1635" y="322" on="1"/>
        <pt x="1957" y="322" on="1"/>
        <pt x="1957" y="1255" on="1"/>
        <pt x="2259" y="1255" on="1"/>
        <pt x="2259" y="-475" on="1"/>
      </contour>
      <contour>
        <pt x="2086" y="-553" on="1"/>
      </contour>
    </TTGlyph>
    <TTGlyph name="nine.tamil" xMin="66" yMin="85" xMax="1098" yMax="1584">
      <contour>
        <pt x="168" y="99" on="1"/>
        <pt x="168" y="347" on="1"/>
        <pt x="253" y="326" on="0"/>
        <pt x="344" y="326" on="1"/>
        <pt x="579" y="326" on="0"/>
        <pt x="804" y="539" on="0"/>
        <pt x="813" y="783" on="1"/>
        <pt x="801" y="783" on="1"/>
        <pt x="744" y="688" on="0"/>
        <pt x="590" y="613" on="0"/>
        <pt x="477" y="613" on="1"/>
        <pt x="286" y="613" on="0"/>
        <pt x="66" y="859" on="0"/>
        <pt x="66" y="1076" on="1"/>
        <pt x="66" y="1312" on="0"/>
        <pt x="333" y="1584" on="0"/>
        <pt x="563" y="1584" on="1"/>
        <pt x="807" y="1584" on="0"/>
        <pt x="1098" y="1247" on="0"/>
        <pt x="1098" y="943" on="1"/>
        <pt x="1098" y="508" on="0"/>
        <pt x="730" y="85" on="0"/>
        <pt x="365" y="85" on="1"/>
        <pt x="238" y="85" on="0"/>
      </contour>
      <contour>
        <pt x="365" y="1080" on="1"/>
        <pt x="365" y="970" on="0"/>
        <pt x="467" y="850" on="0"/>
        <pt x="563" y="850" on="1"/>
        <pt x="659" y="850" on="0"/>
        <pt x="791" y="974" on="0"/>
        <pt x="791" y="1053" on="1"/>
        <pt x="791" y="1168" on="0"/>
        <pt x="668" y="1336" on="0"/>
        <pt x="569" y="1336" on="1"/>
        <pt x="472" y="1336" on="0"/>
        <pt x="365" y="1204" on="0"/>
      </contour>
    </TTGlyph>
    <TTGlyph name="ninetamil" xMin="88" yMin="81" xMax="2694" yMax="1255">
      <contour>
        <pt x="2308" y="219" on="1"/>
        <pt x="2409" y="364" on="0"/>
        <pt x="2409" y="513" on="1"/>
        <pt x="2409" y="643" on="0"/>
        <pt x="2239" y="799" on="0"/>
        <pt x="2098" y="799" on="1"/>
        <pt x="2041" y="799" on="0"/>
        <pt x="1944" y="786" on="0"/>
        <pt x="1904" y="774" on="1"/>
        <pt x="2048" y="734" on="0"/>
        <pt x="2193" y="555" on="0"/>
        <pt x="2193" y="417" on="1"/>
        <pt x="2193" y="265" on="0"/>
        <pt x="1996" y="81" on="0"/>
        <pt x="1831" y="81" on="1"/>
        <pt x="1647" y="81" on="0"/>
        <pt x="1412" y="277" on="0"/>
        <pt x="1412" y="452" on="1"/>
        <pt x="1412" y="531" on="0"/>
        <pt x="1440" y="612" on="1"/>
        <pt x="1170" y="612" on="1"/>
        <pt x="1170" y="597" on="1"/>
        <pt x="1170" y="448" on="0"/>
        <pt x="1107" y="266" on="0"/>
        <pt x="970" y="141" on="0"/>
        <pt x="755" y="81" on="0"/>
        <pt x="602" y="81" on="1"/>
        <pt x="368" y="81" on="0"/>
        <pt x="88" y="274" on="0"/>
        <pt x="88" y="442" on="1"/>
        <pt x="88" y="545" on="0"/>
        <pt x="192" y="695" on="0"/>
        <pt x="296" y="742" on="1"/>
        <pt x="296" y="1255" on="1"/>
        <pt x="1559" y="1255" on="1"/>
        <pt x="1559" y="1038" on="1"/>
        <pt x="1170" y="1038" on="1"/>
        <pt x="1170" y="816" on="1"/>
        <pt x="1567" y="816" on="1"/>
        <pt x="1663" y="909" on="0"/>
        <pt x="1944" y="1007" on="0"/>
        <pt x="2114" y="1007" on="1"/>
        <pt x="2297" y="1007" on="0"/>
        <pt x="2558" y="891" on="0"/>
        <pt x="2694" y="671" on="0"/>
        <pt x="2694" y="529" on="1"/>
        <pt x="2694" y="308" on="0"/>
        <pt x="2549" y="81" on="1"/>
      </contour>
      <contour>
        <pt x="566" y="807" on="1"/>
        <pt x="659" y="816" on="0"/>
        <pt x="748" y="816" on="1"/>
        <pt x="878" y="816" on="1"/>
        <pt x="878" y="1038" on="1"/>
        <pt x="566" y="1038" on="1"/>
      </contour>
      <contour>
        <pt x="878" y="612" on="1"/>
        <pt x="725" y="612" on="1"/>
        <pt x="545" y="612" on="0"/>
        <pt x="384" y="536" on="0"/>
        <pt x="384" y="445" on="1"/>
        <pt x="384" y="375" on="0"/>
        <pt x="513" y="298" on="0"/>
        <pt x="623" y="298" on="1"/>
        <pt x="762" y="298" on="0"/>
        <pt x="878" y="443" on="0"/>
        <pt x="878" y="592" on="1"/>
      </contour>
      <contour>
        <pt x="1710" y="607" on="1"/>
        <pt x="1675" y="537" on="0"/>
        <pt x="1675" y="461" on="1"/>
        <pt x="1675" y="377" on="0"/>
        <pt x="1753" y="286" on="0"/>
        <pt x="1819" y="286" on="1"/>
        <pt x="1872" y="286" on="0"/>
        <pt x="1930" y="344" on="0"/>
        <pt x="1930" y="397" on="1"/>
        <pt x="1930" y="493" on="0"/>
        <pt x="1819" y="594" on="0"/>
      </contour>
    </TTGlyph>
    <TTGlyph name="nnaprehalftamil" xMin="95" yMin="81" xMax="3720" yMax="1847">
      <component glyphName="nnatamil" x="0" y="0" flags="0x204"/>
      <component glyphName="viramatamil" x="2447" y="0" flags="0x4"/>
    </TTGlyph>
    <TTGlyph name="nnatamil" xMin="95" yMin="81" xMax="3720" yMax="1279">
      <contour>
        <pt x="2898" y="488" on="1"/>
        <pt x="2898" y="298" on="0"/>
        <pt x="2683" y="81" on="0"/>
        <pt x="2494" y="81" on="1"/>
        <pt x="2294" y="81" on="0"/>
        <pt x="2080" y="297" on="0"/>
        <pt x="2080" y="489" on="1"/>
        <pt x="2080" y="620" on="0"/>
        <pt x="2186" y="885" on="0"/>
        <pt x="2288" y="1000" on="1"/>
        <pt x="2228" y="1029" on="0"/>
        <pt x="2084" y="1058" on="0"/>
        <pt x="2001" y="1058" on="1"/>
        <pt x="1916" y="1058" on="0"/>
        <pt x="1768" y="1027" on="0"/>
        <pt x="1705" y="997" on="1"/>
        <pt x="1816" y="888" on="0"/>
        <pt x="1928" y="633" on="0"/>
        <pt x="1928" y="488" on="1"/>
        <pt x="1928" y="298" on="0"/>
        <pt x="1713" y="81" on="0"/>
        <pt x="1524" y="81" on="1"/>
        <pt x="1324" y="81" on="0"/>
        <pt x="1110" y="297" on="0"/>
        <pt x="1110" y="489" on="1"/>
        <pt x="1110" y="627" on="0"/>
        <pt x="1211" y="876" on="0"/>
        <pt x="1313" y="986" on="1"/>
        <pt x="1236" y="1022" on="0"/>
        <pt x="1055" y="1058" on="0"/>
        <pt x="951" y="1058" on="1"/>
        <pt x="750" y="1058" on="0"/>
        <pt x="461" y="906" on="0"/>
        <pt x="399" y="771" on="1"/>
        <pt x="501" y="816" on="0"/>
        <pt x="615" y="816" on="1"/>
        <pt x="782" y="816" on="0"/>
        <pt x="981" y="627" on="0"/>
        <pt x="981" y="461" on="1"/>
        <pt x="981" y="280" on="0"/>
        <pt x="764" y="81" on="0"/>
        <pt x="564" y="81" on="1"/>
        <pt x="342" y="81" on="0"/>
        <pt x="95" y="348" on="0"/>
        <pt x="95" y="597" on="1"/>
        <pt x="95" y="801" on="0"/>
        <pt x="299" y="1110" on="0"/>
        <pt x="685" y="1279" on="0"/>
        <pt x="946" y="1279" on="1"/>
        <pt x="1108" y="1279" on="0"/>
        <pt x="1374" y="1213" on="0"/>
        <pt x="1501" y="1144" on="1"/>
        <pt x="1600" y="1213" on="0"/>
        <pt x="1843" y="1279" on="0"/>
        <pt x="2003" y="1279" on="1"/>
        <pt x="2177" y="1279" on="0"/>
        <pt x="2395" y="1214" on="0"/>
        <pt x="2486" y="1154" on="1"/>
        <pt x="2592" y="1213" on="0"/>
        <pt x="2850" y="1255" on="0"/>
        <pt x="3067" y="1255" on="1"/>
        <pt x="3720" y="1255" on="1"/>
        <pt x="3720" y="1038" on="1"/>
        <pt x="3424" y="1038" on="1"/>
        <pt x="3424" y="105" on="1"/>
        <pt x="3122" y="105" on="1"/>
        <pt x="3122" y="1038" on="1"/>
        <pt x="3030" y="1038" on="1"/>
        <pt x="2871" y="1038" on="0"/>
        <pt x="2729" y="1021" on="0"/>
        <pt x="2683" y="1003" on="1"/>
        <pt x="2790" y="891" on="0"/>
        <pt x="2898" y="634" on="0"/>
      </contour>
      <contour>
        <pt x="2481" y="860" on="1"/>
        <pt x="2426" y="796" on="0"/>
        <pt x="2363" y="610" on="0"/>
        <pt x="2363" y="510" on="1"/>
        <pt x="2363" y="402" on="0"/>
        <pt x="2426" y="289" on="0"/>
        <pt x="2487" y="289" on="1"/>
        <pt x="2614" y="289" on="0"/>
        <pt x="2614" y="508" on="1"/>
        <pt x="2614" y="600" on="0"/>
        <pt x="2546" y="786" on="0"/>
      </contour>
      <contour>
        <pt x="1511" y="846" on="1"/>
        <pt x="1452" y="775" on="0"/>
        <pt x="1393" y="599" on="0"/>
        <pt x="1393" y="494" on="1"/>
        <pt x="1393" y="395" on="0"/>
        <pt x="1458" y="289" on="0"/>
        <pt x="1517" y="289" on="1"/>
        <pt x="1579" y="289" on="0"/>
        <pt x="1644" y="394" on="0"/>
        <pt x="1644" y="496" on="1"/>
        <pt x="1644" y="599" on="0"/>
        <pt x="1577" y="774" on="0"/>
      </contour>
      <contour>
        <pt x="362" y="546" on="1"/>
        <pt x="369" y="422" on="0"/>
        <pt x="474" y="289" on="0"/>
        <pt x="562" y="289" on="1"/>
        <pt x="625" y="289" on="0"/>
        <pt x="699" y="373" on="0"/>
        <pt x="699" y="447" on="1"/>
        <pt x="699" y="522" on="0"/>
        <pt x="611" y="611" on="0"/>
        <pt x="539" y="611" on="1"/>
        <pt x="451" y="611" on="0"/>
      </contour>
    </TTGlyph>
    <TTGlyph name="nnauuvowelsigntamil" xMin="69" yMin="-553" xMax="4997" yMax="1279">
      <contour>
        <pt x="4101" y="-239" on="1"/>
        <pt x="3180" y="-239" on="1"/>
        <pt x="2933" y="-392" on="0"/>
        <pt x="2169" y="-553" on="0"/>
        <pt x="1512" y="-553" on="1"/>
        <pt x="1096" y="-553" on="1"/>
        <pt x="702" y="-553" on="0"/>
        <pt x="276" y="-486" on="0"/>
        <pt x="69" y="-338" on="0"/>
        <pt x="69" y="-217" on="1"/>
        <pt x="69" y="-144" on="0"/>
        <pt x="140" y="-57" on="0"/>
        <pt x="255" y="-22" on="0"/>
        <pt x="393" y="-22" on="1"/>
        <pt x="3002" y="-22" on="1"/>
        <pt x="3108" y="110" on="0"/>
        <pt x="3217" y="426" on="0"/>
        <pt x="3217" y="597" on="1"/>
        <pt x="3217" y="825" on="0"/>
        <pt x="3037" y="1062" on="0"/>
        <pt x="2864" y="1062" on="1"/>
        <pt x="2809" y="1062" on="0"/>
        <pt x="2709" y="1041" on="0"/>
        <pt x="2665" y="1021" on="1"/>
        <pt x="2782" y="906" on="0"/>
        <pt x="2898" y="636" on="0"/>
        <pt x="2898" y="488" on="1"/>
        <pt x="2898" y="298" on="0"/>
        <pt x="2683" y="81" on="0"/>
        <pt x="2494" y="81" on="1"/>
        <pt x="2294" y="81" on="0"/>
        <pt x="2080" y="297" on="0"/>
        <pt x="2080" y="489" on="1"/>
        <pt x="2080" y="630" on="0"/>
        <pt x="2184" y="885" on="0"/>
        <pt x="2289" y="999" on="1"/>
        <pt x="2230" y="1028" on="0"/>
        <pt x="2086" y="1058" on="0"/>
        <pt x="2001" y="1058" on="1"/>
        <pt x="1916" y="1058" on="0"/>
        <pt x="1768" y="1027" on="0"/>
        <pt x="1705" y="997" on="1"/>
        <pt x="1816" y="888" on="0"/>
        <pt x="1928" y="633" on="0"/>
        <pt x="1928" y="488" on="1"/>
        <pt x="1928" y="298" on="0"/>
        <pt x="1713" y="81" on="0"/>
        <pt x="1524" y="81" on="1"/>
        <pt x="1324" y="81" on="0"/>
        <pt x="1110" y="297" on="0"/>
        <pt x="1110" y="489" on="1"/>
        <pt x="1110" y="627" on="0"/>
        <pt x="1211" y="876" on="0"/>
        <pt x="1313" y="986" on="1"/>
        <pt x="1236" y="1022" on="0"/>
        <pt x="1055" y="1058" on="0"/>
        <pt x="951" y="1058" on="1"/>
        <pt x="750" y="1058" on="0"/>
        <pt x="461" y="906" on="0"/>
        <pt x="399" y="771" on="1"/>
        <pt x="501" y="816" on="0"/>
        <pt x="615" y="816" on="1"/>
        <pt x="782" y="816" on="0"/>
        <pt x="981" y="627" on="0"/>
        <pt x="981" y="461" on="1"/>
        <pt x="981" y="280" on="0"/>
        <pt x="764" y="81" on="0"/>
        <pt x="564" y="81" on="1"/>
        <pt x="342" y="81" on="0"/>
        <pt x="95" y="348" on="0"/>
        <pt x="95" y="597" on="1"/>
        <pt x="95" y="801" on="0"/>
        <pt x="299" y="1110" on="0"/>
        <pt x="685" y="1279" on="0"/>
        <pt x="946" y="1279" on="1"/>
        <pt x="1106" y="1279" on="0"/>
        <pt x="1384" y="1211" on="0"/>
        <pt x="1502" y="1144" on="1"/>
        <pt x="1599" y="1212" on="0"/>
        <pt x="1835" y="1279" on="0"/>
        <pt x="2003" y="1279" on="1"/>
        <pt x="2175" y="1279" on="0"/>
        <pt x="2390" y="1217" on="0"/>
        <pt x="2479" y="1159" on="1"/>
        <pt x="2574" y="1223" on="0"/>
        <pt x="2785" y="1279" on="0"/>
        <pt x="2916" y="1279" on="1"/>
        <pt x="3206" y="1279" on="0"/>
        <pt x="3519" y="920" on="0"/>
        <pt x="3519" y="595" on="1"/>
        <pt x="3519" y="427" on="0"/>
        <pt x="3427" y="106" on="0"/>
        <pt x="3343" y="-22" on="1"/>
        <pt x="3799" y="-22" on="1"/>
        <pt x="3799" y="1255" on="1"/>
        <pt x="4997" y="1255" on="1"/>
        <pt x="4997" y="1038" on="1"/>
        <pt x="4711" y="1038" on="1"/>
        <pt x="4711" y="-240" on="1"/>
        <pt x="4409" y="-240" on="1"/>
        <pt x="4409" y="1038" on="1"/>
        <pt x="4101" y="1038" on="1"/>
      </contour>
      <contour>
        <pt x="2476" y="866" on="1"/>
        <pt x="2419" y="796" on="0"/>
        <pt x="2363" y="618" on="0"/>
        <pt x="2363" y="510" on="1"/>
        <pt x="2363" y="402" on="0"/>
        <pt x="2426" y="289" on="0"/>
        <pt x="2487" y="289" on="1"/>
        <pt x="2614" y="289" on="0"/>
        <pt x="2614" y="508" on="1"/>
        <pt x="2614" y="600" on="0"/>
        <pt x="2543" y="791" on="0"/>
      </contour>
      <contour>
        <pt x="1511" y="846" on="1"/>
        <pt x="1452" y="775" on="0"/>
        <pt x="1393" y="599" on="0"/>
        <pt x="1393" y="494" on="1"/>
        <pt x="1393" y="395" on="0"/>
        <pt x="1458" y="289" on="0"/>
        <pt x="1517" y="289" on="1"/>
        <pt x="1579" y="289" on="0"/>
        <pt x="1644" y="394" on="0"/>
        <pt x="1644" y="496" on="1"/>
        <pt x="1644" y="599" on="0"/>
        <pt x="1577" y="774" on="0"/>
      </contour>
      <contour>
        <pt x="362" y="546" on="1"/>
        <pt x="369" y="422" on="0"/>
        <pt x="474" y="289" on="0"/>
        <pt x="562" y="289" on="1"/>
        <pt x="625" y="289" on="0"/>
        <pt x="699" y="373" on="0"/>
        <pt x="699" y="447" on="1"/>
        <pt x="699" y="522" on="0"/>
        <pt x="611" y="611" on="0"/>
        <pt x="539" y="611" on="1"/>
        <pt x="451" y="611" on="0"/>
      </contour>
      <contour>
        <pt x="1371" y="-350" on="1"/>
        <pt x="1863" y="-350" on="0"/>
        <pt x="2526" y="-286" on="0"/>
        <pt x="2743" y="-221" on="1"/>
        <pt x="421" y="-221" on="1"/>
        <pt x="374" y="-221" on="0"/>
        <pt x="342" y="-237" on="0"/>
        <pt x="342" y="-255" on="1"/>
        <pt x="342" y="-304" on="0"/>
        <pt x="731" y="-350" on="0"/>
        <pt x="1134" y="-350" on="1"/>
      </contour>
    </TTGlyph>
    <TTGlyph name="nnauvowelsigntamil" xMin="69" yMin="-553" xMax="4103" yMax="1279">
      <contour>
        <pt x="4103" y="-239" on="1"/>
        <pt x="3180" y="-239" on="1"/>
        <pt x="2933" y="-392" on="0"/>
        <pt x="2169" y="-553" on="0"/>
        <pt x="1512" y="-553" on="1"/>
        <pt x="1096" y="-553" on="1"/>
        <pt x="702" y="-553" on="0"/>
        <pt x="276" y="-486" on="0"/>
        <pt x="69" y="-338" on="0"/>
        <pt x="69" y="-217" on="1"/>
        <pt x="69" y="-144" on="0"/>
        <pt x="140" y="-57" on="0"/>
        <pt x="255" y="-22" on="0"/>
        <pt x="393" y="-22" on="1"/>
        <pt x="3002" y="-22" on="1"/>
        <pt x="3108" y="110" on="0"/>
        <pt x="3217" y="426" on="0"/>
        <pt x="3217" y="597" on="1"/>
        <pt x="3217" y="825" on="0"/>
        <pt x="3037" y="1062" on="0"/>
        <pt x="2864" y="1062" on="1"/>
        <pt x="2809" y="1062" on="0"/>
        <pt x="2709" y="1041" on="0"/>
        <pt x="2665" y="1021" on="1"/>
        <pt x="2782" y="906" on="0"/>
        <pt x="2898" y="636" on="0"/>
        <pt x="2898" y="488" on="1"/>
        <pt x="2898" y="298" on="0"/>
        <pt x="2683" y="81" on="0"/>
        <pt x="2494" y="81" on="1"/>
        <pt x="2294" y="81" on="0"/>
        <pt x="2080" y="297" on="0"/>
        <pt x="2080" y="489" on="1"/>
        <pt x="2080" y="630" on="0"/>
        <pt x="2184" y="885" on="0"/>
        <pt x="2289" y="999" on="1"/>
        <pt x="2230" y="1028" on="0"/>
        <pt x="2086" y="1058" on="0"/>
        <pt x="2001" y="1058" on="1"/>
        <pt x="1916" y="1058" on="0"/>
        <pt x="1768" y="1027" on="0"/>
        <pt x="1705" y="997" on="1"/>
        <pt x="1816" y="888" on="0"/>
        <pt x="1928" y="633" on="0"/>
        <pt x="1928" y="488" on="1"/>
        <pt x="1928" y="298" on="0"/>
        <pt x="1713" y="81" on="0"/>
        <pt x="1524" y="81" on="1"/>
        <pt x="1324" y="81" on="0"/>
        <pt x="1110" y="297" on="0"/>
        <pt x="1110" y="489" on="1"/>
        <pt x="1110" y="627" on="0"/>
        <pt x="1211" y="876" on="0"/>
        <pt x="1313" y="986" on="1"/>
        <pt x="1236" y="1022" on="0"/>
        <pt x="1055" y="1058" on="0"/>
        <pt x="951" y="1058" on="1"/>
        <pt x="750" y="1058" on="0"/>
        <pt x="461" y="906" on="0"/>
        <pt x="399" y="771" on="1"/>
        <pt x="501" y="816" on="0"/>
        <pt x="615" y="816" on="1"/>
        <pt x="782" y="816" on="0"/>
        <pt x="981" y="627" on="0"/>
        <pt x="981" y="461" on="1"/>
        <pt x="981" y="280" on="0"/>
        <pt x="764" y="81" on="0"/>
        <pt x="564" y="81" on="1"/>
        <pt x="342" y="81" on="0"/>
        <pt x="95" y="348" on="0"/>
        <pt x="95" y="597" on="1"/>
        <pt x="95" y="801" on="0"/>
        <pt x="299" y="1110" on="0"/>
        <pt x="685" y="1279" on="0"/>
        <pt x="946" y="1279" on="1"/>
        <pt x="1106" y="1279" on="0"/>
        <pt x="1384" y="1211" on="0"/>
        <pt x="1502" y="1144" on="1"/>
        <pt x="1599" y="1212" on="0"/>
        <pt x="1835" y="1279" on="0"/>
        <pt x="2003" y="1279" on="1"/>
        <pt x="2175" y="1279" on="0"/>
        <pt x="2390" y="1217" on="0"/>
        <pt x="2479" y="1159" on="1"/>
        <pt x="2574" y="1223" on="0"/>
        <pt x="2785" y="1279" on="0"/>
        <pt x="2916" y="1279" on="1"/>
        <pt x="3206" y="1279" on="0"/>
        <pt x="3519" y="920" on="0"/>
        <pt x="3519" y="595" on="1"/>
        <pt x="3519" y="427" on="0"/>
        <pt x="3427" y="106" on="0"/>
        <pt x="3343" y="-22" on="1"/>
        <pt x="3801" y="-22" on="1"/>
        <pt x="3801" y="1255" on="1"/>
        <pt x="4103" y="1255" on="1"/>
      </contour>
      <contour>
        <pt x="2476" y="866" on="1"/>
        <pt x="2419" y="796" on="0"/>
        <pt x="2363" y="618" on="0"/>
        <pt x="2363" y="510" on="1"/>
        <pt x="2363" y="402" on="0"/>
        <pt x="2426" y="289" on="0"/>
        <pt x="2487" y="289" on="1"/>
        <pt x="2614" y="289" on="0"/>
        <pt x="2614" y="508" on="1"/>
        <pt x="2614" y="600" on="0"/>
        <pt x="2543" y="791" on="0"/>
      </contour>
      <contour>
        <pt x="1511" y="846" on="1"/>
        <pt x="1452" y="775" on="0"/>
        <pt x="1393" y="599" on="0"/>
        <pt x="1393" y="494" on="1"/>
        <pt x="1393" y="395" on="0"/>
        <pt x="1458" y="289" on="0"/>
        <pt x="1517" y="289" on="1"/>
        <pt x="1579" y="289" on="0"/>
        <pt x="1644" y="394" on="0"/>
        <pt x="1644" y="496" on="1"/>
        <pt x="1644" y="599" on="0"/>
        <pt x="1577" y="774" on="0"/>
      </contour>
      <contour>
        <pt x="362" y="546" on="1"/>
        <pt x="369" y="422" on="0"/>
        <pt x="474" y="289" on="0"/>
        <pt x="562" y="289" on="1"/>
        <pt x="625" y="289" on="0"/>
        <pt x="699" y="373" on="0"/>
        <pt x="699" y="447" on="1"/>
        <pt x="699" y="522" on="0"/>
        <pt x="611" y="611" on="0"/>
        <pt x="539" y="611" on="1"/>
        <pt x="451" y="611" on="0"/>
      </contour>
      <contour>
        <pt x="1371" y="-350" on="1"/>
        <pt x="1863" y="-350" on="0"/>
        <pt x="2526" y="-286" on="0"/>
        <pt x="2743" y="-221" on="1"/>
        <pt x="421" y="-221" on="1"/>
        <pt x="374" y="-221" on="0"/>
        <pt x="342" y="-237" on="0"/>
        <pt x="342" y="-255" on="1"/>
        <pt x="342" y="-304" on="0"/>
        <pt x="731" y="-350" on="0"/>
        <pt x="1134" y="-350" on="1"/>
      </contour>
    </TTGlyph>
    <TTGlyph name="nnnaprehalftamil" xMin="95" yMin="81" xMax="2750" yMax="1847">
      <component glyphName="nnnatamil" x="0" y="0" flags="0x204"/>
      <component glyphName="viramatamil" x="1962" y="0" flags="0x4"/>
    </TTGlyph>
    <TTGlyph name="nnnatamil" xMin="95" yMin="81" xMax="2750" yMax="1279">
      <contour>
        <pt x="399" y="771" on="1"/>
        <pt x="501" y="816" on="0"/>
        <pt x="615" y="816" on="1"/>
        <pt x="782" y="816" on="0"/>
        <pt x="981" y="627" on="0"/>
        <pt x="981" y="461" on="1"/>
        <pt x="981" y="280" on="0"/>
        <pt x="764" y="81" on="0"/>
        <pt x="564" y="81" on="1"/>
        <pt x="342" y="81" on="0"/>
        <pt x="95" y="348" on="0"/>
        <pt x="95" y="597" on="1"/>
        <pt x="95" y="802" on="0"/>
        <pt x="301" y="1112" on="0"/>
        <pt x="686" y="1279" on="0"/>
        <pt x="945" y="1279" on="1"/>
        <pt x="1274" y="1279" on="0"/>
        <pt x="1509" y="1140" on="1"/>
        <pt x="1620" y="1204" on="0"/>
        <pt x="1878" y="1255" on="0"/>
        <pt x="2093" y="1255" on="1"/>
        <pt x="2750" y="1255" on="1"/>
        <pt x="2750" y="1038" on="1"/>
        <pt x="2454" y="1038" on="1"/>
        <pt x="2454" y="105" on="1"/>
        <pt x="2152" y="105" on="1"/>
        <pt x="2152" y="1038" on="1"/>
        <pt x="2060" y="1038" on="1"/>
        <pt x="1924" y="1038" on="0"/>
        <pt x="1762" y="1018" on="0"/>
        <pt x="1708" y="994" on="1"/>
        <pt x="1818" y="882" on="0"/>
        <pt x="1928" y="629" on="0"/>
        <pt x="1928" y="488" on="1"/>
        <pt x="1928" y="298" on="0"/>
        <pt x="1713" y="81" on="0"/>
        <pt x="1525" y="81" on="1"/>
        <pt x="1325" y="81" on="0"/>
        <pt x="1112" y="298" on="0"/>
        <pt x="1112" y="489" on="1"/>
        <pt x="1112" y="621" on="0"/>
        <pt x="1213" y="876" on="0"/>
        <pt x="1311" y="986" on="1"/>
        <pt x="1234" y="1022" on="0"/>
        <pt x="1053" y="1058" on="0"/>
        <pt x="948" y="1058" on="1"/>
        <pt x="748" y="1058" on="0"/>
        <pt x="461" y="907" on="0"/>
      </contour>
      <contour>
        <pt x="1508" y="851" on="1"/>
        <pt x="1453" y="788" on="0"/>
        <pt x="1393" y="610" on="0"/>
        <pt x="1393" y="510" on="1"/>
        <pt x="1393" y="402" on="0"/>
        <pt x="1456" y="289" on="0"/>
        <pt x="1517" y="289" on="1"/>
        <pt x="1644" y="289" on="0"/>
        <pt x="1644" y="508" on="1"/>
        <pt x="1644" y="602" on="0"/>
        <pt x="1574" y="781" on="0"/>
      </contour>
      <contour>
        <pt x="362" y="546" on="1"/>
        <pt x="369" y="422" on="0"/>
        <pt x="474" y="289" on="0"/>
        <pt x="562" y="289" on="1"/>
        <pt x="625" y="289" on="0"/>
        <pt x="699" y="373" on="0"/>
        <pt x="699" y="447" on="1"/>
        <pt x="699" y="522" on="0"/>
        <pt x="611" y="611" on="0"/>
        <pt x="539" y="611" on="1"/>
        <pt x="451" y="611" on="0"/>
      </contour>
    </TTGlyph>
    <TTGlyph name="nnnauuvowelsigntamil" xMin="67" yMin="-553" xMax="4027" yMax="1279">
      <contour>
        <pt x="3131" y="-239" on="1"/>
        <pt x="2205" y="-239" on="1"/>
        <pt x="1984" y="-396" on="0"/>
        <pt x="1370" y="-553" on="0"/>
        <pt x="977" y="-553" on="1"/>
        <pt x="850" y="-553" on="1"/>
        <pt x="683" y="-553" on="0"/>
        <pt x="460" y="-537" on="0"/>
        <pt x="269" y="-490" on="0"/>
        <pt x="128" y="-399" on="0"/>
        <pt x="67" y="-286" on="0"/>
        <pt x="67" y="-217" on="1"/>
        <pt x="67" y="-144" on="0"/>
        <pt x="138" y="-57" on="0"/>
        <pt x="253" y="-22" on="0"/>
        <pt x="391" y="-22" on="1"/>
        <pt x="2033" y="-22" on="1"/>
        <pt x="2136" y="106" on="0"/>
        <pt x="2247" y="425" on="0"/>
        <pt x="2247" y="597" on="1"/>
        <pt x="2247" y="825" on="0"/>
        <pt x="2067" y="1062" on="0"/>
        <pt x="1894" y="1062" on="1"/>
        <pt x="1836" y="1062" on="0"/>
        <pt x="1731" y="1039" on="0"/>
        <pt x="1685" y="1016" on="1"/>
        <pt x="1806" y="901" on="0"/>
        <pt x="1928" y="637" on="0"/>
        <pt x="1928" y="488" on="1"/>
        <pt x="1928" y="298" on="0"/>
        <pt x="1713" y="81" on="0"/>
        <pt x="1524" y="81" on="1"/>
        <pt x="1324" y="81" on="0"/>
        <pt x="1110" y="297" on="0"/>
        <pt x="1110" y="489" on="1"/>
        <pt x="1110" y="627" on="0"/>
        <pt x="1209" y="877" on="0"/>
        <pt x="1309" y="988" on="1"/>
        <pt x="1234" y="1023" on="0"/>
        <pt x="1055" y="1058" on="0"/>
        <pt x="951" y="1058" on="1"/>
        <pt x="750" y="1058" on="0"/>
        <pt x="461" y="906" on="0"/>
        <pt x="399" y="771" on="1"/>
        <pt x="501" y="816" on="0"/>
        <pt x="615" y="816" on="1"/>
        <pt x="782" y="816" on="0"/>
        <pt x="981" y="627" on="0"/>
        <pt x="981" y="461" on="1"/>
        <pt x="981" y="280" on="0"/>
        <pt x="764" y="81" on="0"/>
        <pt x="564" y="81" on="1"/>
        <pt x="342" y="81" on="0"/>
        <pt x="95" y="348" on="0"/>
        <pt x="95" y="597" on="1"/>
        <pt x="95" y="799" on="0"/>
        <pt x="296" y="1109" on="0"/>
        <pt x="680" y="1279" on="0"/>
        <pt x="940" y="1279" on="1"/>
        <pt x="1100" y="1279" on="0"/>
        <pt x="1376" y="1213" on="0"/>
        <pt x="1492" y="1148" on="1"/>
        <pt x="1591" y="1218" on="0"/>
        <pt x="1807" y="1279" on="0"/>
        <pt x="1946" y="1279" on="1"/>
        <pt x="2236" y="1279" on="0"/>
        <pt x="2549" y="920" on="0"/>
        <pt x="2549" y="595" on="1"/>
        <pt x="2549" y="427" on="0"/>
        <pt x="2457" y="106" on="0"/>
        <pt x="2373" y="-22" on="1"/>
        <pt x="2829" y="-22" on="1"/>
        <pt x="2829" y="1255" on="1"/>
        <pt x="4027" y="1255" on="1"/>
        <pt x="4027" y="1038" on="1"/>
        <pt x="3741" y="1038" on="1"/>
        <pt x="3741" y="-239" on="1"/>
        <pt x="3439" y="-239" on="1"/>
        <pt x="3439" y="1038" on="1"/>
        <pt x="3131" y="1038" on="1"/>
      </contour>
      <contour>
        <pt x="1500" y="859" on="1"/>
        <pt x="1446" y="789" on="0"/>
        <pt x="1393" y="614" on="0"/>
        <pt x="1393" y="510" on="1"/>
        <pt x="1393" y="402" on="0"/>
        <pt x="1456" y="289" on="0"/>
        <pt x="1517" y="289" on="1"/>
        <pt x="1644" y="289" on="0"/>
        <pt x="1644" y="508" on="1"/>
        <pt x="1644" y="604" on="0"/>
        <pt x="1570" y="788" on="0"/>
      </contour>
      <contour>
        <pt x="362" y="546" on="1"/>
        <pt x="369" y="422" on="0"/>
        <pt x="474" y="289" on="0"/>
        <pt x="562" y="289" on="1"/>
        <pt x="625" y="289" on="0"/>
        <pt x="699" y="373" on="0"/>
        <pt x="699" y="447" on="1"/>
        <pt x="699" y="522" on="0"/>
        <pt x="611" y="611" on="0"/>
        <pt x="539" y="611" on="1"/>
        <pt x="451" y="611" on="0"/>
      </contour>
      <contour>
        <pt x="968" y="-350" on="1"/>
        <pt x="1222" y="-350" on="0"/>
        <pt x="1650" y="-284" on="0"/>
        <pt x="1799" y="-221" on="1"/>
        <pt x="419" y="-221" on="1"/>
        <pt x="372" y="-221" on="0"/>
        <pt x="340" y="-237" on="0"/>
        <pt x="340" y="-255" on="1"/>
        <pt x="340" y="-306" on="0"/>
        <pt x="603" y="-350" on="0"/>
        <pt x="859" y="-350" on="1"/>
      </contour>
    </TTGlyph>
</ttFont>
